<svg width="24" height="20" viewBox="0 0 24 20" fill="none" xmlns="http://www.w3.org/2000/svg">
<path d="M17.9988 15.0034V20.0034H15.9988L15.9988 15.0034C15.9988 10.5524 18.6428 6.71842 22.4458 4.98742L23.2738 6.80742C21.7005 7.523 20.3664 8.67636 19.431 10.1297C18.4956 11.5831 17.9984 13.275 17.9988 15.0034V15.0034ZM7.99875 15.0034L7.99875 20.0034H5.99875L5.99875 15.0034C5.9989 13.2752 5.50158 11.5835 4.56619 10.1303C3.6308 8.67714 2.29688 7.52393 0.723755 6.80842L1.55175 4.98742C3.47444 5.86191 5.10476 7.27138 6.24798 9.04747C7.3912 10.8236 7.99899 12.8912 7.99875 15.0034ZM11.9988 10.0034C10.6727 10.0034 9.4009 9.47663 8.46322 8.53895C7.52554 7.60127 6.99875 6.3295 6.99875 5.00342C6.99875 3.67734 7.52554 2.40557 8.46322 1.46788C9.4009 0.530202 10.6727 0.00341797 11.9988 0.00341797C13.3248 0.00341797 14.5966 0.530202 15.5343 1.46788C16.472 2.40557 16.9988 3.67734 16.9988 5.00342C16.9988 6.3295 16.472 7.60127 15.5343 8.53895C14.5966 9.47663 13.3248 10.0034 11.9988 10.0034V10.0034ZM11.9988 8.00342C12.3927 8.00342 12.7828 7.92582 13.1468 7.77506C13.5108 7.62429 13.8415 7.40331 14.1201 7.12474C14.3987 6.84616 14.6196 6.51545 14.7704 6.15147C14.9212 5.78749 14.9988 5.39738 14.9988 5.00342C14.9988 4.60945 14.9212 4.21934 14.7704 3.85537C14.6196 3.49139 14.3987 3.16067 14.1201 2.8821C13.8415 2.60352 13.5108 2.38254 13.1468 2.23178C12.7828 2.08102 12.3927 2.00342 11.9988 2.00342C11.2031 2.00342 10.44 2.31949 9.87743 2.8821C9.31482 3.44471 8.99875 4.20777 8.99875 5.00342C8.99875 5.79907 9.31482 6.56213 9.87743 7.12474C10.44 7.68735 11.2031 8.00342 11.9988 8.00342V8.00342Z" fill="#1E2742"/>
</svg>
