<svg width="22" height="19" viewBox="0 0 22 19" fill="none" xmlns="http://www.w3.org/2000/svg">
<g clip-path="url(#clip0_1197_63)">
<path d="M10.6948 1.52798C9.07165 1.52798 7.55396 1.80521 6.1417 2.35968C4.72944 2.91415 3.60758 3.66208 2.77614 4.60348C1.9447 5.54487 1.52897 6.56206 1.52897 7.65504C1.52897 8.54857 1.81341 9.40021 2.3823 10.21C2.95118 11.0197 3.75279 11.7198 4.78712 12.3102L5.82543 12.9085L5.5032 14.0573C5.31225 14.7833 5.03377 15.4694 4.66778 16.1156C5.87715 15.613 6.97116 14.9309 7.94979 14.0693L8.46298 13.6146L9.14326 13.6864C9.69225 13.7502 10.2094 13.7821 10.6948 13.7821C12.3179 13.7821 13.8355 13.5049 15.2478 12.9504C16.6601 12.3959 17.7819 11.648 18.6134 10.7066C19.4448 9.7652 19.8605 8.74802 19.8605 7.65504C19.8605 6.56206 19.4448 5.54487 18.6134 4.60348C17.7819 3.66208 16.6601 2.91415 15.2478 2.35968C13.8355 1.80521 12.3179 1.52798 10.6948 1.52798ZM21.3882 7.65504C21.3882 9.0432 20.9108 10.3257 19.956 11.5024C19.0012 12.6791 17.7044 13.6086 16.0653 14.2907C14.4263 14.9728 12.6361 15.3139 10.6948 15.3139C10.1378 15.3139 9.56097 15.282 8.96424 15.2181C7.38887 16.6143 5.55889 17.5796 3.47432 18.1141C3.08445 18.2258 2.63094 18.3136 2.11377 18.3774H2.0541C1.93475 18.3774 1.82734 18.3355 1.73186 18.2517C1.63638 18.168 1.57273 18.0583 1.54091 17.9226V17.9107C1.51704 17.8788 1.51505 17.8309 1.53494 17.7671C1.55483 17.7033 1.56279 17.6634 1.55881 17.6474C1.55483 17.6315 1.57273 17.5936 1.61252 17.5337L1.68412 17.426L1.76767 17.3243L1.86314 17.2166C1.91884 17.1528 2.04216 17.0152 2.23312 16.8037C2.42407 16.5923 2.56132 16.4407 2.64486 16.349C2.7284 16.2573 2.85173 16.0997 3.01483 15.8763C3.17794 15.6529 3.30723 15.4495 3.40271 15.266C3.49818 15.0825 3.6056 14.8472 3.72494 14.5599C3.84429 14.2727 3.94772 13.9696 4.03524 13.6505C2.78609 12.9404 1.80148 12.0629 1.08143 11.0177C0.36137 9.97263 0.00134277 8.85173 0.00134277 7.65504C0.00134277 6.26688 0.478727 4.98442 1.4335 3.80768C2.38827 2.63093 3.68516 1.7015 5.32418 1.01939C6.9632 0.337273 8.75339 -0.00378418 10.6948 -0.00378418C12.6361 -0.00378418 14.4263 0.337273 16.0653 1.01939C17.7044 1.7015 19.0012 2.63093 19.956 3.80768C20.9108 4.98442 21.3882 6.26688 21.3882 7.65504Z" fill="white"/>
</g>
<defs>
<clipPath id="clip0_1197_63">
<rect width="21.3868" height="18.3812" fill="white" transform="translate(0.0012207 -0.00354004)"/>
</clipPath>
</defs>
</svg>
