<svg width="73" height="62" viewBox="0 0 73 62" fill="none" xmlns="http://www.w3.org/2000/svg">
<mask id="mask0_1504_71" style="mask-type:luminance" maskUnits="userSpaceOnUse" x="0" y="0" width="73" height="62">
<path d="M73 0H0V62H73V0Z" fill="white"/>
</mask>
<g mask="url(#mask0_1504_71)">
<path d="M2.25727 58.8107H37.2489H61.2248L55.7168 57.5147C55.5008 57.5147 54.7449 57.3203 53.4488 56.5426C52.1529 55.7651 51.8288 54.2747 51.8288 53.6267L49.2369 36.4548C50.2089 35.9149 52.9953 34.3165 56.3649 32.2429C60.5768 29.6509 65.4368 25.4389 68.3527 22.199C71.2687 18.959 70.2967 18.959 70.2967 16.043C70.2967 13.7103 61.6568 11.3991 57.3368 10.535C56.5809 7.83508 53.9025 2.49992 49.2369 2.75911C43.4049 3.08314 41.4609 10.2111 41.137 11.1831C40.8129 12.155 34.009 8.5911 17.8092 23.171C4.84922 34.8349 1.71726 52.2227 2.25727 58.8107Z" fill="url(#paint0_linear_1504_71)"/>
<path d="M17.8078 33.8625C11.3279 38.7873 6.35997 51.0344 4.19995 56.8663L13.9198 55.2463L22.6678 51.3583C22.6678 51.3583 26.1022 49.9328 33.3597 44.2304C42.4316 37.1025 39.5157 30.6226 38.5437 29.0026C37.7661 27.7066 34.7636 27.3826 33.3597 27.3826C30.8757 27.4906 24.2878 28.9377 17.8078 33.8625Z" fill="url(#paint1_linear_1504_71)" stroke="#232938" stroke-width="3.9"/>
<path d="M36.2754 57.5147H3.22763C2.68764 50.9267 4.84759 34.8349 17.8075 23.171C34.0074 8.5911 40.8113 12.155 41.1353 11.1831C41.4593 10.2111 43.4033 3.08314 49.2352 2.75911C53.9008 2.49992 56.5791 7.83508 57.3352 10.535C61.6551 11.3991 70.295 13.7103 70.295 16.043C70.295 18.959 71.267 18.959 68.3511 22.199C65.4351 25.4389 60.5752 29.6509 56.3632 32.2429C52.9936 34.3165 50.2072 35.9149 49.2352 36.4548L51.8272 53.6267C51.8272 54.2747 52.1512 55.7651 53.4472 56.5427C54.7432 57.3203 55.4992 57.5147 55.7152 57.5147H60.2511" stroke="#232938" stroke-width="3.9" stroke-linecap="round"/>
<path d="M49.561 14.7469C51.8872 14.7469 53.7729 12.8612 53.7729 10.535C53.7729 8.20876 51.8872 6.323 49.561 6.323C47.2348 6.323 45.349 8.20876 45.349 10.535C45.349 12.8612 47.2348 14.7469 49.561 14.7469Z" fill="#232938"/>
<path d="M51.5036 10.2113C52.0404 10.2113 52.4756 9.77615 52.4756 9.23933C52.4756 8.70251 52.0404 8.26733 51.5036 8.26733C50.9668 8.26733 50.5316 8.70251 50.5316 9.23933C50.5316 9.77615 50.9668 10.2113 51.5036 10.2113Z" fill="white"/>
</g>
<defs>
<linearGradient id="paint0_linear_1504_71" x1="2.19995" y1="59.1256" x2="70.2394" y2="17.9779" gradientUnits="userSpaceOnUse">
<stop stop-color="#67C2F9"/>
<stop offset="1" stop-color="#5ECF77"/>
</linearGradient>
<linearGradient id="paint1_linear_1504_71" x1="4.1426" y1="57.1812" x2="39.7824" y2="27.3735" gradientUnits="userSpaceOnUse">
<stop offset="0.120565" stop-color="#0057FF"/>
<stop offset="1" stop-color="#67C2F9"/>
</linearGradient>
</defs>
</svg>
