<svg xmlns="http://www.w3.org/2000/svg" fill="none" viewBox="0 0 459 464"><path fill="url(#a)" d="M195.471 2.825c103.867-15.604 201.834 40.35 244.099 130.729 61.238 130.952-173.138-20.463-272.02-30.758-30.91-3.218-29.592 8.486-17.65 28.535-30.344 4.751-83.728-109.08 45.571-128.506"/><path fill="url(#b)" d="M195.471 2.854C74.556 21.02 20.467 118.83 4.812 174.525c-11.479 40.841 1.3 43.315 37.196 47.492 46.38 5.397 132.593 8.671 148.798-7.912 25.098-25.682-77.972-87.377-56.759-157.86 9.03-30.007 38.239-51.895 74.701-55.017z"/><path fill="url(#c)" d="M264.252 461.175c-103.867 15.604-201.833-40.35-244.099-130.729-61.238-130.952 173.138 20.463 272.02 30.758 30.91 3.218 29.593-8.486 17.65-28.535 30.344-4.751 83.728 109.081-45.571 128.506"/><path fill="url(#d)" d="M264.252 461.146c120.915-18.166 175.004-115.975 190.659-171.671 11.479-40.841-1.3-43.315-37.196-47.492-46.379-5.397-132.593-8.671-148.798 7.912-25.098 25.682 77.972 87.377 56.759 157.86-9.03 30.007-38.239 51.895-74.701 55.017z"/><defs><linearGradient id="a" x1="428.641" x2="183.18" y1="190.268" y2="44.962" gradientUnits="userSpaceOnUse"><stop stop-color="#D86BED"/><stop offset=".769" stop-color="#5641B7"/><stop offset="1" stop-color="#2E34A7"/></linearGradient><linearGradient id="b" x1="174.964" x2="61.123" y1="69.574" y2="237.863" gradientUnits="userSpaceOnUse"><stop stop-color="#D86BED"/><stop offset=".769" stop-color="#5641B7"/><stop offset="1" stop-color="#2E34A7"/></linearGradient><linearGradient id="c" x1="31.082" x2="276.543" y1="273.732" y2="419.038" gradientUnits="userSpaceOnUse"><stop stop-color="#D86BED"/><stop offset=".769" stop-color="#5641B7"/><stop offset="1" stop-color="#2E34A7"/></linearGradient><linearGradient id="d" x1="284.759" x2="398.6" y1="394.426" y2="226.136" gradientUnits="userSpaceOnUse"><stop stop-color="#D86BED"/><stop offset=".769" stop-color="#5641B7"/><stop offset="1" stop-color="#2E34A7"/></linearGradient></defs></svg>