<svg width="18" height="18" viewBox="0 0 18 18" fill="none" xmlns="http://www.w3.org/2000/svg">
<path d="M0.000244141 0H2.00024L2.00024 2H0.000244141L0.000244141 0ZM4.00024 0H6.00024V2H4.00024V0ZM8.00024 0H10.0002V2H8.00024V0ZM12.0002 0H14.0002V2H12.0002V0ZM16.0002 0H18.0002V2H16.0002V0ZM16.0002 4H18.0002V6H16.0002V4ZM0.000244141 16H2.00024L2.00024 18H0.000244141L0.000244141 16ZM0.000244141 12H2.00024L2.00024 14H0.000244141L0.000244141 12ZM0.000244141 8H2.00024L2.00024 10H0.000244141L0.000244141 8ZM0.000244141 4H2.00024V6H0.000244141L0.000244141 4ZM7.66724 8L8.70324 6.445C8.79459 6.30808 8.91832 6.19583 9.06346 6.11821C9.2086 6.04058 9.37065 5.99998 9.53524 6H12.4652C12.6298 5.99998 12.7919 6.04058 12.937 6.11821C13.0822 6.19583 13.2059 6.30808 13.2972 6.445L14.3332 8H17.0002C17.2655 8 17.5198 8.10536 17.7074 8.29289C17.8949 8.48043 18.0002 8.73478 18.0002 9L18.0002 17C18.0002 17.2652 17.8949 17.5196 17.7074 17.7071C17.5198 17.8946 17.2655 18 17.0002 18H5.00024C4.73503 18 4.48067 17.8946 4.29314 17.7071C4.1056 17.5196 4.00024 17.2652 4.00024 17L4.00024 9C4.00024 8.73478 4.1056 8.48043 4.29314 8.29289C4.48067 8.10536 4.73503 8 5.00024 8H7.66724ZM6.00024 16H16.0002L16.0002 10H13.2632L11.9302 8H10.0702L8.73724 10H6.00024L6.00024 16ZM11.0002 15C10.4698 15 9.9611 14.7893 9.58603 14.4142C9.21096 14.0391 9.00024 13.5304 9.00024 13C9.00024 12.4696 9.21096 11.9609 9.58603 11.5858C9.9611 11.2107 10.4698 11 11.0002 11C11.5307 11 12.0394 11.2107 12.4145 11.5858C12.7895 11.9609 13.0002 12.4696 13.0002 13C13.0002 13.5304 12.7895 14.0391 12.4145 14.4142C12.0394 14.7893 11.5307 15 11.0002 15Z" fill="#1E2742"/>
</svg>
