<svg width="13" height="13" viewBox="0 0 13 13" fill="none" xmlns="http://www.w3.org/2000/svg">
<path fill-rule="evenodd" clip-rule="evenodd" d="M6.50208 0.493896C3.18844 0.493896 0.502075 3.18026 0.502075 6.4939C0.502075 9.80753 3.18844 12.4939 6.50208 12.4939C9.81571 12.4939 12.5021 9.80753 12.5021 6.4939C12.5021 3.18026 9.81571 0.493896 6.50208 0.493896ZM9.1028 5.47935C9.15069 5.42461 9.18715 5.36085 9.21003 5.29181C9.23291 5.22277 9.24176 5.14985 9.23604 5.07734C9.23033 5.00484 9.21017 4.9342 9.17675 4.8696C9.14334 4.805 9.09734 4.74774 9.04147 4.70117C8.98559 4.65461 8.92097 4.61969 8.8514 4.59848C8.78183 4.57726 8.70872 4.57017 8.63638 4.57762C8.56403 4.58507 8.4939 4.60692 8.43012 4.64188C8.36634 4.67683 8.31019 4.72419 8.26498 4.78117L5.91953 7.59517L4.70589 6.38099C4.60302 6.28163 4.46524 6.22665 4.32222 6.22789C4.1792 6.22914 4.0424 6.2865 3.94127 6.38763C3.84013 6.48876 3.78277 6.62557 3.78153 6.76859C3.78028 6.9116 3.83526 7.04939 3.93462 7.15226L5.57098 8.78862C5.62458 8.84219 5.68875 8.88399 5.75939 8.91138C5.83004 8.93877 5.90562 8.95114 5.98131 8.94771C6.05701 8.94427 6.13115 8.9251 6.19903 8.89141C6.2669 8.85773 6.32701 8.81028 6.37553 8.75208L9.1028 5.47935Z" fill="#008000"/>
</svg>
