<svg viewBox="0 0 183 92" xmlns="http://www.w3.org/2000/svg"><mask id="a" fill="#fff"><path d="M36.997 66.238v-.518h.4v.518zm-.076-14.144h-.4v-.518h.4zm-.271 14.144h-.404v-.518h.404zm-.476-14.144h-.401v-.518h.4zm-.275 14.144h-.4v-.518h.4zm-.476-14.144h-.398v-.518h.398zm-.272 14.144h-.4v-.518h.4zm-.476-14.144h-.4v-.518h.4zm-.272 14.144H34v-.518h.403zm-.476-14.144h-.4v-.518h.4zm-.275 14.144h-.4v-.518h.4zm-.473-14.144h-.4v-.518h.4zm-.274 14.144h-.4v-.518h.4zm-.474-14.144h-.4v-.518h.4zm-.274 14.144h-.4v-.518h.4zm-.474-14.144h-.4v-.518h.4zm-.277 14.144h-.398v-.518h.398zm-.473-14.144h-.398v-.518h.398zm-.275 14.144h-.398v-.518h.398zm5.737-30.132h-.222v-.518h-.347v.518h-.403v-.518h-.348v.518h-.4v-.518h-.348v.518h-.4v-.518h-.347v.518h-.4v-.518h-.351v.518h-.398v-.518h-.35v.518h-.398v-.518h-.347v.518h-.224L29.905 65.72h.005v.518h-.025l-.569 13.99h8.877z"/></mask><path d="M36.997 66.238v-.518h.4v.518zm-.076-14.144h-.4v-.518h.4zm-.271 14.144h-.404v-.518h.404zm-.476-14.144h-.401v-.518h.4zm-.275 14.144h-.4v-.518h.4zm-.476-14.144h-.398v-.518h.398zm-.272 14.144h-.4v-.518h.4zm-.476-14.144h-.4v-.518h.4zm-.272 14.144H34v-.518h.403zm-.476-14.144h-.4v-.518h.4zm-.275 14.144h-.4v-.518h.4zm-.473-14.144h-.4v-.518h.4zm-.274 14.144h-.4v-.518h.4zm-.474-14.144h-.4v-.518h.4zm-.274 14.144h-.4v-.518h.4zm-.474-14.144h-.4v-.518h.4zm-.277 14.144h-.398v-.518h.398zm-.473-14.144h-.398v-.518h.398zm-.275 14.144h-.398v-.518h.398zm5.737-30.132h-.222v-.518h-.347v.518h-.403v-.518h-.348v.518h-.4v-.518h-.348v.518h-.4v-.518h-.347v.518h-.4v-.518h-.351v.518h-.398v-.518h-.35v.518h-.398v-.518h-.347v.518h-.224L29.905 65.72h.005v.518h-.025l-.569 13.99h8.877z" fill="#FEFEFE"/><path d="M36.997 66.238v.297h-.296v-.297zm0-.518h-.296v-.297h.296zm.4 0v-.297h.297v.297zm0 .518h.297v.297h-.296zm-.476-14.144h.297v.296h-.297zm-.4 0v.296h-.297v-.296zm0-.518h-.297v-.297h.297zm.4 0v-.297h.297v.297zm-.271 14.662h.296v.296h-.296zm-.404 0v.296h-.296v-.296zm0-.518h-.296v-.297h.296zm.404 0v-.297h.296v.297zm-.476-13.626h.296v.296h-.297zm-.401 0v.296h-.297v-.296zm0-.519h-.297v-.296h.297zm.4 0v-.296h.297v.296zM35.9 66.237h.296v.297H35.9zm-.4 0v.297h-.297v-.297zm0-.518h-.297v-.296h.296zm.4 0v-.296h.296v.296zm-.476-13.626h.296v.297h-.296zm-.398 0v.297h-.296v-.297zm0-.518h-.296v-.296h.296zm.398 0v-.296h.296v.296zm-.272 14.662h.296v.297h-.296zm-.4 0v.297h-.297v-.297zm0-.518h-.297v-.297h.296zm.4 0v-.297h.296v.297zm-.476-13.626h.296v.296h-.296zm-.4 0v.296h-.297v-.296zm0-.518h-.297v-.297h.296zm.4 0v-.297h.296v.297zm-.272 14.662h.297v.296h-.297zm-.403 0v.296h-.297v-.296zm0-.519h-.297v-.296H34zm.403 0v-.296h.297v.296zm-.476-13.626h.296v.297h-.296zm-.4 0v.297h-.297v-.297zm0-.518h-.297v-.296h.296zm.4 0v-.296h.296v.296zm-.275 14.662h.297v.297h-.297zm-.4 0v.297h-.297v-.297zm0-.518h-.297v-.296h.297zm.4 0v-.296h.297v.296zm-.473-13.626h.296v.296h-.296zm-.4 0v.296h-.297v-.296zm0-.518h-.297v-.297h.297zm.4 0v-.297h.296v.297zm-.274 14.662h.296v.296h-.296zm-.4 0v.296h-.297v-.296zm0-.518h-.297v-.297h.296zm.4 0v-.297h.296v.297zm-.474-13.626h.297v.296h-.297zm-.4 0v.296h-.297v-.296zm0-.519h-.297v-.296h.297zm.4 0v-.296h.297v.296zm-.274 14.662h.296v.297h-.296zm-.4 0v.297h-.297v-.297zm0-.518h-.297v-.296h.296zm.4 0v-.296h.296v.296zm-.474-13.626h.297v.297h-.297zm-.4 0v.297h-.297v-.297zm0-.518h-.297v-.296h.297zm.4 0v-.296h.297v.296zm-.277 14.662h.296v.297h-.296zm-.398 0v.297h-.296v-.297zm0-.518h-.296v-.297h.296zm.398 0v-.297h.296v.297zm-.473-13.626h.296v.296h-.296zm-.398 0v.296h-.297v-.296zm0-.518h-.297v-.297h.297zm.398 0v-.297h.296v.297zm-.275 14.662h.297v.296h-.297zm-.398 0v.296h-.296v-.296zm0-.519h-.296v-.296h.296zm.398 0v-.296h.297v.296zm5.515-29.614v.297h-.296v-.297zm0-.518v-.296h.297v.296zm-.347 0h-.296v-.296h.296zm0 .518h.297v.297h-.297zm-.403 0v.297h-.297v-.297zm0-.518v-.296h.296v.296zm-.348 0h-.296v-.296h.296zm0 .518h.297v.297h-.297zm-.4 0v.297h-.297v-.297zm0-.518v-.296h.296v.296zm-.348 0h-.296v-.296h.296zm0 .518h.297v.297h-.297zm-.4 0v.297h-.297v-.297zm0-.518v-.296h.296v.296zm-.347 0h-.297v-.296h.297zm0 .518h.296v.297h-.296zm-.4 0v.297h-.297v-.297zm0-.518v-.296h.295v.296zm-.351 0h-.297v-.296h.297zm0 .518h.296v.297h-.296zm-.398 0v.297h-.296v-.297zm0-.518v-.296h.297v.296zm-.35 0h-.296v-.296h.296zm0 .518h.296v.297h-.296zm-.398 0v.297h-.296v-.297zm0-.518v-.296h.297v.296zm-.347 0h-.296v-.296h.296zm0 .518h.296v.297h-.296zm-.224 0-.296-.012.011-.284h.285zm-1.207 29.614v.297h-.31l.013-.309zm.005 0v-.296h.297v.296zm0 .519h.297v.296h-.297zm-.025 0-.296-.012.011-.285h.285zm-.569 13.989v.296h-.308l.012-.308zm8.877 0 .296-.012.013.308h-.309zM36.7 66.234v-.518h.593v.519zm.297-.814h.4v.593h-.4zm.697.296v.519h-.593v-.519zm-.297.815h-.4v-.593h.4zm-.476-14.144h-.4v-.593h.4zm-.697-.296v-.518h.593v.518zm.297-.815h.4v.593h-.4zm.697.297v.518h-.593v-.518zM36.65 66.53h-.404v-.593h.404zm-.7-.297v-.518h.593v.518zm.296-.815h.404v.593h-.404zm.7.297v.518h-.593v-.518zm-.773-13.33h-.4v-.592h.4zm-.697-.296v-.518h.593v.518zm.297-.814h.4v.593h-.4zm.697.296v.518h-.593v-.518zm-.571 14.958h-.4v-.593h.4zm-.697-.296v-.518h.593v.518zm.296-.815h.4v.593h-.4zm.697.297v.518h-.592v-.518zm-.772-13.33h-.398v-.592h.398zm-.694-.296v-.518h.593v.518zm.296-.815h.398v.593h-.398zm.694.297v.518h-.593v-.518zm-.568 14.958h-.4v-.593h.4zm-.697-.297v-.518h.593v.518zm.297-.814h.4v.593h-.4zm.697.296v.518h-.593v-.518zm-.773-13.329h-.4v-.593h.4zm-.697-.296v-.518h.593v.518zm.296-.815h.4v.593h-.4zm.697.297v.518h-.593v-.518zm-.568 14.958H34v-.593h.403zm-.7-.297v-.518h.593v.518zM34 65.42h.403v.592H34zm.7.296v.518h-.593v-.518zm-.773-13.33h-.4v-.592h.4zm-.697-.295v-.519h.593v.519zm.296-.815h.401v.593h-.4zm.697.296v.519h-.592v-.519zm-.57 14.958h-.401v-.593h.4zm-.697-.296v-.518h.592v.518zm.296-.815h.4v.593h-.4zm.697.297v.518h-.593v-.518zm-.77-13.33h-.4v-.592h.4zm-.697-.296v-.518h.593v.518zm.297-.814h.4v.592h-.4zm.697.296v.518h-.593v-.518zm-.571 14.958h-.4v-.593h.4zm-.697-.296v-.519h.593v.519zm.296-.815h.4v.593h-.4zm.697.296v.519h-.593v-.519zm-.77-13.329h-.4v-.593h.4zm-.697-.296v-.518h.593v.518zm.297-.815h.4v.593h-.4zm.697.297v.518h-.593v-.518zm-.571 14.958h-.4v-.593h.4zm-.697-.297v-.518h.593v.518zm.296-.814h.4v.593h-.4zm.697.296v.518h-.593v-.518zm-.77-13.329h-.4v-.593h.4zm-.697-.296v-.519h.593v.519zm.297-.815h.4v.593h-.4zm.697.296v.519h-.593v-.519zm-.574 14.958h-.398v-.592h.398zm-.694-.296v-.518h.593v.518zm.296-.815h.398v.593h-.398zm.695.297v.518h-.593v-.518zm-.77-13.33h-.398v-.592h.398zm-.695-.296v-.518h.593v.518zm.297-.814h.398v.593h-.398zm.694.296v.518h-.593v-.518zm-.57 14.958h-.399v-.593h.398zm-.695-.296v-.519h.593v.519zm.296-.815h.398v.593h-.398zm.695.296v.519h-.593v-.519zm5.44-29.318h-.221v-.592h.22zm-.518-.296v-.518h.593v.518zm.297-.222h-.348v-.593h.348zm-.051-.296v.518h-.593v-.518zm-.297.814h-.403v-.592h.403zm-.7-.296v-.518h.593v.518zm.297-.222h-.348v-.593h.348zm-.051-.296v.518h-.593v-.518zm-.297.814h-.4v-.592h.4zm-.697-.296v-.518h.593v.518zm.297-.222h-.347v-.593h.347zm-.051-.296v.518h-.593v-.518zm-.296.814h-.401v-.592h.4zm-.697-.296v-.518h.592v.518zm.296-.222h-.347v-.593h.347zm-.05-.296v.518h-.594v-.518zm-.297.814h-.4v-.592h.4zm-.697-.296v-.518h.593v.518zm.296-.222h-.35v-.593h.35zm-.054-.296v.518h-.592v-.518zm-.296.814h-.398v-.592h.398zm-.694-.296v-.518h.593v.518zm.296-.222h-.35v-.593h.35zm-.053-.296v.518h-.593v-.518zm-.297.814h-.398v-.592h.398zm-.694-.296v-.518h.593v.518zm.296-.222h-.347v-.593h.347zm-.05-.296v.518h-.593v-.518zm-.297.814h-.224v-.592h.224zm.072-.284-1.207 29.614-.593-.024 1.208-29.614zm-1.503 29.306h.005v.593h-.005zm.302.296v.519h-.593v-.519zm-.297.815h-.025v-.593h.025zm.271-.284-.568 13.988-.593-.024.569-13.99zm-.865 13.68h8.877v.593h-8.877zm8.58.308L36.1 36.112l.592-.025 1.798 44.121z" fill="#9A2143" mask="url(#a)"/><mask id="b" fill="#fff"><path d="M171.43 42.585v.682h-.525v-.682zm.459 0h.525v.682h-.525zm.984 0h.525v.682h-.525zm.984 0h.525v.682h-.525zm.98 0h.529v.682h-.529zm.984 0h.529v.682h-.529zm.984 0h.525v.682h-.525zm.984 0h.525v.682h-.525zm.984 0h.525v.682h-.525zm1.33 18.093-1.565-38.416h-.293v-.684h-.456v.684h-.525v-.684h-.459v.684h-.525v-.684h-.459v.684h-.525v-.684h-.459v.684h-.521v-.684h-.459v.684h-.529v-.684h-.455v.684h-.529v-.684h-.455v.684h-.29l-1.568 38.416z"/></mask><path d="M171.43 42.585v.682h-.525v-.682zm.459 0h.525v.682h-.525zm.984 0h.525v.682h-.525zm.984 0h.525v.682h-.525zm.98 0h.529v.682h-.529zm.984 0h.529v.682h-.529zm.984 0h.525v.682h-.525zm.984 0h.525v.682h-.525zm.984 0h.525v.682h-.525zm1.33 18.093-1.565-38.416h-.293v-.684h-.456v.684h-.525v-.684h-.459v.684h-.525v-.684h-.459v.684h-.525v-.684h-.459v.684h-.521v-.684h-.459v.684h-.529v-.684h-.455v.684h-.529v-.684h-.455v.684h-.29l-1.568 38.416z" fill="#FEFEFE"/><path d="M171.43 42.585v-.296h.296v.296zm0 .682h.296v.296h-.296zm-.525 0v.296h-.297v-.297zm0-.682h-.297v-.296h.297zm.984 0h-.297v-.296h.297zm.525 0v-.296h.296v.296zm0 .682h.296v.296h-.296zm-.525 0v.296h-.297v-.297zm.984-.682h-.296v-.296h.296zm.525 0v-.296h.296v.296zm0 .682h.296v.296h-.296zm-.525 0v.296h-.296v-.297zm.984-.682h-.296v-.296h.296zm.525 0v-.296h.296v.296zm0 .682h.296v.296h-.296zm-.525 0v.296h-.296v-.297zm.98-.682h-.296v-.296h.296zm.529 0v-.296h.296v.296zm0 .682h.296v.296h-.296zm-.529 0v.296h-.296v-.297zm.984-.682h-.296v-.296h.296zm.529 0v-.296h.296v.296zm0 .682h.296v.296h-.296zm-.529 0v.296h-.296v-.297zm.984-.682h-.296v-.296h.296zm.525 0v-.296h.297v.296zm0 .682h.297v.296h-.297zm-.525 0v.296h-.296v-.297zm.984-.682h-.296v-.296h.296zm.525 0v-.296h.297v.296zm0 .682h.297v.296h-.297zm-.525 0v.296h-.296v-.297zm.984-.682h-.296v-.296h.296zm.525 0v-.296h.297v.296zm0 .682h.297v.296h-.297zm-.525 0v.296h-.296v-.297zm-.235-21.005v-.297h.285l.012.284zm-.293 0v.296h-.297v-.296zm0-.684v-.297h.296v.297zm-.456 0h-.296v-.297h.296zm0 .684h.297v.296h-.297zm-.525 0v.296h-.296v-.296zm0-.684v-.297h.297v.297zm-.459 0h-.296v-.297h.296zm0 .684h.297v.296h-.297zm-.525 0v.296h-.296v-.296zm0-.684v-.297h.297v.297zm-.459 0h-.296v-.297h.296zm0 .684h.297v.296h-.297zm-.525 0v.296H175v-.296zm0-.684v-.297h.297v.297zm-.459 0h-.296v-.297h.296zm0 .684h.297v.296h-.297zm-.521 0v.296h-.296v-.296zm0-.684v-.297h.296v.297zm-.459 0h-.296v-.297h.296zm0 .684h.296v.296h-.296zm-.529 0v.296h-.296v-.296zm0-.684v-.297h.297v.297zm-.455 0h-.296v-.297h.296zm0 .684h.296v.296h-.296zm-.529 0v.296h-.296v-.296zm0-.684v-.297h.297v.297zm-.455 0h-.297v-.297h.297zm0 .684h.296v.296h-.296zm-.29 0-.296-.013.011-.284h.285zm-1.568 38.415v.297h-.309l.013-.309zm1.695-18.093v.682h-.592v-.682zm-.296.978h-.525v-.593h.525zm-.822-.296v-.682h.593v.682zm.297-.978h.525v.593h-.525zm.984 0h.525v.593h-.525zm.821.296v.682h-.592v-.682zm-.296.978h-.525v-.593h.525zm-.822-.296v-.682h.593v.682zm1.281-.978h.525v.593h-.525zm.821.296v.682h-.592v-.682zm-.296.978h-.525v-.593h.525zm-.821-.296v-.682h.592v.682zm1.28-.978h.525v.593h-.525zm.821.296v.682h-.592v-.682zm-.296.978h-.525v-.593h.525zm-.821-.296v-.682h.592v.682zm1.276-.978h.529v.593h-.529zm.825.296v.682h-.592v-.682zm-.296.978h-.529v-.593h.529zm-.825-.296v-.682h.593v.682zm1.28-.978h.529v.593h-.529zm.825.296v.682h-.592v-.682zm-.296.978h-.529v-.593h.529zm-.825-.296v-.682h.593v.682zm1.28-.978h.525v.593h-.525zm.822.296v.682h-.593v-.682zm-.297.978h-.525v-.593h.525zm-.821-.296v-.682h.593v.682zm1.28-.978h.525v.593h-.525zm.822.296v.682h-.593v-.682zm-.297.978h-.525v-.593h.525zm-.821-.296v-.682h.593v.682zm1.28-.978h.525v.593h-.525zm.822.296v.682h-.593v-.682zm-.297.978h-.525v-.593h.525zm-.821-.296v-.682h.593v.682zm1.329 17.423-1.564-38.416.593-.024 1.564 38.416zm-1.268-38.131h-.293v-.593h.293zm-.59-.296v-.684h.593v.684zm.297-.388h-.456v-.593h.456zm-.159-.296v.684h-.593v-.684zm-.297.98h-.525v-.593h.525zm-.821-.296v-.684h.593v.684zm.296-.388h-.459v-.593h.459zm-.162-.296v.684h-.593v-.684zm-.297.98h-.525v-.593h.525zm-.821-.296v-.684h.593v.684zm.296-.388h-.459v-.593h.459zm-.162-.296v.684h-.593v-.684zm-.297.98h-.525v-.593h.525zm-.821-.296v-.684h.593v.684zm.296-.388h-.459v-.593h.459zm-.162-.296v.684h-.593v-.684zm-.297.98h-.521v-.593h.521zm-.817-.296v-.684h.592v.684zm.296-.388h-.459v-.593h.459zm-.163-.296v.684h-.592v-.684zm-.296.98h-.529v-.593h.529zm-.825-.296v-.684h.593v.684zm.296-.388h-.455v-.593h.455zm-.159-.296v.684h-.592v-.684zm-.296.98h-.529v-.593h.529zm-.825-.296v-.684h.593v.684zm.296-.388h-.455v-.593h.455zm-.159-.296v.684h-.593v-.684zm-.296.98h-.29v-.593h.29zm.006-.284-1.568 38.416-.592-.024 1.568-38.416zm-1.864 38.107h10.072v.593h-10.072z" fill="#9A2143" mask="url(#b)"/><mask id="c" fill="#fff"><path d="M179.66 61.85h-.525v-.684h.525zm-.985 0h-.526v-.684h.526zm-.982 0h-.525v-.684h.525zm-.985 0h-.526v-.684h.526zm-.981 0h-.526v-.684h.526zm-.982 0h-.526v-.684h.526zm-.985 0h-.526v-.684h.526zm-.982 0h-.526v-.684h.526zm-.985 0h-.526v-.684h.526zm-.986 0h-.522v-.684h.522zm9.309 0v-.684h.008l-.015-.329h-10.081l-.791 19.39h11.662l-.75-18.378z"/></mask><path d="M179.66 61.85h-.525v-.684h.525zm-.985 0h-.526v-.684h.526zm-.982 0h-.525v-.684h.525zm-.985 0h-.526v-.684h.526zm-.981 0h-.526v-.684h.526zm-.982 0h-.526v-.684h.526zm-.985 0h-.526v-.684h.526zm-.982 0h-.526v-.684h.526zm-.985 0h-.526v-.684h.526zm-.986 0h-.522v-.684h.522zm9.309 0v-.684h.008l-.015-.329h-10.081l-.791 19.39h11.662l-.75-18.378z" fill="#FEFEFE"/><path d="M179.66 61.85h.297v.297h-.297zm-.525 0v.297h-.297v-.297zm0-.684h-.297v-.296h.297zm.525 0v-.296h.297v.296zm-.985.684h.297v.297h-.297zm-.526 0v.297h-.296v-.297zm0-.684h-.296v-.296h.296zm.526 0v-.296h.297v.296zm-.982.684h.297v.297h-.297zm-.525 0v.297h-.297v-.297zm0-.684h-.297v-.296h.297zm.525 0v-.296h.297v.296zm-.985.684h.297v.297h-.297zm-.526 0v.297h-.296v-.297zm0-.684h-.296v-.296h.296zm.526 0v-.296h.297v.296zm-.981.684h.296v.297h-.296zm-.526 0v.297h-.297v-.297zm0-.684h-.297v-.296h.297zm.526 0v-.296h.296v.296zm-.982.684h.296v.297h-.296zm-.526 0v.297h-.296v-.297zm0-.684h-.296v-.296h.296zm.526 0v-.296h.296v.296zm-.985.684h.296v.297h-.296zm-.526 0v.297h-.297v-.297zm0-.684h-.297v-.296h.297zm.526 0v-.296h.296v.296zm-.982.684h.296v.297h-.296zm-.526 0v.297h-.296v-.297zm0-.684h-.296v-.296h.296zm.526 0v-.296h.296v.296zm-.985.684h.296v.297h-.296zm-.526 0v.297h-.297v-.297zm0-.684h-.297v-.296h.297zm.526 0v-.296h.296v.296zm-.986.684h.297v.297h-.297zm-.522 0v.297h-.296v-.297zm0-.684h-.296v-.296h.296zm.522 0v-.296h.297v.296zm9.309 0h-.296v-.296h.296zm.008 0 .296-.013.014.31h-.31zm-.015-.329v-.296h.283l.013.283zm-10.081 0-.296-.012.011-.284h.285zm-.791 19.39v.297h-.308l.012-.309zm11.662 0 .297-.012.012.309h-.309zm-.75-18.378v-.296h.285l.012.284zm-.489.297h-.525v-.593h.525zm-.822-.297v-.684h.593v.684zm.297-.98h.525v.593h-.525zm.822.296v.684h-.593v-.684zm-1.282.98h-.526v-.592h.526zm-.822-.296v-.684h.593v.684zm.296-.98h.526v.593h-.526zm.823.296v.684h-.593v-.684zm-1.279.98h-.525v-.592h.525zm-.822-.296v-.684h.593v.684zm.297-.98h.525v.593h-.525zm.822.296v.684h-.593v-.684zm-1.282.98h-.526v-.592h.526zm-.822-.296v-.684h.593v.684zm.296-.98h.526v.593h-.526zm.823.296v.684h-.593v-.684zm-1.278.98h-.526v-.592h.526zm-.823-.296v-.684h.593v.684zm.297-.98h.526v.593h-.526zm.822.296v.684h-.593v-.684zm-1.278.98h-.526v-.592h.526zm-.822-.296v-.684h.593v.684zm.296-.98h.526v.593h-.526zm.822.296v.684h-.593v-.684zm-1.281.98h-.526v-.592h.526zm-.823-.296v-.684h.593v.684zm.297-.98h.526v.593h-.526zm.822.296v.684h-.593v-.684zm-1.278.98h-.526v-.592h.526zm-.822-.296v-.684h.593v.684zm.296-.98h.526v.593h-.526zm.822.296v.684h-.593v-.684zm-1.281.98h-.526v-.592h.526zm-.823-.296v-.684h.593v.684zm.297-.98h.526v.593h-.526zm.822.296v.684h-.593v-.684zm-1.282.98h-.522v-.592h.522zm-.818-.296v-.684h.593v.684zm.296-.98h.522v.593h-.522zm.819.296v.684h-.593v-.684zm8.716.684v-.684h.593v.684zm.296-.98h.008v.593h-.008zm-.288.31-.015-.33.592-.026.015.33zm.281-.046h-10.081v-.593h10.081zm-9.785-.285-.79 19.39-.593-.024.791-19.39zm-1.087 19.082h11.662v.593h-11.662zm11.366.309-.75-18.378.593-.024.75 18.378zm-.454-18.093h-.033v-.593h.033z" fill="#9A2143" mask="url(#c)"/><mask id="d" fill="#fff"><path d="M146.05 66.24v-.518h.404v.518zm.477-14.662h.401v.518h-.401zm.271 14.144h.4v.518h-.4zm.474-14.144h.404v.518h-.404zm.277 14.144h.401v.518h-.401zm.475-14.144h.4v.518h-.4zm.274 14.144h.396v.518h-.396zm.474-14.144h.397v.518h-.397zm.274 14.144h.4v.518h-.4zm.474-14.144h.4v.518h-.4zm.274 14.144h.4v.518h-.4zm.474-14.144h.4v.518h-.4zm.274 14.144h.404v.518h-.404zm.474-14.144h.401v.518h-.401zm.278 14.144h.396v.518h-.396zm.474-14.144h.397v.518h-.397zm.274 14.144h.397v.518h-.397zm.474-14.144h.397v.518h-.397zm.274 14.144h.4v.518h-.4zm-7.534 14.507h8.876l-.569-13.988h-.029v-.518h.008l-1.209-29.614h-.221v-.519h-.344v.519h-.404v-.519h-.348v.519h-.4v-.519h-.348v.519h-.397v-.519h-.351v.519h-.401v-.519h-.347v.519h-.401v-.519h-.347v.519h-.404v-.519h-.348v.519h-.218z"/></mask><path d="M146.05 66.24v-.518h.404v.518zm.477-14.662h.401v.518h-.401zm.271 14.144h.4v.518h-.4zm.474-14.144h.404v.518h-.404zm.277 14.144h.401v.518h-.401zm.475-14.144h.4v.518h-.4zm.274 14.144h.396v.518h-.396zm.474-14.144h.397v.518h-.397zm.274 14.144h.4v.518h-.4zm.474-14.144h.4v.518h-.4zm.274 14.144h.4v.518h-.4zm.474-14.144h.4v.518h-.4zm.274 14.144h.404v.518h-.404zm.474-14.144h.401v.518h-.401zm.278 14.144h.396v.518h-.396zm.474-14.144h.397v.518h-.397zm.274 14.144h.397v.518h-.397zm.474-14.144h.397v.518h-.397zm.274 14.144h.4v.518h-.4zm-7.534 14.507h8.876l-.569-13.988h-.029v-.518h.008l-1.209-29.614h-.221v-.519h-.344v.519h-.404v-.519h-.348v.519h-.4v-.519h-.348v.519h-.397v-.519h-.351v.519h-.401v-.519h-.347v.519h-.401v-.519h-.347v.519h-.404v-.519h-.348v.519h-.218z" fill="#FEFEFE"/><path d="M146.05 66.24v.296h-.297v-.296zm0-.518h-.297v-.297h.297zm.404 0v-.297h.296v.297zm0 .518h.296v.296h-.296zm.073-14.662h-.296v-.296h.296zm.401 0v-.296h.296v.296zm0 .518h.296v.296h-.296zm-.401 0v.296h-.296v-.296zm.271 13.626h-.297v-.296h.297zm.4 0v-.296h.297v.296zm0 .519h.297v.296h-.297zm-.4 0v.296h-.297v-.297zm.474-14.663h-.297v-.296h.297zm.404 0v-.296h.296v.297zm0 .519h.296v.296h-.296zm-.404 0v.296h-.297v-.296zm.277 13.626h-.296v-.297h.296zm.401 0v-.297h.296v.297zm0 .518h.296v.296h-.296zm-.401 0v.296h-.296v-.296zm.475-14.662h-.297v-.296h.297zm.4 0v-.296h.296v.296zm0 .518h.296v.296h-.296zm-.4 0v.296h-.297v-.296zm.274 13.626h-.297v-.296h.297zm.396 0v-.296h.297v.296zm0 .519h.297v.296h-.297zm-.396 0v.296h-.297v-.296zm.474-14.663h-.297v-.296h.297zm.397 0v-.296h.296v.297zm0 .519h.296v.296h-.296zm-.397 0v.296h-.297v-.296zm.274 13.626h-.297v-.297h.297zm.4 0v-.297h.297v.297zm0 .518h.297v.296h-.297zm-.4 0v.296h-.297v-.296zm.474-14.662h-.297v-.296h.297zm.4 0v-.296h.297v.296zm0 .518h.297v.297h-.297zm-.4 0v.297h-.297v-.297zm.274 13.626h-.297v-.296h.297zm.4 0v-.296h.297v.296zm0 .519h.297v.296h-.297zm-.4 0v.296h-.297v-.296zm.474-14.662h-.296v-.297h.296zm.4 0v-.297h.297v.297zm0 .518h.297v.296h-.297zm-.4 0v.296h-.296v-.296zm.274 13.626h-.297v-.297h.297zm.404 0v-.297h.296v.297zm0 .518h.296v.296h-.296zm-.404 0v.296h-.297v-.296zm.474-14.662h-.296v-.296h.296zm.401 0v-.296h.296v.296zm0 .518h.296v.297h-.296zm-.401 0v.297h-.296v-.297zm.278 13.626h-.297v-.296h.297zm.396 0v-.296h.297v.296zm0 .519h.297v.296h-.297zm-.396 0v.296h-.297v-.296zm.474-14.662h-.297v-.297h.297zm.397 0v-.297h.296v.297zm0 .518h.296v.296h-.296zm-.397 0v.296h-.297V52.1zm.274 13.626h-.297v-.297h.297zm.397 0v-.297h.296v.297zm0 .518h.296v.296h-.296zm-.397 0v.296h-.297v-.296zm.474-14.662h-.297v-.296h.297zm.397 0v-.296h.296v.296zm0 .518h.296v.297h-.296zm-.397 0v.297h-.297V52.1zm.274 13.626h-.297v-.296h.297zm.4 0v-.296h.297v.296zm0 .519h.297v.296h-.297zm-.4 0v.296h-.297v-.296zm1.342 13.988.296-.012.012.308h-.308zm-.569-13.988v-.297h.284l.012.284zm-.029 0v.296h-.296v-.296zm0-.519h-.296v-.296h.296zm.008 0 .296-.012.012.309h-.308zm-1.209-29.614v-.296h.285l.011.284zm-.221 0v.297h-.296v-.297zm0-.518v-.296h.296v.296zm-.344 0h-.297v-.296h.297zm0 .518h.296v.297h-.296zm-.404 0v.297h-.297v-.297zm0-.518v-.296h.296v.296zm-.348 0h-.296v-.296h.296zm0 .518h.297v.297h-.297zm-.4 0v.297h-.297v-.297zm0-.518v-.296h.296v.296zm-.348 0h-.296v-.296h.296zm0 .518h.296v.297h-.296zm-.397 0v.297h-.296v-.297zm0-.518v-.296h.297v.296zm-.351 0h-.297v-.296h.297zm0 .518h.296v.297h-.296zm-.401 0v.297h-.296v-.297zm0-.518v-.296h.297v.296zm-.347 0h-.297v-.296h.297zm0 .518h.296v.297h-.296zm-.401 0v.297h-.296v-.297zm0-.518v-.296h.297v.296zm-.347 0h-.297v-.296h.297zm0 .518h.296v.297h-.296zm-.404 0v.297h-.297v-.297zm0-.518v-.296h.296v.296zm-.348 0h-.297v-.296h.297zm0 .518h.296v.297h-.296zm-.218 0-.296-.012.012-.284h.284zm-1.301 30.133v-.518h.593v.518zm.297-.815h.404v.593h-.404zm.7.297v.518h-.593v-.518zm-.296.815h-.404v-.593h.404zm.073-15.255h.401v.592h-.401zm.697.296v.518h-.593v-.518zm-.296.814h-.401v-.592h.401zm-.697-.296v-.518h.593v.518zm.567 13.329h.4v.593h-.4zm.697.297v.518h-.593v-.519zm-.297.814h-.4v-.593h.4zm-.697-.296v-.519h.593v.519zm.771-14.96h.404v.594h-.404zm.7.297v.518h-.593v-.518zm-.296.815h-.404v-.593h.404zm-.701-.297v-.518h.593v.518zm.574 13.33h.401v.592h-.401zm.697.296v.518h-.593v-.518zm-.296.815h-.401v-.593h.401zm-.697-.297v-.518h.593v.518zm.771-14.959h.4v.593h-.4zm.696.297v.518h-.592v-.518zm-.296.814h-.4v-.593h.4zm-.697-.296v-.518h.593v.518zm.571 13.329h.396v.593h-.396zm.693.296v.519h-.593v-.519zm-.297.815h-.396v-.593h.396zm-.693-.296v-.519h.593v.519zm.771-14.96h.397v.594h-.397zm.693.297v.518h-.593v-.518zm-.296.815h-.397v-.593h.397zm-.694-.297v-.518h.593v.518zm.571 13.33h.4v.592h-.4zm.697.296v.518h-.593v-.518zm-.297.814h-.4v-.592h.4zm-.697-.296v-.518h.593v.518zm.771-14.959h.4v.593h-.4zm.697.296v.519h-.593v-.519zm-.297.815h-.4v-.593h.4zm-.697-.296v-.519h.593v.519zm.571 13.329h.4v.592h-.4zm.697.296v.518h-.593v-.518zm-.297.815h-.4v-.593h.4zm-.697-.297v-.518h.593v.518zm.771-14.959h.4v.593h-.4zm.697.297v.518h-.593v-.518zm-.297.814h-.4v-.593h.4zm-.696-.296v-.518h.592v.518zm.57 13.329h.404v.593h-.404zm.7.296v.519h-.593v-.519zm-.296.815h-.404v-.593h.404zm-.701-.296v-.519h.593v.519zm.771-14.96h.401v.594h-.401zm.697.297v.518h-.593v-.518zm-.296.815h-.401V51.8h.401zm-.697-.297v-.518h.593v.518zm.574 13.33h.396v.592h-.396zm.693.296v.518h-.593v-.518zm-.297.815h-.396v-.593h.396zm-.693-.297v-.518h.593v.518zm.771-14.959h.397v.593h-.397zm.693.297v.518h-.593v-.518zm-.296.814h-.397V51.8h.397zm-.694-.296v-.518h.593v.518zm.571 13.329h.397v.593h-.397zm.693.296v.519h-.593v-.519zm-.296.815h-.397v-.593h.397zm-.694-.296v-.519h.593v.519zm.771-14.96h.397v.594h-.397zm.693.297v.518h-.593v-.518zm-.296.815h-.397V51.8h.397zm-.694-.297v-.518h.593v.518zm.571 13.33h.4v.592h-.4zm.697.296v.518h-.593v-.518zm-.297.814h-.4v-.592h.4zm-.697-.296v-.518h.593v.518zm-7.237 13.692h8.876v.593h-8.876zm8.579.309-.569-13.988.593-.025.569 13.988zm-.272-13.704h-.029v-.593h.029zm-.325-.297v-.518h.593v.518zm.296-.815h.008v.593h-.008zm-.289.309-1.208-29.614.592-.024 1.209 29.614zm-.912-29.33h-.221v-.593h.221zm-.517-.297v-.518h.592v.518zm.296-.221h-.344v-.593h.344zm-.048-.297v.518h-.593v-.518zm-.296.815h-.404v-.593h.404zm-.701-.297v-.518h.593v.518zm.297-.221h-.348v-.593h.348zm-.051-.297v.518h-.593v-.518zm-.297.815h-.4v-.593h.4zm-.697-.297v-.518h.593v.518zm.297-.221h-.348v-.593h.348zm-.052-.297v.518h-.592v-.518zm-.296.815h-.397v-.593h.397zm-.693-.297v-.518h.593v.518zm.296-.221h-.351v-.593h.351zm-.055-.297v.518h-.593v-.518zm-.296.815h-.401v-.593h.401zm-.697-.297v-.518h.593v.518zm.296-.221h-.347v-.593h.347zm-.051-.297v.518h-.593v-.518zm-.296.815h-.401v-.593h.401zm-.697-.297v-.518h.593v.518zm.296-.221h-.347v-.593h.347zm-.051-.297v.518h-.593v-.518zm-.296.815h-.404v-.593h.404zm-.701-.297v-.518h.593v.518zm.297-.221h-.348v-.593h.348zm-.052-.297v.518h-.593v-.518zm-.296.815h-.218v-.593h.218zm.078-.285-1.798 44.121-.592-.024 1.798-44.12z" fill="#9A2143" mask="url(#d)"/><mask id="e" fill="#fff"><path d="M4.678 42.586v.682H4.15v-.682zm.458 0h.527v.682h-.527zm.983 0h.527v.682h-.527zm.983 0h.527v.682h-.527zm.982 0h.528v.682h-.528zm.986 0h.524v.682H9.07zm.983 0h.527v.682h-.527zm.983 0h.527v.682h-.527zm.985 0h.524v.682h-.524zm1.39 17.963-1.56-38.286h-.288v-.684h-.456v.684h-.53v-.684h-.455v.684h-.528v-.684h-.458v.684h-.524v-.684h-.459v.684H7.63v-.684h-.46v.684h-.525v-.684h-.46v.684h-.523v-.684h-.46v.684h-.29l-1.56 38.286z"/></mask><path d="M4.678 42.586v.682H4.15v-.682zm.458 0h.527v.682h-.527zm.983 0h.527v.682h-.527zm.983 0h.527v.682h-.527zm.982 0h.528v.682h-.528zm.986 0h.524v.682H9.07zm.983 0h.527v.682h-.527zm.983 0h.527v.682h-.527zm.985 0h.524v.682h-.524zm1.39 17.963-1.56-38.286h-.288v-.684h-.456v.684h-.53v-.684h-.455v.684h-.528v-.684h-.458v.684h-.524v-.684h-.459v.684H7.63v-.684h-.46v.684h-.525v-.684h-.46v.684h-.523v-.684h-.46v.684h-.29l-1.56 38.286z" fill="#FEFEFE"/><path d="M4.678 42.586v-.296h.296v.296zm0 .682h.296v.296h-.296zm-.527 0v.296h-.297v-.296zm0-.682h-.297v-.296h.297zm.985 0H4.84v-.296h.296zm.527 0v-.296h.297v.296zm0 .682h.297v.296h-.297zm-.527 0v.296H4.84v-.296zm.983-.682h-.297v-.296h.297zm.527 0v-.296h.296v.296zm0 .682h.296v.296h-.296zm-.527 0v.296h-.297v-.296zm.983-.682h-.297v-.296h.297zm.527 0v-.296h.296v.296zm0 .682h.296v.296H7.63zm-.527 0v.296h-.297v-.296zm.982-.682h-.296v-.296h.296zm.528 0v-.296h.296v.296zm0 .682h.296v.296h-.296zm-.528 0v.296h-.296v-.296zm.986-.682h-.297v-.296h.297zm.524 0v-.296h.297v.296zm0 .682h.297v.296h-.297zm-.524 0v.296h-.297v-.296zm.983-.682h-.297v-.296h.297zm.527 0v-.296h.296v.296zm0 .682h.296v.296h-.296zm-.527 0v.296h-.297v-.296zm.983-.682h-.297v-.296h.297zm.527 0v-.296h.296v.296zm0 .682h.296v.296h-.296zm-.527 0v.296h-.297v-.296zm.985-.682h-.296v-.296h.296zm.524 0v-.296h.297v.296zm0 .682h.297v.296h-.297zm-.524 0v.296h-.296v-.296zm-.17-21.005v-.297h.285l.012.285zm-.288 0v.296h-.297v-.296zm0-.684v-.297h.296v.297zm-.456 0h-.296v-.297h.296zm0 .684h.297v.296h-.297zm-.53 0v.296h-.296v-.296zm0-.684v-.297h.297v.297zm-.455 0h-.297v-.297h.297zm0 .684h.296v.296h-.296zm-.528 0v.296h-.296v-.296zm0-.684v-.297h.297v.297zm-.458 0H8.84v-.297h.296zm0 .684h.297v.296h-.297zm-.524 0v.296h-.297v-.296zm0-.684v-.297h.296v.297zm-.459 0h-.296v-.297h.296zm0 .684h.297v.296h-.297zm-.524 0v.296h-.297v-.296zm0-.684v-.297h.296v.297zm-.458 0h-.297v-.297h.297zm0 .684h.296v.296h-.296zm-.525 0v.296H6.35v-.296zm0-.684v-.297h.296v.297zm-.46 0h-.297v-.297h.296zm0 .684h.296v.296h-.297zm-.523 0v.296h-.296v-.296zm0-.684v-.297h.297v.297zm-.46 0h-.297v-.297h.296zm0 .684h.296v.296h-.297zm-.29 0-.296-.012.012-.285h.285zm-1.56 38.286v.296h-.308l.012-.308zm1.621-17.963v.681h-.593v-.681zm-.296.978H4.15v-.593h.527zm-.824-.297v-.681h.593v.681zm.297-.978h.527v.593H4.15zm.985 0h.527v.593h-.527zm.824.297v.681h-.593v-.681zm-.297.978h-.527v-.593h.527zm-.823-.297v-.681h.593v.681zm1.279-.978h.527v.593H6.12zm.824.297v.681H6.35v-.681zm-.297.978H6.12v-.593h.527zm-.823-.297v-.681h.592v.681zm1.279-.978h.527v.593h-.527zm.823.297v.681h-.593v-.681zm-.296.978h-.527v-.593h.527zm-.824-.297v-.681h.593v.681zm1.28-.978h.527v.593h-.528zm.823.297v.681h-.593v-.681zm-.296.978h-.528v-.593h.528zm-.824-.297v-.681h.593v.681zm1.282-.978h.524v.593H9.07zm.82.297v.681h-.592v-.681zm-.296.978H9.07v-.593h.524zm-.82-.297v-.681h.592v.681zm1.279-.978h.527v.593h-.527zm.823.297v.681h-.593v-.681zm-.296.978h-.527v-.593h.527zm-.824-.297v-.681h.593v.681zm1.28-.978h.527v.593h-.528zm.823.297v.681h-.593v-.681zm-.296.978h-.528v-.593h.528zm-.824-.297v-.681h.593v.681zm1.282-.978h.524v.593h-.524zm.82.297v.681h-.592v-.681zm-.296.978h-.524v-.593h.524zm-.82-.297v-.681h.592v.681zm1.39 17.294-1.56-38.286.593-.024 1.56 38.286zM11.851 22.56h-.288v-.593h.288zm-.585-.296v-.684h.593v.684zm.297-.388h-.456v-.593h.456zm-.16-.296v.684h-.592v-.684zm-.296.98h-.53v-.593h.53zm-.826-.296v-.684h.593v.684zm.296-.388h-.455v-.593h.455zm-.16-.296v.684h-.592v-.684zm-.295.98h-.528v-.593h.528zm-.824-.296v-.684h.593v.684zm.296-.388h-.458v-.593h.458zm-.161-.296v.684H8.84v-.684zm-.297.98h-.524v-.593h.524zm-.82-.296v-.684h.592v.684zm.296-.388h-.459v-.593h.459zm-.162-.296v.684h-.593v-.684zm-.297.98H7.63v-.593h.524zm-.82-.296v-.684h.592v.684zm.296-.388H7.17v-.593h.459zm-.162-.296v.684h-.593v-.684zm-.297.98h-.524v-.593h.524zm-.82-.296v-.684h.592v.684zm.296-.388h-.461v-.593h.461zm-.165-.296v.684H5.89v-.684zm-.296.98h-.522v-.593h.522zm-.818-.296v-.684h.593v.684zm.296-.388h-.46v-.593h.46zM5.5 21.58v.684h-.593v-.684zm-.297.98h-.288v-.593h.288zm.008-.284L3.65 60.56l-.593-.024 1.56-38.286zM3.353 60.253h10.058v.593H3.353z" fill="#9A2143" mask="url(#e)"/><mask id="f" fill="#fff"><path d="M12.643 61.847v-.684h.528v.684zm-.454 0h-.528v-.684h.528zm-.984 0h-.529v-.684h.529zm-.982 0h-.531v-.684h.53zm-.985 0H8.71v-.684h.528zm-.985 0h-.528v-.684h.528zm-.984 0h-.526v-.684h.526zm-.982 0h-.528v-.684h.528zm-.985 0h-.525v-.684h.525zm-.982 0h-.525v-.684h.525zm-.98-.928-.01.244h.008v.684h-.037l-.748 18.377h11.662l-.786-19.305z"/></mask><path d="M12.643 61.847v-.684h.528v.684zm-.454 0h-.528v-.684h.528zm-.984 0h-.529v-.684h.529zm-.982 0h-.531v-.684h.53zm-.985 0H8.71v-.684h.528zm-.985 0h-.528v-.684h.528zm-.984 0h-.526v-.684h.526zm-.982 0h-.528v-.684h.528zm-.985 0h-.525v-.684h.525zm-.982 0h-.525v-.684h.525zm-.98-.928-.01.244h.008v.684h-.037l-.748 18.377h11.662l-.786-19.305z" fill="#FEFEFE"/><path d="M12.643 61.847v.297h-.296v-.297zm0-.684h-.296v-.296h.296zm.528 0v-.296h.297v.296zm0 .684h.297v.297h-.297zm-.982 0h.297v.297h-.297zm-.528 0v.297h-.296v-.297zm0-.684h-.296v-.296h.296zm.528 0v-.296h.297v.296zm-.984.684h.296v.297h-.296zm-.529 0v.297h-.296v-.297zm0-.684h-.296v-.296h.296zm.529 0v-.296h.296v.296zm-.982.684h.296v.297h-.296zm-.531 0v.297h-.297v-.297zm0-.684h-.297v-.296h.297zm.53 0v-.296h.297v.296zm-.984.684h.296v.297h-.296zm-.528 0v.297h-.297v-.297zm0-.684h-.297v-.296h.297zm.528 0v-.296h.296v.296zm-.985.684h.297v.297h-.297zm-.528 0v.297H7.43v-.297zm0-.684H7.43v-.296h.296zm.528 0v-.296h.297v.296zm-.984.684h.296v.297H7.27zm-.526 0v.297h-.296v-.297zm0-.684h-.296v-.296h.296zm.526 0v-.296h.296v.296zm-.982.684h.296v.297h-.296zm-.528 0v.297h-.297v-.297zm0-.684h-.297v-.296h.297zm.528 0v-.296h.296v.296zm-.985.684H5.6v.297h-.297zm-.525 0v.297H4.48v-.297zm0-.684H4.48v-.296h.297zm.525 0v-.296H5.6v.296zm-.982.684h.297v.297H4.32zm-.525 0v.297h-.297v-.297zm0-.684h-.297v-.296h.297zm.525 0v-.296h.297v.296zm-.99 0v.297h-.31l.014-.31zm.008 0v-.296h.297v.296zm0 .684h.297v.297h-.297zm-.037 0-.296-.012.011-.284h.285zm-.748 18.377v.296h-.31l.013-.308zm11.662 0 .296-.012.012.308h-.308zm-.786-19.305v-.296h.285l.011.284zm-1.082.928v-.684h.593v.684zm.296-.98h.529v.592h-.529zm.825.296v.684h-.593v-.684zm-.296.98h-.529v-.593h.529zm-.982 0h-.529v-.593h.529zm-.825-.296v-.684h.593v.684zm.296-.98h.529v.592h-.529zm.825.296v.684h-.593v-.684zm-1.281.98h-.528v-.593h.528zm-.825-.296v-.684h.593v.684zm.297-.98h.528v.592h-.528zm.824.296v.684h-.592v-.684zm-1.278.98h-.53v-.593h.53zm-.827-.296v-.684h.593v.684zm.296-.98h.531v.592h-.53zm.827.296v.684h-.592v-.684zm-1.28.98H8.71v-.593h.528zm-.825-.296v-.684h.593v.684zm.296-.98h.528v.592H8.71zm.825.296v.684h-.593v-.684zm-1.281.98h-.528v-.593h.528zm-.825-.296v-.684h.593v.684zm.297-.98h.528v.592h-.528zm.824.296v.684h-.593v-.684zm-1.28.98h-.526v-.593h.525zm-.823-.296v-.684h.593v.684zm.297-.98h.525v.592h-.525zm.822.296v.684h-.593v-.684zm-1.279.98H5.76v-.593h.528zm-.824-.296v-.684h.592v.684zm.296-.98h.528v.592H5.76zm.825.296v.684H5.99v-.684zm-1.281.98h-.526v-.593h.526zm-.822-.296v-.684h.592v.684zm.296-.98h.526v.592h-.526zm.822.296v.684h-.593v-.684zm-1.278.98h-.526v-.593h.526zm-.822-.296v-.684h.593v.684zm.296-.98h.526v.592h-.526zm.822.296v.684h-.593v-.684zm-.98-.231-.01.244-.593-.026.011-.244zm-.306-.066h.008v.593H3.33zm.304.297v.684h-.593v-.684zm-.296.98H3.3v-.593h.038zm.259-.284-.749 18.377-.592-.024.748-18.377zM2.553 79.928h11.662v.593H2.553zm11.365.308-.786-19.305.593-.024.785 19.305zm-.49-19.02H3.342v-.593H13.43z" fill="#9A2143" mask="url(#f)"/><path d="M57.511 45.105v34.974H73.54V45.105zm-9.875 2.298v32.678h9.577V45.146zM109.91 80.08h16.027V45.106H109.91zm16.32-.002h9.576V47.4l-9.576-2.257zM73.84 39.156v40.923h35.776V39.156z" fill="#FEFEFE" stroke="#9A2143" stroke-width=".296"/><path d="M79.596 45.105v34.974h24.259V45.105z" fill="#FAE7B9" stroke="#9A2143" stroke-width=".296"/><path d="M81.549 47.822v32.256h20.355V47.822z" fill="#FEFEFE" stroke="#9A2143" stroke-width=".296"/><mask id="g" fill="#fff"><path d="m49.326 46.849-1.836.433v-6.527h1.836z"/></mask><path d="m49.326 46.849-1.836.433v-6.527h1.836z" fill="#FFEFF4"/><path d="m47.489 47.282.068.289-.364.086v-.375zm0-6.527h-.296v-.296h.296zm1.836 0v-.296h.297v.296zm.068 6.383-1.836.433-.136-.578 1.836-.432zm-2.2.144v-6.527h.592v6.527zm.296-6.823h1.836v.593H47.49zm2.133.296v6.094h-.593v-6.094z" fill="#9A2143" mask="url(#g)"/><path d="M5.13 14.621v5.852h6.508V14.62z" fill="#F4C6D3" stroke="#9A2143" stroke-width=".296"/><mask id="h" fill="#fff"><path d="M9.945 10.443c-1.008-.503-1.563-1.66-1.563-1.66s-.554 1.157-1.56 1.66c-1.009.505-2.065.958-2.065 3.075h7.256c0-2.117-1.059-2.57-2.068-3.075"/></mask><path d="M9.945 10.443c-1.008-.503-1.563-1.66-1.563-1.66s-.554 1.157-1.56 1.66c-1.009.505-2.065.958-2.065 3.075h7.256c0-2.117-1.059-2.57-2.068-3.075" fill="#FFEFF4"/><path d="m8.382 8.782-.267-.128.267-.559.268.559zm-1.56 1.66-.133-.264zm-2.065 3.076v.297H4.46v-.297zm7.256 0h.296v.297h-.296zm-2.2-2.81c-.562-.28-.986-.736-1.264-1.106a5 5 0 0 1-.431-.686l-.002-.004V8.91l-.001-.001.267-.128.268-.128.004.008a2 2 0 0 0 .087.16c.063.108.158.259.282.424.25.334.608.709 1.055.931zm-1.43-1.926.267.128-.001.002-.002.003-.028.055-.083.15c-.072.124-.18.294-.32.482-.277.37-.7.825-1.262 1.106l-.265-.53c.445-.223.802-.598 1.053-.932a4.4 4.4 0 0 0 .372-.591l.001-.001zm-1.428 1.926c-.521.26-.978.475-1.322.864-.33.374-.58.94-.58 1.946H4.46c0-1.111.28-1.83.729-2.338.436-.493 1.012-.758 1.5-1.002zm-2.198 2.514h7.256v.593H4.757zm6.96.296c0-1.005-.25-1.571-.582-1.945-.344-.39-.802-.605-1.322-.865l.265-.53c.488.244 1.065.509 1.501 1.001.45.509.73 1.228.73 2.339z" fill="#9A2143" mask="url(#h)"/><mask id="k" fill="#fff"><path d="M10.482 19.8H8.669v-2.891c0-.62.256-.837.454-1.026.327-.319.454-.529.454-.529s.124.21.451.529c.195.189.454.406.454 1.026zm-2.436 0H6.233v-2.891c0-.62.256-.837.454-1.026.33-.319.454-.529.454-.529s.124.21.454.529c.193.189.451.406.451 1.026zm3.096 0v-2.891c0-.62.182-.837.32-1.026a2.8 2.8 0 0 0 .324-.529v-.88H4.982v.88s.095.21.349.529c.15.189.35.406.35 1.026V19.8h-.699v.821h6.804V19.8z"/></mask><path d="M10.482 19.8H8.669v-2.891c0-.62.256-.837.454-1.026.327-.319.454-.529.454-.529s.124.21.451.529c.195.189.454.406.454 1.026zm-2.436 0H6.233v-2.891c0-.62.256-.837.454-1.026.33-.319.454-.529.454-.529s.124.21.454.529c.193.189.451.406.451 1.026zm3.096 0v-2.891c0-.62.182-.837.32-1.026a2.8 2.8 0 0 0 .324-.529v-.88H4.982v.88s.095.21.349.529c.15.189.35.406.35 1.026V19.8h-.699v.821h6.804V19.8z" fill="#BDB7B7"/><path d="M8.67 19.8v.297h-.297V19.8zm.453-3.917.207.212-.002.002zm.454-.529-.254-.153.257-.426.252.428zm.451.529-.206.213v-.001zM6.233 19.8v.297h-.296V19.8zm.454-3.917.206.213h-.001zm.454-.529-.255-.15.255-.433.255.432zm.454.529.206-.214.002.002zm3.547 3.917v.297h-.297V19.8zm.32-3.917-.24-.174.002-.004zm.324-.529h.296v.059l-.022.054zm0-.88v-.297h.296v.296zm-6.804 0h-.296v-.297h.296zm0 .88-.27.122-.026-.058v-.064zm.349.529.232-.185zm.35 3.917h.297v.297h-.296zm-.699 0h-.296v-.296h.296zm0 .821v.297h-.296v-.297zm6.804 0h.296v.297h-.296zm0-.821v-.296h.296v.296zm-1.304.297H8.67v-.593h1.813zM8.67 19.8h-.296v-2.891h.593V19.8zm-.296-2.891c0-.354.073-.615.191-.822.115-.2.263-.331.354-.419l.41.429c-.107.102-.185.173-.249.284-.06.104-.113.261-.113.528zm.543-1.239a3.6 3.6 0 0 0 .392-.446l.014-.021.002-.003.253.154c.253.154.254.153.254.153v.001l-.002.001-.002.004-.007.011-.024.036q-.03.044-.09.122c-.08.102-.203.244-.376.413zm.66-.316.256-.15v-.002l.001.003.014.02q.02.03.067.092c.064.082.167.204.321.353l-.414.425a4 4 0 0 1-.375-.414 2 2 0 0 1-.12-.17l-.003-.004-.001-.002zm.659.316c.088.086.236.218.35.417.119.206.194.468.194.822h-.593c0-.266-.055-.423-.115-.527-.064-.112-.143-.183-.25-.287zm.544 1.239V19.8h-.593v-2.891zm-2.733 3.187H6.233v-.592h1.813zM6.233 19.8h-.296v-2.891h.593V19.8zm-.296-2.891c0-.354.074-.615.192-.822.114-.2.262-.331.353-.419l.41.429c-.107.102-.185.173-.249.284-.06.104-.113.261-.113.528zm.544-1.24a3.5 3.5 0 0 0 .39-.444l.016-.023-.001.001.255.151.255.15v.001l-.001.002-.003.004-.007.011-.023.036q-.03.046-.09.123a4 4 0 0 1-.379.415zm.66-.315.255-.15v-.002l.001.003.014.02q.02.03.067.091c.064.082.168.204.323.353l-.412.427a4 4 0 0 1-.378-.415 2 2 0 0 1-.114-.159l-.007-.01-.003-.005v-.001l-.001-.001zm.662.317c.086.085.234.218.347.416.118.206.193.468.193.822H7.75c0-.266-.055-.423-.115-.528-.064-.112-.142-.183-.248-.287zm.54 1.238V19.8H7.75v-2.891zm2.799 2.891h-.297v-2.891h.593V19.8zm-.297-2.891c0-.34.05-.588.13-.786.079-.195.183-.327.246-.414l.48.348c-.074.101-.13.173-.176.288-.046.113-.087.284-.087.564zm.379-1.204a3 3 0 0 0 .277-.442l.01-.02.002-.004v.001h-.001l.274.114.274.114-.001.002-.002.004-.005.01-.016.036q-.022.046-.064.123a4 4 0 0 1-.273.417zm.265-.351v-.88h.593v.88zm.297-.585H4.982v-.592h6.804zm-6.507-.296v.881h-.593v-.88zm-.297.881.27-.122v-.001l.002.003.01.02q.015.03.052.092c.049.082.129.203.247.352l-.464.37a4 4 0 0 1-.36-.54l-.019-.035-.005-.01-.002-.004v-.002zm.58.344c.07.087.184.22.272.416.088.2.144.452.144.795h-.593c0-.277-.044-.444-.093-.555-.051-.114-.112-.184-.193-.287zm.416 1.21V19.8h-.593v-2.891zm-.296 3.188h-.7v-.592h.7zm-.403-.296v.821h-.593V19.8zm-.297.525h6.804v.593H4.982zm6.507.296V19.8h.593v.821zm.297-.525h-.644v-.592h.644z" fill="#9A2143" mask="url(#k)"/><path d="M3.842 21.725v.388h.232v-.388zm.982.001v.388h.229v-.388zm.986-.001v.388h.227v-.388zm.986.001v.388h.226v-.388zm.98-.001v.388h.229v-.388zm.984 0v.388h.23v-.388zm.984 0v.388h.23v-.388zm.98.001v.388h.233v-.388zm.983.001v.388h.23v-.388zm.988-.001v.388h.23v-.388z" fill="#8A0329" stroke="#9A2143" stroke-width=".296"/><path d="M60.725 37.772v7.033h12.263v-7.033z" fill="#BFA054" stroke="#9A2143" stroke-width=".296"/><path d="M69.674 30.864c-.96-.48-1.698-1.268-2.193-1.928a9 9 0 0 1-.626-.958 9 9 0 0 1-.626.957c-.495.66-1.233 1.448-2.193 1.929l-.18.09c-.876.435-1.727.859-2.38 1.596-.674.76-1.148 1.87-1.172 3.707h13.102c-.024-1.838-.498-2.947-1.172-3.707-.652-.736-1.502-1.16-2.376-1.595z" fill="#FEFEFE" stroke="#9A2143" stroke-width=".296"/><path d="M74.571 36.555H59.137v.924h15.434z" fill="#FFBBCE" stroke="#9A2143" stroke-width=".296"/><path d="M61.953 42.124v2.832h1.003v-2.832c0-1.145.472-1.55.833-1.9.6-.58.827-.973.827-.973s.23.393.83.974c.358.35.83.754.83 1.899v2.832h1.134v-2.832c0-1.145.472-1.55.83-1.9.597-.58.83-.973.83-.973s.227.393.827.974c.361.35.833.754.833 1.899v2.832h1.197v-2.832c0-1.145.337-1.55.591-1.9.43-.58.591-.973.591-.973v-1.625H60.675v1.625s.173.393.636.974c.275.35.642.754.642 1.899" fill="#FEFEFE"/><path d="M3.318 42.734v.385h.23v-.385zm.982-.002v.385h.23v-.385zm.985.002v.385h.229v-.385zm.979 0v.385h.233v-.385zm.989-.002v.385h.228v-.385zm.977.002v.385h.23v-.385zm.986.001v.385h.228v-.385zm.983-.001v.385h.23v-.385zm.985.001v.385h.229v-.385zm.984-.001v.385h.23v-.385zm.982-.001v.385h.23v-.385zM2.954 61.314v.388h.232v-.388zm.986-.001v.388h.23v-.388zm.985 0v.387h.226v-.387zm.979 0v.387h.23v-.387zm.989 0v.388h.226v-.388zm.98 0v.387h.23v-.387zm.984.002v.387h.229v-.387zm.982-.001v.387h.232v-.387zm.984.002v.387h.23v-.387zm.986-.002v.387h.23v-.387zm.978.001v.388h.23v-.388zm.989-.002v.387h.226v-.387z" fill="#8A0329" stroke="#9A2143" stroke-width=".296"/><path d="M101.9 79.902V60.986c0-2.295-.505-3.948-1.286-5.198-.782-1.251-1.85-2.11-2.993-2.808a25 25 0 0 0-1.747-.95l-.333-.168a38 38 0 0 1-1.364-.71c-.998-.553-1.885-1.172-2.458-2.046-.571.874-1.457 1.493-2.454 2.047-.435.242-.896.474-1.364.71l-.332.167c-.584.295-1.174.602-1.746.95-1.144.697-2.21 1.557-2.992 2.808s-1.286 2.903-1.286 5.198v18.916z" fill="#BFA054" stroke="#9A2143" stroke-width=".296"/><path d="M101.9 82.862V63.946c0-2.295-.504-3.948-1.286-5.198s-1.849-2.11-2.993-2.807a25 25 0 0 0-1.746-.951l-.334-.168c-.468-.236-.928-.467-1.364-.71-.997-.553-1.884-1.172-2.457-2.047-.572.875-1.458 1.494-2.455 2.048-.435.242-.896.474-1.364.71l-.332.167c-.583.295-1.173.602-1.745.95-1.144.697-2.21 1.557-2.993 2.808-.781 1.25-1.286 2.903-1.286 5.198v18.916z" fill="#FEFEFE" stroke="#9A2143" stroke-width=".296"/><path d="M67.764 52.262c-1.043-.52-2.057-1.319-2.057-1.319s-1.013.798-2.06 1.319c-1.043.523-2.578 1.109-2.578 5.164v6.578h9.28v-6.578c0-4.055-1.535-4.64-2.585-5.164m0 16.22c-1.043-.52-2.057-1.321-2.057-1.321s-1.013.8-2.06 1.321c-1.043.526-2.578 1.106-2.578 5.164v6.578h9.28v-6.578c0-4.058-1.536-4.638-2.585-5.164m-14.112-16.22c-.63-.52-1.246-1.319-1.246-1.319s-.61.798-1.244 1.319c-.63.523-1.56 1.11-1.56 5.164v6.578h5.61v-6.578c0-4.055-.927-4.64-1.56-5.164m.001 16.223c-.63-.52-1.246-1.321-1.246-1.321s-.61.8-1.244 1.321c-.63.526-1.56 1.106-1.56 5.164v6.578h5.61V73.65c0-4.058-.927-4.638-1.56-5.164" fill="#BFA054"/><path d="M57.511 46.515v1.01H73.54v-1.01z" fill="#BDB7B7" stroke="#9A2143" stroke-width=".296"/><mask id="l" fill="#fff"><path d="M47.488 48.696v1.303l9.874-2.326v-1.306z"/></mask><path d="M47.488 48.696v1.303l9.874-2.326v-1.306z" fill="#8A0329"/><path d="m47.488 50 .068.289-.364.085V50zm9.874-2.326h.296v.234l-.228.054zm0-1.306-.068-.289.364-.086v.375zm-9.578 2.329V50h-.592v-1.303zm-.364 1.014 9.874-2.326.136.577-9.874 2.326zm9.645-2.038v-1.305h.593v1.305zm.365-1.017-9.874 2.33-.136-.578 9.874-2.329z" fill="#9A2143" mask="url(#l)"/><path d="M31.311 30.325v4.383h4.884v-4.383z" fill="#F4C6D3" stroke="#9A2143" stroke-width=".296"/><path d="M34.876 27.241c-.413-.208-.726-.544-.935-.822a4 4 0 0 1-.188-.276c-.049.08-.112.175-.188.276-.208.278-.521.614-.934.822l-.07.035c-.365.182-.701.349-.959.64-.25.282-.435.695-.458 1.384h5.222c-.024-.69-.21-1.102-.46-1.384-.258-.29-.594-.458-.958-.639z" fill="#FFEFF4" stroke="#9A2143" stroke-width=".296"/><mask id="m" fill="#fff"><path d="M35.35 34.232h-1.38v-2.2c0-.471.197-.64.348-.782.248-.241.343-.402.343-.402s.095.16.346.402c.148.142.343.31.343.782zm-1.852 0h-1.384v-2.2c0-.471.198-.64.349-.782.248-.241.343-.402.343-.402s.097.16.346.402c.15.142.346.31.346.782zm2.354 0v-2.2c0-.471.14-.64.246-.782a2.2 2.2 0 0 0 .245-.402v-.67h-5.18v.67s.072.16.267.402c.115.142.268.31.268.782v2.2h-.535v.624h5.18v-.624z"/></mask><path d="M35.35 34.232h-1.38v-2.2c0-.471.197-.64.348-.782.248-.241.343-.402.343-.402s.095.16.346.402c.148.142.343.31.343.782zm-1.852 0h-1.384v-2.2c0-.471.198-.64.349-.782.248-.241.343-.402.343-.402s.097.16.346.402c.15.142.346.31.346.782zm2.354 0v-2.2c0-.471.14-.64.246-.782a2.2 2.2 0 0 0 .245-.402v-.67h-5.18v.67s.072.16.267.402c.115.142.268.31.268.782v2.2h-.535v.624h5.18v-.624z" fill="#BDB7B7"/><path d="M33.969 34.232v.297h-.296v-.297zm.349-2.982.206.213-.003.002zm.343-.402-.255-.15.255-.433.255.432zm.346.402.205-.214zm-2.893 2.982v.297h-.297v-.297zm.349-2.982.206.213-.003.002zm.343-.402-.256-.15.252-.427.257.423zm.346.402-.204.215-.003-.003zm2.946 0 .238.176zm.245-.402h.297v.06l-.023.054zm0-.67v-.297h.297v.296zm-5.18 0h-.297v-.297h.297zm0 .67-.27.122-.027-.058v-.064zm.267.402.23-.187.002.001zm.268 2.982h.297v.297h-.297zm-.535 0h-.297v-.296h.297zm0 .624v.297h-.297v-.297zm5.18 0h.297v.297h-.297zm0-.624v-.296h.297v.296zm-.993.297h-1.381v-.593h1.38zm-1.381-.297h-.296v-2.2h.592v2.2zm-.296-2.2c0-.28.06-.492.157-.662.094-.164.216-.27.284-.336l.407.431c-.082.078-.134.126-.177.2a.7.7 0 0 0-.079.367zm.438-.995a2.6 2.6 0 0 0 .286-.326l.01-.015h-.001v.001l.255.151.255.15V31l-.001.002-.002.003-.006.01a2 2 0 0 1-.09.127 3 3 0 0 1-.293.321zm.55-.189.255-.15v-.002h-.001l.01.014.048.066c.047.06.124.15.239.26l-.41.428a3 3 0 0 1-.367-.42l-.026-.04-.002-.003V31h-.001v-.001zm.552.188c.066.065.186.172.279.335.096.17.154.382.154.661h-.593c0-.192-.039-.3-.077-.368-.042-.075-.094-.123-.175-.2zm.433.996v2.2h-.593v-2.2zm-2.149 2.497h-1.383v-.593h1.384zm-1.383-.297h-.297v-2.2h.593v2.2zm-.297-2.2c0-.28.06-.492.158-.662.094-.164.215-.27.284-.336l.407.431c-.082.078-.135.126-.177.2a.7.7 0 0 0-.079.367zm.439-.995a2.6 2.6 0 0 0 .286-.326l.009-.014v-.002.002l.255.151.255.15V31l-.002.002q0 .002-.002.003l-.005.01a1 1 0 0 1-.09.127 3 3 0 0 1-.293.321zm.55-.189.253-.154v-.001h-.001l.001.001.01.014q.014.021.05.067c.047.06.125.151.239.262l-.413.426a3.3 3.3 0 0 1-.364-.417l-.02-.03-.005-.008-.002-.004-.001-.001zm.55.186c.068.066.19.173.283.337.096.17.155.382.155.661H33.2c0-.192-.039-.3-.078-.368-.042-.074-.094-.122-.175-.199zm.438.998v2.2H33.2v-2.2zm2.058 2.2h-.296v-2.2h.593v2.2zm-.296-2.2c0-.265.039-.465.104-.626s.15-.267.2-.333l.475.354c-.056.076-.094.124-.125.202a1.1 1.1 0 0 0-.062.403zm.303-.959a2.4 2.4 0 0 0 .21-.34v.001l.274.114.274.114v.001l-.001.001-.002.003-.004.01a1 1 0 0 1-.064.125 3 3 0 0 1-.21.324zm.188-.225v-.67h.593v.67zm.296-.374h-5.18v-.593h5.18zm-4.884-.297v.671h-.593v-.67zm-.297.671.27-.122v-.001a1 1 0 0 0 .045.08c.036.06.095.149.184.258l-.461.373a3 3 0 0 1-.286-.422l-.015-.029-.004-.01-.002-.003v-.001zm.5.216c.051.065.145.173.216.333.072.164.117.366.117.635h-.593a1 1 0 0 0-.066-.394c-.034-.077-.075-.125-.137-.203zm.333.968v2.2h-.593v-2.2zm-.297 2.496h-.536v-.592h.536zm-.24-.296v.624h-.592v-.624zm-.296.328h5.181v.593h-5.18zm4.885.296v-.624h.593v.624zm.296-.328h-.491v-.592h.491z" fill="#9A2143" mask="url(#m)"/><path d="M30.333 35.736v.222h.106v-.222zm.747-.001v.222h.106v-.222zm.752.001v.222h.102v-.222zm.748 0v.221h.102v-.221zm.747-.001v.222h.103v-.222zm.75.001v.222h.104v-.222zm.747.001v.222h.104v-.222zm.748-.003v.222h.105v-.222zm.75-.001v.222h.105v-.222zm.746.003v.222h.106v-.222zm-7.132 15.988v.222h.103v-.222zm.746.001v.222h.103v-.222zm.749 0v.222h.101v-.222zm.749-.004v.222h.105v-.222zm.747.003v.222h.105v-.222zm.747.002v.222h.106v-.222zm.749 0v.222h.104v-.222zm.75-.002v.222h.102v-.222zm.751-.002v.222h.102v-.222zm.747.004v.222h.103v-.222zm.748-.003v.222h.104v-.222zm-7.761 14.145v.222h.105v-.222zm.749.001v.222h.103v-.222zm.747.001v.222h.104v-.222zm.754-.002v.222h.102v-.222zm.744 0v.222h.105v-.222zm.748.001v.222h.106v-.222zm.746-.001v.222h.106v-.222zm.754.001v.222h.104v-.222zm.747-.001v.222h.105v-.222zm.747.001v.222h.106v-.222zm.751-.001v.222h.106v-.222zm.748 0v.222h.101v-.222z" fill="#8A0329" stroke="#9A2143" stroke-width=".296"/><mask id="n" fill="#fff"><path d="M48.83 39.67c-.273-.135-.422-.448-.422-.448s-.152.313-.425.448c-.27.137-.556.26-.556.832h1.957c0-.573-.284-.695-.554-.832"/></mask><path d="M48.83 39.67c-.273-.135-.422-.448-.422-.448s-.152.313-.425.448c-.27.137-.556.26-.556.832h1.957c0-.573-.284-.695-.554-.832" fill="#FFEFF4"/><path d="m48.408 39.222-.267-.13.27-.554.265.557zm-.425.448-.134-.264.003-.002zm-.556.832v.296h-.297v-.296zm1.957 0h.296v.296h-.296zm-.685-.566a1.2 1.2 0 0 1-.42-.363 1.6 1.6 0 0 1-.135-.215l-.002-.005-.001-.002v-.001l.267-.128.268-.128h-.001q0-.002 0 0l.003.004a1 1 0 0 0 .076.12c.057.076.13.148.207.186zm-.291-.714.267.13h-.001v.003l-.003.005-.036.063q-.035.062-.1.152a1.2 1.2 0 0 1-.42.36l-.263-.53a.64.64 0 0 0 .21-.188 1 1 0 0 0 .077-.12l.003-.005zm-.29.712c-.152.078-.232.117-.292.185-.047.052-.103.15-.103.383h-.593c0-.34.087-.59.252-.776.15-.17.35-.26.467-.32zm-.692.271h1.958v.593h-1.958zm1.661.297c0-.234-.056-.332-.102-.384-.059-.067-.138-.107-.29-.184l.27-.528c.117.06.315.15.466.32.163.187.25.437.25.776z" fill="#9A2143" mask="url(#n)"/><mask id="p" fill="#fff"><path d="M49.516 40.626c0 .073-.057.13-.13.13H47.43a.129.129 0 1 1 0-.257h1.958c.072 0 .129.057.129.127"/></mask><path d="M49.516 40.626c0 .073-.057.13-.13.13H47.43a.129.129 0 1 1 0-.257h1.958c.072 0 .129.057.129.127" fill="#FFBBCE"/><path d="M49.812 40.626c0 .236-.19.426-.426.426v-.593a.17.17 0 0 0-.167.167zm-.426.426H47.43v-.593h1.957zm-1.957 0a.425.425 0 0 1-.426-.426h.593a.17.17 0 0 0-.167-.167zm-.426-.426c0-.238.195-.423.426-.423v.593a.17.17 0 0 0 .167-.17zm.426-.423h1.957v.593H47.43zm1.957 0c.232 0 .426.185.426.423h-.593c0 .098.08.17.167.17z" fill="#9A2143" mask="url(#p)"/><mask id="q" fill="#fff"><path d="M58.279 44.956h-.828l-1.005.215v-6.91h1.833z"/></mask><path d="M58.279 44.956h-.828l-1.005.215v-6.91h1.833z" fill="#FFEFF4"/><path d="m57.451 44.956-.062-.29.03-.006h.032zm-1.006.215.062.29-.358.076v-.366zm0-6.91h-.296v-.296h.296zm1.834 0v-.296h.296v.296zm0 6.991h-.828v-.592h.828zm-.766-.006-1.006.215-.124-.58 1.006-.215zm-1.364-.075v-6.91h.593v6.91zm.296-7.206h1.834v.593h-1.834zm2.13.296v6.695h-.593v-6.695z" fill="#9A2143" mask="url(#q)"/><path d="M57.362 37.002a1.05 1.05 0 0 1-.355.306l-.015.007c-.136.067-.242.12-.322.21a.6.6 0 0 0-.132.33h1.647a.6.6 0 0 0-.13-.33c-.08-.091-.186-.143-.323-.211zm0 0c.079.102.198.227.358.306z" fill="#FFEFF4" stroke="#9A2143" stroke-width=".296"/><mask id="r" fill="#fff"><path d="M58.473 38.13a.13.13 0 0 1-.129.13h-1.96a.127.127 0 0 1-.129-.13c0-.073.056-.13.13-.13h1.96a.13.13 0 0 1 .128.13"/></mask><path d="M58.473 38.13a.13.13 0 0 1-.129.13h-1.96a.127.127 0 0 1-.129-.13c0-.073.056-.13.13-.13h1.96a.13.13 0 0 1 .128.13" fill="#FFBBCE"/><path d="M58.77 38.13a.426.426 0 0 1-.425.426v-.593a.167.167 0 0 0-.168.167zm-.425.426h-1.96v-.593h1.96zm-1.96 0a.424.424 0 0 1-.425-.426h.593a.17.17 0 0 0-.168-.167zm-.425-.426c0-.233.184-.426.425-.426v.593a.17.17 0 0 0 .168-.167zm.425-.426h1.96v.593h-1.96zm1.96 0c.233 0 .425.189.425.426h-.593c0 .092.075.167.168.167z" fill="#9A2143" mask="url(#r)"/><path d="M1.023 80.374v10.813h14.474V80.374z" fill="#FAE7B9" stroke="#9A2143" stroke-width=".296"/><path d="M1.023 81.446v.437h14.474v-.437z" fill="#8A0329" stroke="#9A2143" stroke-width=".296"/><mask id="s" fill="#fff"><path d="M167.8 91.336H15.64v-11.11H167.8z"/></mask><path d="M167.8 91.336H15.64v-11.11H167.8z" fill="#FAE7B9"/><path d="M15.643 91.336v.297h-.296v-.297zm0-11.11h-.296v-.296h.296zm152.16 0v-.296h.297v.296zm0 11.406H15.643v-.593h152.16zm-152.46-.296v-11.11h.593v11.11zm.296-11.406H167.8v.592H15.64zm152.46.296v11.11h-.593v-11.11z" fill="#9A2143" mask="url(#s)"/><path d="M15.791 81.447v.437h151.86v-.437z" fill="#BDB7B7" stroke="#9A2143" stroke-width=".296"/><path d="M94.112 80.079v-6.47a2.384 2.384 0 1 0-4.77 0v6.47z" fill="#BFA054" stroke="#9A2143" stroke-width=".296"/><path d="M67.131 80.226v-3.723a1.426 1.426 0 0 0-2.853 0v3.723zm0-16.184v-3.72a1.427 1.427 0 0 0-2.853 0v3.72z" fill="#FAE7B9"/><path d="M134.27 40.904v5.829l1.537.362v-6.191z" fill="#FFEFF4" stroke="#9A2143" stroke-width=".296"/><path d="M171.81 20.475h6.507v-5.852h-6.507z" fill="#F4C6D3" stroke="#9A2143" stroke-width=".296"/><path d="M178.54 13.368h-6.956c.024-.942.272-1.508.615-1.896.345-.39.795-.614 1.274-.852l.093-.047zc-.023-.942-.272-1.508-.616-1.896s-.792-.612-1.268-.85l-.098-.049c-.532-.266-.939-.701-1.21-1.062a5 5 0 0 1-.284-.424m3.476 4.281-3.476-4.281m0 0a5 5 0 0 1-.286.424c-.272.361-.679.796-1.212 1.062z" fill="#FFEFF4" stroke="#9A2143" stroke-width=".296"/><mask id="t" fill="#fff"><path d="M172.97 16.91c0-.62.26-.837.454-1.026.326-.319.451-.528.451-.528s.124.21.454.528c.194.19.454.407.454 1.026v2.892h-1.813zm2.435 0c0-.62.257-.837.454-1.026.33-.319.454-.528.454-.528s.125.21.451.528c.197.19.454.407.454 1.026v2.892h-1.813zm-3.738 2.892v.82h6.803v-.82h-.699V16.91c0-.62.197-.837.348-1.026.256-.319.351-.528.351-.528v-.881h-6.803v.88s.088.21.322.53c.139.188.322.406.322 1.025v2.892z"/></mask><path d="M172.97 16.91c0-.62.26-.837.454-1.026.326-.319.451-.528.451-.528s.124.21.454.528c.194.19.454.407.454 1.026v2.892h-1.813zm2.435 0c0-.62.257-.837.454-1.026.33-.319.454-.528.454-.528s.125.21.451.528c.197.19.454.407.454 1.026v2.892h-1.813zm-3.738 2.892v.82h6.803v-.82h-.699V16.91c0-.62.197-.837.348-1.026.256-.319.351-.528.351-.528v-.881h-6.803v.88s.088.21.322.53c.139.188.322.406.322 1.025v2.892z" fill="#BDB7B7"/><path d="m173.42 15.884.208.212h-.001zm.451-.529-.255-.151.255-.43.255.43zm.454.529.206-.213h.001zm.454 3.917h.296v.297h-.296zm-1.813 0v.297h-.296V19.8zm2.889-3.917.206.213-.001.001zm.454-.529-.255-.151.255-.43.255.43zm.451.529-.205.214-.003-.002zm.454 3.917h.296v.297h-.296zm-1.813 0v.297h-.296V19.8zm-3.738.822v.296h-.297v-.296zm6.803 0h.296v.296h-.296zm0-.822v-.296h.296v.296zm-.699 0v.297h-.297V19.8zm.348-3.917-.233-.184.001-.002zm.351-.529h.296v.064l-.026.059zm0-.88v-.297h.296v.296zm-6.803 0h-.297v-.297h.297zm0 .88-.274.115-.023-.055v-.06zm.322.529-.239.176zm.322 3.917h.297v.297h-.297zm.363-2.891c0-.354.075-.616.193-.822.115-.2.263-.331.35-.416l.414.424c-.106.104-.185.175-.249.287-.06.105-.115.262-.115.527zm.543-1.238a4 4 0 0 0 .321-.354 2 2 0 0 0 .08-.112l.003-.003h-.001l.255.152.255.152h-.001l-.001.002-.002.004-.007.01-.024.037q-.03.045-.089.122a4 4 0 0 1-.374.414zm.658-.317.255-.151h-.001v-.001l.002.003.013.02q.02.03.067.091c.065.082.169.204.324.354l-.412.426a4 4 0 0 1-.469-.537l-.023-.036-.007-.011-.003-.004-.001-.001v-.001zm.661.316c.087.086.235.218.35.417.118.206.193.468.193.822h-.593c0-.266-.055-.422-.115-.527-.064-.112-.143-.183-.249-.287zm.543 1.239v2.89h-.593v-2.89zm-.296 3.188h-1.813v-.593h1.813zm-1.813-.297h-.296V16.91h.593v2.89zm2.139-2.891c0-.354.074-.615.192-.822.114-.2.262-.331.353-.418l.41.428c-.106.102-.185.174-.249.285-.059.104-.113.26-.113.527zm.544-1.24c.155-.149.259-.27.324-.353q.048-.061.067-.091l.013-.02.002-.004v.001h-.001l.255.152.255.152-.001.002-.003.004-.007.011-.023.036q-.031.045-.091.123c-.08.103-.203.245-.378.414zm.66-.315.255-.151-.001-.001.003.003.013.02q.02.03.067.092c.064.082.168.204.321.354l-.415.424a4 4 0 0 1-.374-.414 2 2 0 0 1-.089-.122l-.024-.036-.007-.011-.002-.004-.001-.001v-.001h-.001zm.656.315c.091.087.239.218.353.418.118.207.192.468.192.822h-.593c0-.266-.054-.423-.114-.527-.063-.111-.142-.183-.248-.285zm.545 1.24v2.89h-.593v-2.89zm-.296 3.188h-1.813v-.593h1.813zm-1.813-.297h-.296V16.91h.593v2.89zm-3.442 0v.822h-.593V19.8zm-.296.525h6.803v.593h-6.803zm6.507.296v-.82h.592v.82zm.296-.524h-.699v-.593h.699zm-.699-.297h-.297V16.91h.593v2.89zm-.297-2.891c0-.343.055-.594.143-.794.086-.197.2-.329.269-.416l.465.368c-.081.102-.141.173-.191.287-.049.11-.093.278-.093.555zm.413-1.212c.12-.148.2-.27.25-.351l.052-.092.01-.02.002-.004-.001.001.27.123.27.123-.001.002-.002.004-.005.01-.018.037q-.024.044-.07.122a4 4 0 0 1-.294.417zm.287-.343v-.88h.592v.88zm.296-.584h-6.803v-.593h6.803zm-6.507-.297v.881h-.593v-.88zm-.296.881.273-.114v-.001l.001.003.01.021q.014.03.048.092c.046.082.12.204.229.352l-.478.352a4 4 0 0 1-.333-.538l-.016-.036-.005-.01-.002-.004v-.001h-.001v-.001zm.561.353c.064.088.169.22.249.416.08.198.131.446.131.786h-.593c0-.28-.042-.45-.087-.563-.047-.115-.103-.186-.178-.287zm.38 1.202v2.89h-.593v-2.89zm-.297 3.188h-.644v-.593h.644z" fill="#9A2143" mask="url(#t)"/><path d="M179.38 22.112h.228v-.388h-.228zm-.99.002h.231v-.387h-.231zm-.98-.002h.231v-.387h-.231zm-.98.002h.226v-.387h-.226zm-.99-.001h.229v-.388h-.229zm-.98.001h.228v-.388h-.228zm-.98-.001h.23v-.388h-.23zm-.99.002h.23v-.388h-.23zm-.98-.002h.232v-.388h-.232zm-.98.002h.228v-.388h-.228z" fill="#8A0329" stroke="#9A2143" stroke-width=".296"/><path d="M110.46 44.806h12.266v-7.033H110.46z" fill="#BFA054" stroke="#9A2143" stroke-width=".296"/><mask id="u" fill="#fff"><path d="M113.71 30.729c1.865-.932 2.888-3.07 2.888-3.07s1.024 2.138 2.885 3.07c1.857.93 3.815 1.767 3.815 5.674h-13.399c0-3.907 1.954-4.744 3.811-5.674"/></mask><path d="M113.71 30.729c1.865-.932 2.888-3.07 2.888-3.07s1.024 2.138 2.885 3.07c1.857.93 3.815 1.767 3.815 5.674h-13.399c0-3.907 1.954-4.744 3.811-5.674" fill="#FEFEFE"/><path d="m116.6 27.658-.267-.128.267-.558.268.558zm2.885 3.07-.133.265zm3.815 5.675h.296v.296h-.296zm-13.399 0v.296h-.297v-.296zm3.679-5.94c.874-.437 1.563-1.165 2.038-1.798a8 8 0 0 0 .672-1.051l.033-.064.008-.016.002-.004.267.128.268.128h-.001v.001l-.001.002-.002.006-.011.02-.038.075a9 9 0 0 1-.723 1.132c-.502.669-1.257 1.476-2.247 1.971zm3.02-2.805.268-.128.002.004.007.016.033.064q.045.087.136.244c.12.207.3.493.536.808.475.632 1.163 1.36 2.036 1.797l-.266.53c-.988-.495-1.742-1.303-2.244-1.972a9 9 0 0 1-.723-1.132l-.038-.074-.01-.02-.003-.006-.001-.002zm3.018 2.805c.912.457 1.925.924 2.693 1.79.781.88 1.285 2.143 1.285 4.15h-.593c0-1.9-.474-3.01-1.136-3.757-.676-.763-1.57-1.18-2.515-1.653zM123.3 36.7h-13.399v-.593H123.3zm-13.696-.296c0-2.007.504-3.27 1.284-4.15.767-.866 1.779-1.333 2.692-1.79l.265.53c-.945.474-1.838.89-2.513 1.652-.661.747-1.135 1.857-1.135 3.758z" fill="#9A2143" mask="url(#u)"/><path d="M124.31 37.478v-.924h-15.436v.924z" fill="#FFBBCE" stroke="#9A2143" stroke-width=".296"/><path d="M121.58 42.123v2.832h-1.016v-2.832c0-1.145-.475-1.55-.84-1.9-.604-.58-.833-.973-.833-.973s-.233.394-.841.974c-.361.35-.836.754-.836 1.899v2.832h-1.146v-2.832c0-1.145-.478-1.55-.84-1.9-.604-.58-.837-.973-.837-.973s-.229.394-.837.974c-.362.35-.84.754-.84 1.899v2.832h-1.208v-2.832c0-1.145-.342-1.55-.598-1.9-.435-.58-.598-.973-.598-.973v-1.625h12.562v1.625s-.179.394-.644.974c-.279.35-.648.754-.648 1.899" fill="#FEFEFE"/><path d="M179.9 43.119h.228v-.385h-.228zm-.98-.001h.228v-.385h-.228zm-.98.001h.231v-.385h-.231zm-.99.001h.229v-.385h-.229zm-.98 0h.229v-.385h-.229zm-.99-.001h.232v-.385h-.232zm-.98.001h.231v-.385H174zm-.98-.001h.23v-.385h-.23zm-.98-.002h.229v-.385h-.229zm-.99.001h.229v-.385h-.229zm-.99.003h.23v-.385h-.23zm10.2 18.58h.229v-.387h-.229zm-.98-.001h.229v-.387h-.229zm-.98.001h.231v-.388h-.231zm-.98 0h.226v-.387h-.226zm-.99.001h.229v-.388h-.229zm-.98-.001h.228v-.387h-.228zm-.99.001h.231v-.387h-.231zm-.98-.002h.231v-.388h-.231zm-.98.003h.23v-.388h-.23zm-.99-.001h.229v-.387h-.229zm-.98 0h.228v-.387h-.228zm-.99 0h.23v-.388h-.23z" fill="#8A0329" stroke="#9A2143" stroke-width=".296"/><path d="M115.68 52.262c1.045-.52 2.056-1.319 2.056-1.319s1.016.798 2.061 1.319c1.045.523 2.581 1.109 2.581 5.163v6.579h-9.28v-6.579c0-4.054 1.536-4.64 2.582-5.163m0 16.223c1.045-.52 2.057-1.321 2.057-1.321s1.015.8 2.06 1.321c1.045.526 2.581 1.106 2.581 5.164v6.578h-9.279V73.65c0-4.058 1.536-4.638 2.581-5.164M129.8 52.26c.63-.52 1.243-1.318 1.243-1.318s.614.797 1.247 1.318c.63.524 1.559 1.109 1.559 5.164v6.578h-5.611v-6.578c0-4.055.929-4.64 1.562-5.164m0 16.225c.63-.521 1.243-1.322 1.243-1.322s.613.8 1.247 1.322c.63.526 1.558 1.106 1.558 5.164v6.578h-5.61v-6.579c0-4.057.928-4.637 1.562-5.163" fill="#BFA054"/><path d="M109.91 47.525h16.027v-1.01H109.91z" fill="#BDB7B7" stroke="#9A2143" stroke-width=".296"/><path d="M126.23 46.554v1.001l9.576 2.257v-.999z" fill="#8A0329" stroke="#9A2143" stroke-width=".296"/><path d="M147.25 34.708h4.881v-4.383h-4.881z" fill="#F4C6D3" stroke="#9A2143" stroke-width=".296"/><mask id="v" fill="#fff"><path d="M148.51 27.108c.767-.386 1.188-1.267 1.188-1.267s.423.881 1.19 1.267c.767.384 1.573.728 1.573 2.34h-5.523c0-1.612.805-1.956 1.572-2.34"/></mask><path d="M148.51 27.108c.767-.386 1.188-1.267 1.188-1.267s.423.881 1.19 1.267c.767.384 1.573.728 1.573 2.34h-5.523c0-1.612.805-1.956 1.572-2.34" fill="#FFEFF4"/><path d="m149.69 25.841-.268-.128.266-.558.269.557zm1.19 1.267-.132.265h-.001zm1.573 2.34h.296v.296h-.296zm-5.523 0v.296h-.296v-.296zm1.439-2.605c.326-.164.59-.44.777-.69a3 3 0 0 0 .273-.434l.003-.005v-.001l.268.128.267.128-.001.001-.001.004-.005.01-.017.033a4 4 0 0 1-.312.49c-.215.287-.544.644-.985.866zm1.321-1.002.267-.129.002.006.013.024q.016.032.052.093c.047.081.118.193.21.317.189.25.453.527.78.691l-.267.53c-.441-.222-.771-.579-.987-.865a4 4 0 0 1-.313-.49l-.017-.034-.005-.01-.002-.003v-.001zm1.323 1.002c.367.184.82.39 1.163.778.357.402.573.968.573 1.827h-.593c0-.753-.186-1.166-.424-1.434-.251-.284-.585-.44-.984-.64zm1.44 2.9h-5.523v-.592h5.523zm-5.819-.295c0-.86.216-1.425.573-1.827.343-.388.796-.594 1.163-.778l.265.53c-.4.2-.733.357-.985.64-.237.27-.424.682-.424 1.435z" fill="#9A2143" mask="url(#v)"/><mask id="w" fill="#fff"><path d="M148.1 32.032c0-.472.192-.64.343-.782.252-.241.347-.402.347-.402s.094.16.343.402c.15.142.346.31.346.782v2.2H148.1zm1.852 0c0-.472.196-.64.347-.782.248-.241.346-.402.346-.402s.095.16.343.402c.147.142.343.31.343.782v2.2h-1.379zm-2.846 2.2v.624h5.178v-.624h-.533v-2.2c0-.472.154-.64.27-.782.189-.241.263-.402.263-.402v-.67h-5.178v.67s.07.16.248.402c.105.142.242.31.242.782v2.2z"/></mask><path d="M148.1 32.032c0-.472.192-.64.343-.782.252-.241.347-.402.347-.402s.094.16.343.402c.15.142.346.31.346.782v2.2H148.1zm1.852 0c0-.472.196-.64.347-.782.248-.241.346-.402.346-.402s.095.16.343.402c.147.142.343.31.343.782v2.2h-1.379zm-2.846 2.2v.624h5.178v-.624h-.533v-2.2c0-.472.154-.64.27-.782.189-.241.263-.402.263-.402v-.67h-5.178v.67s.07.16.248.402c.105.142.242.31.242.782v2.2z" fill="#BDB7B7"/><path d="m148.44 31.25.205.214-.001.001zm.347-.402-.256-.15.256-.434.255.434zm.343.402-.204.215-.003-.002zm.346 2.982h.297v.297h-.297zm-1.379 0v.297h-.297v-.297zm2.199-2.982.206.213-.003.002zm.346-.402-.253-.154.258-.422.251.426zm.343.402.207-.213zm.343 2.982h.297v.297h-.297zm-1.379 0v.297h-.297v-.297zm-2.846 0h-.297v-.296h.297zm0 .625v.296h-.297v-.296zm5.178 0h.296v.296h-.296zm0-.625v-.296h.296v.296zm-.533 0v.297h-.296v-.297zm.27-2.982.233.183-.003.004zm.263-.402h.296v.065l-.027.059zm0-.67v-.297h.296v.297zm-5.178 0h-.297v-.297h.297zm0 .67-.272.119-.025-.057v-.062zm.248.402.238-.176h.001zm.242 2.982h.296v.297h-.296zm.207-2.2c0-.278.058-.49.154-.66.092-.164.212-.271.282-.337l.408.43a.8.8 0 0 0-.174.198.73.73 0 0 0-.077.37zm.435-.996a2.5 2.5 0 0 0 .288-.325l.009-.014v-.001.001h-.001v.001l.256.15.255.15V31h-.001v.002l-.002.004-.006.01-.02.029q-.024.036-.072.098a3 3 0 0 1-.296.322zm.552-.188.255-.15-.001-.001h.001l.009.014.048.066c.046.06.123.15.237.26l-.413.426a3 3 0 0 1-.363-.42l-.02-.029-.005-.01-.002-.003-.001-.001h-.001v-.001zm.546.187c.069.065.19.172.284.336a1.3 1.3 0 0 1 .156.662h-.593c0-.193-.039-.3-.078-.368-.042-.074-.094-.122-.176-.2zm.44.997v2.2h-.593v-2.199zm-.297 2.497h-1.379v-.593h1.379zm-1.379-.297h-.297v-2.199h.593v2.199zm1.555-2.2c0-.28.059-.491.156-.661.094-.164.215-.271.284-.336l.407.43c-.081.078-.134.126-.176.2a.7.7 0 0 0-.078.367zm.437-.995a3 3 0 0 0 .29-.329l.01-.014.001-.002v.001h-.001l.253.155.253.155-.001.002-.002.003-.006.01-.02.028q-.024.036-.071.097c-.064.08-.159.19-.293.32zm.553-.189.256-.15h-.001v-.001h-.001.001l.009.014.048.066c.047.06.123.15.238.26l-.413.426a3 3 0 0 1-.292-.322q-.047-.06-.072-.097l-.019-.03-.006-.01-.002-.003-.001-.001v-.001zm.55.19c.065.063.185.17.278.334.096.17.155.38.155.66h-.593c0-.191-.039-.3-.078-.368-.042-.075-.094-.123-.175-.201zm.433.994v2.2h-.593v-2.199zm-.297 2.497h-1.379v-.593h1.379zm-1.379-.297h-.297v-2.199h.593v2.199zm-2.55 0v.625h-.593v-.625zm-.296.328h5.178v.593h-5.178zm4.881.297v-.625h.593v.625zm.297-.328h-.533v-.593h.533zm-.533-.297h-.296v-2.199h.593v2.199zm-.296-2.2c0-.269.044-.471.117-.635.072-.16.166-.269.219-.334l.46.374c-.062.077-.103.125-.137.201a.95.95 0 0 0-.066.394zm.333-.965a3 3 0 0 0 .218-.327l.008-.014.001-.002h-.001v.001l.27.123.269.124-.001.002-.001.003-.005.01-.014.028q-.018.035-.054.096a3 3 0 0 1-.224.322zm.199-.219v-.67h.593v.67zm.297-.374h-5.178v-.593h5.178zm-4.882-.296v.67h-.593v-.67zm-.296.67.271-.118v-.001l.001.002.007.014.036.068c.034.06.09.15.171.26l-.476.353a3 3 0 0 1-.262-.417l-.014-.028-.004-.009-.001-.003-.001-.001v-.001zm.487.226c.049.067.133.174.197.334s.102.36.102.624h-.593c0-.206-.029-.328-.06-.405s-.068-.126-.123-.201zm.299.958v2.2h-.593v-2.199zm-.296 2.497h-.49v-.593h.49z" fill="#9A2143" mask="url(#w)"/><path d="M153.01 35.957h.103v-.221h-.103zm-.75-.001h.106v-.222h-.106zm-.75.003h.106v-.222h-.106zm-.75-.001h.106v-.222h-.106zm-.74 0h.102v-.222h-.102zm-.75-.001h.104v-.222h-.104zm-.75.001h.104v-.222h-.104zm-.75 0h.107v-.222h-.107zm-.75-.002h.103v-.222h-.103zm-.75-.001h.106v-.222h-.106zm7.14 15.993h.104v-.222h-.104zm-.75-.001h.103v-.221h-.103zm-.75-.001h.103v-.222h-.103zm-.74.002h.102v-.222h-.102zm-.75-.004h.101v-.222h-.101zm-.75.002h.105v-.222h-.105zm-.75.002h.104v-.222h-.104zm-.75-.002h.103v-.222h-.103zm-.75 0h.106v-.222h-.106zm-.74 0h.102v-.222h-.102zm-.76.002h.105v-.222h-.105zm7.77 14.142h.103v-.222h-.103zm-.75-.001h.103v-.222h-.103zm-.75.003h.103v-.221h-.103zm-.75-.002h.102v-.222h-.102zm-.75 0h.109v-.222h-.109zm-.75 0h.101v-.222h-.101zm-.74.001h.104v-.222h-.104zm-.76-.001h.104v-.221h-.104zm-.74 0h.106v-.222h-.106zm-.75 0h.102v-.222h-.102zm-.75-.001h.106v-.222h-.106zm-.75.001h.102v-.222h-.102z" fill="#8A0329" stroke="#9A2143" stroke-width=".296"/><mask id="x" fill="#fff"><path d="M134.62 39.669c.272-.135.422-.448.422-.448s.149.313.421.448c.273.137.558.26.558.832h-1.955c0-.573.282-.695.554-.832"/></mask><path d="M134.62 39.669c.272-.135.422-.448.422-.448s.149.313.421.448c.273.137.558.26.558.832h-1.955c0-.573.282-.695.554-.832" fill="#FFEFF4"/><path d="m135.04 39.22-.268-.128.268-.56.267.56zm.421.448.132-.265h.002zm.558.832h.297v.296h-.297zm-1.955 0v.296h-.297V40.5zm.422-1.097a.6.6 0 0 0 .208-.187 1 1 0 0 0 .076-.12l.003-.005h-.001v.001l.268.128.267.128v.001l-.001.002-.003.005-.008.015a1 1 0 0 1-.127.2 1.2 1.2 0 0 1-.418.363zm.554-.183.267-.128v-.001l.002.005.015.026a1 1 0 0 0 .062.094.64.64 0 0 0 .207.187l-.263.531a1.2 1.2 0 0 1-.419-.362 2 2 0 0 1-.127-.2l-.008-.016-.002-.005-.001-.002-.001-.001zm.555.184c.119.06.318.15.469.32.165.187.252.437.252.776h-.593c0-.233-.057-.33-.103-.383-.059-.067-.139-.107-.292-.184zm.424 1.392h-1.955v-.592h1.955zm-2.252-.296c0-.338.085-.588.249-.774.15-.172.349-.262.468-.322l.268.529c-.153.077-.232.117-.29.184-.046.051-.102.149-.102.383z" fill="#9A2143" mask="url(#x)"/><mask id="y" fill="#fff"><path d="M133.93 40.625c0 .073.061.13.133.13h1.956a.13.13 0 0 0 .129-.13.13.13 0 0 0-.129-.127h-1.956a.13.13 0 0 0-.133.127"/></mask><path d="M133.93 40.625c0 .073.061.13.133.13h1.956a.13.13 0 0 0 .129-.13.13.13 0 0 0-.129-.127h-1.956a.13.13 0 0 0-.133.127" fill="#FFBBCE"/><path d="M134.23 40.625a.165.165 0 0 0-.164-.167v.593a.43.43 0 0 1-.429-.426zm-.164-.167h1.956v.593h-1.956zm1.956 0c-.09 0-.167.07-.167.167h.593c0 .242-.2.426-.426.426zm-.167.167c0 .054.023.097.051.124a.17.17 0 0 0 .116.046v-.593c.222 0 .426.18.426.423zm.167.17h-1.956v-.593h1.956zm-1.956 0a.166.166 0 0 0 .164-.17h-.593c0-.249.209-.423.429-.423z" fill="#9A2143" mask="url(#y)"/><path d="m126.03 44.81.828.177v-6.579h-1.54v6.399h.697z" fill="#FFEFF4" stroke="#9A2143" stroke-width=".296"/><mask id="z" fill="#fff"><path d="M125.66 37.174c.271-.135.422-.448.422-.448s.15.313.425.448c.271.135.555.26.555.83h-1.957c0-.57.284-.695.555-.83"/></mask><path d="M125.66 37.174c.271-.135.422-.448.422-.448s.15.313.425.448c.271.135.555.26.555.83h-1.957c0-.57.284-.695.555-.83" fill="#FFEFF4"/><path d="m126.09 36.725-.268-.128.268-.556.267.556zm.425.448.13-.266h.002zm.555.83h.297v.296h-.297zm-1.957 0v.296h-.297v-.297zm.423-1.095a.65.65 0 0 0 .208-.188c.027-.036.048-.07.062-.093l.014-.026.003-.006v.001l.267.129.267.129h-.001l-.001.003-.002.005-.008.015-.027.048q-.035.062-.101.152a1.2 1.2 0 0 1-.417.362zm.554-.183.267-.129h-.001l.003.005.014.025a1 1 0 0 0 .063.094.6.6 0 0 0 .209.187l-.261.532a1.2 1.2 0 0 1-.421-.362 1.4 1.4 0 0 1-.101-.151l-.028-.049-.007-.015-.003-.005-.001-.002v-.001zm.557.183c.12.06.318.15.469.32.165.187.251.436.251.774h-.593c0-.232-.056-.33-.102-.382-.059-.066-.139-.107-.289-.181zm.423 1.39h-1.957v-.592h1.957zm-2.254-.296c0-.338.086-.587.25-.773.151-.172.349-.261.47-.321l.264.53c-.15.075-.23.115-.289.182-.046.053-.102.15-.102.382z" fill="#9A2143" mask="url(#z)"/><mask id="A" fill="#fff"><path d="M124.98 38.131c0 .072.06.13.13.13h1.958a.13.13 0 0 0 .131-.13.13.13 0 0 0-.131-.13h-1.958a.13.13 0 0 0-.13.13"/></mask><path d="M124.98 38.131c0 .072.06.13.13.13h1.958a.13.13 0 0 0 .131-.13.13.13 0 0 0-.131-.13h-1.958a.13.13 0 0 0-.13.13" fill="#FFBBCE"/><path d="M125.27 38.131a.166.166 0 0 0-.166-.167v.593a.427.427 0 0 1-.427-.426zm-.166-.167h1.958v.593h-1.958zm1.958 0a.17.17 0 0 0-.166.167h.593c0 .237-.19.426-.427.426zm-.166.167c0 .093.078.167.166.167v-.593c.236 0 .427.188.427.426zm.166.167h-1.958v-.593h1.958zm-1.958 0c.087 0 .166-.07.166-.167h-.593c0-.243.2-.426.427-.426z" fill="#9A2143" mask="url(#A)"/><path d="M167.95 91.188h14.473V80.374H167.95z" fill="#FAE7B9" stroke="#9A2143" stroke-width=".296"/><path d="M167.95 81.883h14.473v-.437H167.95z" fill="#8A0329" stroke="#9A2143" stroke-width=".296"/><path d="M116.32 80.226v-3.723a1.425 1.425 0 1 1 2.852 0v3.723zm0-16.185v-3.72a1.427 1.427 0 0 1 2.853 0v3.72z" fill="#FAE7B9"/><path d="M75.609 33.794q.094-.05.234-.11c.37-.157 1.014-.36 2.12-.563 2.21-.406 6.286-.808 13.76-.808 7.477 0 11.553.402 13.764.808 1.105.202 1.75.406 2.12.563q.14.06.233.11v-3.988l-.012-.01a1.6 1.6 0 0 0-.3-.156c-.324-.137-.92-.324-1.997-.513-2.153-.377-6.21-.757-13.808-.757s-11.653.38-13.806.757c-1.077.189-1.672.376-1.995.513a1.6 1.6 0 0 0-.313.165z" fill="#BFA054" stroke="#9A2143" stroke-width=".296"/><path d="M75.468 29.543c.07-.047.177-.108.34-.176.35-.149.97-.34 2.06-.532 2.177-.381 6.253-.76 13.856-.76 7.606 0 11.682.379 13.861.76 1.09.191 1.708.383 2.06.532.162.068.27.128.34.176q.06-.058.153-.154c.155-.16.371-.4.617-.71a10.6 10.6 0 0 0 1.546-2.696c.901-2.311 1.201-5.609-1.24-9.552l.125-.078-.126.078c-2.379-3.843-5.559-6.476-8.69-8.765-.65-.476-1.3-.938-1.94-1.392-2.404-1.708-4.675-3.32-6.378-5.244a1.5 1.5 0 0 1-.655-.002c-1.703 1.923-3.973 3.537-6.376 5.244-.64.455-1.29.916-1.94 1.392-3.131 2.29-6.31 4.924-8.692 8.767-2.441 3.943-2.14 7.24-1.24 9.552a10.7 10.7 0 0 0 1.548 2.695 9 9 0 0 0 .771.865z" fill="#FEFEFE" stroke="#9A2143" stroke-width=".296"/><path d="M91.724 32.607c-7.467 0-11.522.403-13.708.803-1.092.2-1.713.4-2.057.545a2 2 0 0 0-.35.183v4.72h32.232v-4.72l-.02-.014a2 2 0 0 0-.329-.169c-.345-.145-.965-.344-2.058-.545-2.186-.4-6.242-.803-13.71-.803z" fill="#FAE7B9" stroke="#9A2143" stroke-width=".296"/><path d="M13.042 14.326a.33.33 0 1 0 0-.66H3.72a.33.33 0 1 0 0 .66zm-.001 7.105a.33.33 0 1 0 0-.66H3.719a.33.33 0 1 0 0 .66zm.481 21.004c.184 0 .332-.15.332-.328a.33.33 0 0 0-.332-.331H3.243a.33.33 0 0 0 0 .659zm.627 18.583a.33.33 0 1 0 0-.66H2.79a.33.33 0 1 0 0 .66zm23.152-30.99a.213.213 0 0 0 .216-.214.214.214 0 0 0-.216-.218h-7.095a.22.22 0 0 0-.219.218c0 .116.098.214.219.214zm0 5.41c.12 0 .216-.097.216-.217a.214.214 0 0 0-.216-.217h-7.095a.22.22 0 0 0-.219.217.22.22 0 0 0 .219.217zm.362 15.99a.217.217 0 0 0 0-.434h-7.826a.217.217 0 0 0 0 .434zm.482 14.144a.22.22 0 0 0 .216-.22.213.213 0 0 0-.216-.212h-8.647a.213.213 0 0 0-.216.212c0 .122.098.22.216.22zM170.07 13.994a.33.33 0 0 0 .329.331h9.324c.183 0 .333-.15.333-.331a.33.33 0 0 0-.333-.328h-9.324a.33.33 0 0 0-.329.328zm0 7.105a.33.33 0 0 0 .329.331h9.324c.183 0 .333-.15.333-.331a.33.33 0 0 0-.333-.328h-9.324a.327.327 0 0 0-.329.328zm-.47 21.01c0 .18.144.328.329.328h10.28a.33.33 0 0 0 0-.66h-10.28a.327.327 0 0 0-.329.332zm-.63 18.578c0 .184.15.331.33.331h11.361a.33.33 0 1 0 0-.66H169.3c-.18 0-.33.15-.33.329zm-23.04-30.875c0 .119.096.215.213.215h7.096a.216.216 0 1 0 0-.432h-7.096a.215.215 0 0 0-.213.217zm0 5.408c0 .12.097.217.213.217h7.096a.217.217 0 1 0 0-.434h-7.096a.215.215 0 0 0-.213.217zm-.36 15.989c0 .12.098.217.217.217h7.827a.217.217 0 0 0 0-.434h-7.827a.22.22 0 0 0-.217.217zm-.49 14.142c0 .122.1.22.218.22h8.646c.12 0 .217-.098.217-.22a.213.213 0 0 0-.217-.212h-8.646a.216.216 0 0 0-.218.212z" fill="#FFBBCE" stroke="#9A2143" stroke-width=".296"/></svg>