<svg width="20" height="20" viewBox="0 0 20 20" fill="none" xmlns="http://www.w3.org/2000/svg">
<g clip-path="url(#clip0_1197_85)">
<path d="M9.99939 20.0004C10.6624 20.0004 11.2983 19.737 11.7672 19.2682C12.236 18.7993 12.4994 18.1635 12.4994 17.5004H7.49939C7.49939 18.1635 7.76278 18.7993 8.23162 19.2682C8.70046 19.737 9.33635 20.0004 9.99939 20.0004ZM9.99939 2.39792L9.00314 2.59917C7.87309 2.82942 6.8573 3.44305 6.1277 4.3362C5.39811 5.22935 4.99951 6.34715 4.99939 7.50042C4.99939 8.28542 4.83189 10.2467 4.42564 12.1779C4.22564 13.1367 3.95564 14.1354 3.59689 15.0004H16.4019C16.0431 14.1354 15.7744 13.1379 15.5731 12.1779C15.1669 10.2467 14.9994 8.28542 14.9994 7.50042C14.999 6.34737 14.6003 5.22986 13.8707 4.33697C13.1411 3.44407 12.1255 2.83063 10.9956 2.60042L9.99939 2.39667V2.39792ZM17.7744 15.0004C18.0531 15.5592 18.3756 16.0017 18.7494 16.2504H1.24939C1.62314 16.0017 1.94564 15.5592 2.22439 15.0004C3.34939 12.7504 3.74939 8.60042 3.74939 7.50042C3.74939 4.47542 5.89939 1.95042 8.75564 1.37417C8.73819 1.20036 8.75737 1.02483 8.81193 0.858889C8.86649 0.692948 8.95523 0.540284 9.07242 0.410745C9.18961 0.281205 9.33264 0.177665 9.49231 0.106803C9.65197 0.0359405 9.82471 -0.000671387 9.99939 -0.000671387C10.1741 -0.000671387 10.3468 0.0359405 10.5065 0.106803C10.6661 0.177665 10.8092 0.281205 10.9264 0.410745C11.0436 0.540284 11.1323 0.692948 11.1868 0.858889C11.2414 1.02483 11.2606 1.20036 11.2431 1.37417C12.656 1.66155 13.9261 2.42837 14.8384 3.5448C15.7508 4.66122 16.2492 6.05864 16.2494 7.50042C16.2494 8.60042 16.6494 12.7504 17.7744 15.0004Z" fill="#1E2742"/>
</g>
<defs>
<clipPath id="clip0_1197_85">
<rect width="20" height="20" fill="white" transform="translate(-0.000732422 0.00177002)"/>
</clipPath>
</defs>
</svg>
