<svg width="20" height="18" viewBox="0 0 20 18" fill="none" xmlns="http://www.w3.org/2000/svg">
<path d="M-0.000366211 0.994953C0.00146383 0.732331 0.106534 0.480971 0.292147 0.295171C0.477759 0.109371 0.729014 0.00404777 0.991634 0.00195312H19.0076C19.5556 0.00195312 19.9996 0.446953 19.9996 0.994953L19.9996 17.009C19.9978 17.2716 19.8927 17.5229 19.7071 17.7087C19.5215 17.8945 19.2703 17.9999 19.0076 18.002H0.991634C0.728447 18.0017 0.476131 17.897 0.290123 17.7108C0.104116 17.5246 -0.000366344 17.2721 -0.000366211 17.009L-0.000366211 0.994953ZM8.99963 2.00195H1.99963L1.99963 16.002H8.99963L8.99963 2.00195ZM10.9996 2.00195L10.9996 16.002H17.9996L17.9996 2.00195H10.9996ZM11.9996 4.00195H16.9996V6.00195H11.9996L11.9996 4.00195ZM11.9996 7.00195H16.9996V9.00195H11.9996V7.00195Z" fill="#1E2742"/>
</svg>
