<svg width="20" height="20" viewBox="0 0 20 20" fill="none" xmlns="http://www.w3.org/2000/svg">
<path d="M19.0007 9.64429L19.0007 18.9983C19.0007 19.2635 18.8954 19.5179 18.7078 19.7054C18.5203 19.8929 18.266 19.9983 18.0007 19.9983H2.00074C1.73552 19.9983 1.48117 19.8929 1.29363 19.7054C1.10609 19.5179 1.00074 19.2635 1.00074 18.9983L1.00074 9.64429C0.355053 8.91425 -0.000710853 7.9729 0.000736823 6.99829L0.000736823 0.998291C0.000736823 0.733075 0.106094 0.478721 0.29363 0.291184C0.481166 0.103648 0.73552 -0.00170898 1.00074 -0.00170898H19.0007C19.266 -0.00170898 19.5203 0.103648 19.7078 0.291184C19.8954 0.478721 20.0007 0.733075 20.0007 0.998291V6.99829C20.0007 8.01229 19.6227 8.93829 19.0007 9.64429ZM17.0007 10.8723C16.2856 11.056 15.5336 11.0386 14.8277 10.8219C14.1219 10.6052 13.4896 10.1976 13.0007 9.64429C12.6258 10.0704 12.1642 10.4116 11.6469 10.645C11.1295 10.8785 10.5683 10.999 10.0007 10.9983C9.43315 10.999 8.87195 10.8785 8.35462 10.645C7.83728 10.4116 7.37571 10.0704 7.00074 9.64429C6.51305 10.1992 5.88087 10.6079 5.17462 10.8247C4.46837 11.0415 3.7158 11.058 3.00074 10.8723L3.00074 17.9983H17.0007V10.8723V10.8723ZM12.0007 6.99829C12.0007 6.73307 12.1061 6.47872 12.2936 6.29118C12.4812 6.10365 12.7355 5.99829 13.0007 5.99829C13.266 5.99829 13.5203 6.10365 13.7078 6.29118C13.8954 6.47872 14.0007 6.73307 14.0007 6.99829C14.0007 7.52872 14.2115 8.03743 14.5865 8.4125C14.9616 8.78758 15.4703 8.99829 16.0007 8.99829C16.5312 8.99829 17.0399 8.78758 17.4149 8.4125C17.79 8.03743 18.0007 7.52872 18.0007 6.99829V1.99829H2.00074L2.00074 6.99829C2.00074 7.52872 2.21145 8.03743 2.58652 8.4125C2.9616 8.78758 3.4703 8.99829 4.00074 8.99829C4.53117 8.99829 5.03988 8.78758 5.41495 8.4125C5.79002 8.03743 6.00074 7.52872 6.00074 6.99829C6.00074 6.73307 6.10609 6.47872 6.29363 6.29118C6.48117 6.10365 6.73552 5.99829 7.00074 5.99829C7.26595 5.99829 7.52031 6.10365 7.70784 6.29118C7.89538 6.47872 8.00074 6.73307 8.00074 6.99829C8.00074 7.52872 8.21145 8.03743 8.58652 8.4125C8.9616 8.78758 9.4703 8.99829 10.0007 8.99829C10.5312 8.99829 11.0399 8.78758 11.415 8.4125C11.79 8.03743 12.0007 7.52872 12.0007 6.99829Z" fill="#1E2742"/>
</svg>
