<svg width="16" height="16" viewBox="0 0 16 16" fill="none" xmlns="http://www.w3.org/2000/svg">
<g opacity="0.8">
<path d="M11.33 2.00838H13.9966C14.1734 2.00838 14.343 2.07862 14.468 2.20364C14.5931 2.32867 14.6633 2.49824 14.6633 2.67505L14.6633 13.3417C14.6633 13.5185 14.5931 13.6881 14.468 13.8131C14.343 13.9381 14.1734 14.0084 13.9966 14.0084H1.99662C1.81981 14.0084 1.65024 13.9381 1.52522 13.8131C1.40019 13.6881 1.32996 13.5185 1.32996 13.3417L1.32996 2.67505C1.32996 2.49824 1.40019 2.32867 1.52522 2.20364C1.65024 2.07862 1.81981 2.00838 1.99662 2.00838H4.66329V0.675049H5.99662L5.99662 2.00838H9.99662V0.675049H11.33V2.00838ZM9.99662 3.34172H5.99662L5.99662 4.67505H4.66329V3.34172H2.66329L2.66329 6.00838H13.33V3.34172H11.33V4.67505H9.99662V3.34172ZM13.33 7.34172H2.66329L2.66329 12.675H13.33L13.33 7.34172Z" fill="#1E2742"/>
</g>
</svg>
