<svg width="171" height="139" viewBox="0 0 171 139" fill="none" xmlns="http://www.w3.org/2000/svg">
<path d="M13.1922 63.3036C17.5885 63.3036 21.1525 59.7591 21.1525 55.3869C21.1525 51.0146 17.5885 47.4702 13.1922 47.4702C8.79587 47.4702 5.23193 51.0146 5.23193 55.3869C5.23193 59.7591 8.79587 63.3036 13.1922 63.3036Z" fill="#F39200"/>
<path d="M21.152 63.42C25.5483 63.42 29.1123 59.8756 29.1123 55.5033C29.1123 51.1311 25.5483 47.5867 21.152 47.5867C16.7557 47.5867 13.1918 51.1311 13.1918 55.5033C13.1918 59.8756 16.7557 63.42 21.152 63.42Z" fill="#F39200"/>
<path d="M29.1127 63.5417C33.5091 63.5417 37.073 59.9973 37.073 55.625C37.073 51.2528 33.5091 47.7084 29.1127 47.7084C24.7164 47.7084 21.1525 51.2528 21.1525 55.625C21.1525 59.9973 24.7164 63.5417 29.1127 63.5417Z" fill="#F39200"/>
<path d="M37.0731 63.6703C41.4694 63.6703 45.0333 60.1259 45.0333 55.7537C45.0333 51.3814 41.4694 47.837 37.0731 47.837C32.6767 47.837 29.1128 51.3814 29.1128 55.7537C29.1128 60.1259 32.6767 63.6703 37.0731 63.6703Z" fill="#F39200"/>
<path d="M43.3022 63.7645C47.6985 63.7645 51.2624 60.2201 51.2624 55.8478C51.2624 51.4756 47.6985 47.9312 43.3022 47.9312C38.9058 47.9312 35.3419 51.4756 35.3419 55.8478C35.3419 60.2201 38.9058 63.7645 43.3022 63.7645Z" fill="#F39200"/>
<path d="M15.0097 60.2037C16.3699 60.2037 17.4726 59.107 17.4726 57.7543C17.4726 56.4015 16.3699 55.3048 15.0097 55.3048C13.6495 55.3048 12.5468 56.4015 12.5468 57.7543C12.5468 59.107 13.6495 60.2037 15.0097 60.2037Z" fill="#CE7D11"/>
<path d="M22.5525 60.3173C23.9128 60.3173 25.0155 59.2207 25.0155 57.8679C25.0155 56.5151 23.9128 55.4185 22.5525 55.4185C21.1923 55.4185 20.0896 56.5151 20.0896 57.8679C20.0896 59.2207 21.1923 60.3173 22.5525 60.3173Z" fill="#CE7D11"/>
<path d="M37.1936 56.0389C38.5539 56.0389 39.6566 54.9422 39.6566 53.5894C39.6566 52.2367 38.5539 51.14 37.1936 51.14C35.8334 51.14 34.7307 52.2367 34.7307 53.5894C34.7307 54.9422 35.8334 56.0389 37.1936 56.0389Z" fill="#CE7D11"/>
<path d="M42.5139 61.7861C43.8742 61.7861 44.9769 60.6894 44.9769 59.3366C44.9769 57.9839 43.8742 56.8872 42.5139 56.8872C41.1537 56.8872 40.051 57.9839 40.051 59.3366C40.051 60.6894 41.1537 61.7861 42.5139 61.7861Z" fill="#CE7D11"/>
<path d="M30.127 58.4086C31.4872 58.4086 32.5899 57.312 32.5899 55.9592C32.5899 54.6064 31.4872 53.5098 30.127 53.5098C28.7668 53.5098 27.6641 54.6064 27.6641 55.9592C27.6641 57.312 28.7668 58.4086 30.127 58.4086Z" fill="#CE7D11"/>
<path d="M12.0503 56.8968C16.4467 56.8968 20.0106 53.3524 20.0106 48.9801C20.0106 44.6079 16.4467 41.0635 12.0503 41.0635C7.65402 41.0635 4.09009 44.6079 4.09009 48.9801C4.09009 53.3524 7.65402 56.8968 12.0503 56.8968Z" fill="#F39200"/>
<path d="M20.0009 57.0196C24.3972 57.0196 27.9612 53.4752 27.9612 49.1029C27.9612 44.7307 24.3972 41.1863 20.0009 41.1863C15.6046 41.1863 12.0406 44.7307 12.0406 49.1029C12.0406 53.4752 15.6046 57.0196 20.0009 57.0196Z" fill="#F39200"/>
<path d="M31.4871 57.1469C35.8835 57.1469 39.4474 53.6025 39.4474 49.2302C39.4474 44.858 35.8835 41.3136 31.4871 41.3136C27.0908 41.3136 23.5269 44.858 23.5269 49.2302C23.5269 53.6025 27.0908 57.1469 31.4871 57.1469Z" fill="#F39200"/>
<path d="M39.4471 57.2634C43.8434 57.2634 47.4074 53.7189 47.4074 49.3467C47.4074 44.9744 43.8434 41.4301 39.4471 41.4301C35.0507 41.4301 31.4868 44.9744 31.4868 49.3467C31.4868 53.7189 35.0507 57.2634 39.4471 57.2634Z" fill="#F39200"/>
<path d="M45.6754 57.3597C50.0717 57.3597 53.6356 53.8152 53.6356 49.443C53.6356 45.0708 50.0717 41.5264 45.6754 41.5264C41.279 41.5264 37.7151 45.0708 37.7151 49.443C37.7151 53.8152 41.279 57.3597 45.6754 57.3597Z" fill="#F39200"/>
<path d="M17.3847 53.7996C18.7449 53.7996 19.8476 52.703 19.8476 51.3502C19.8476 49.9974 18.7449 48.9008 17.3847 48.9008C16.0244 48.9008 14.9218 49.9974 14.9218 51.3502C14.9218 52.703 16.0244 53.7996 17.3847 53.7996Z" fill="#CE7D11"/>
<path d="M10.0378 49.5575C11.398 49.5575 12.5007 48.4608 12.5007 47.108C12.5007 45.7552 11.398 44.6586 10.0378 44.6586C8.67752 44.6586 7.57483 45.7552 7.57483 47.108C7.57483 48.4608 8.67752 49.5575 10.0378 49.5575Z" fill="#CE7D11"/>
<path d="M24.9276 53.9205C26.2879 53.9205 27.3906 52.8239 27.3906 51.4711C27.3906 50.1183 26.2879 49.0216 24.9276 49.0216C23.5674 49.0216 22.4647 50.1183 22.4647 51.4711C22.4647 52.8239 23.5674 53.9205 24.9276 53.9205Z" fill="#CE7D11"/>
<path d="M17.9985 42.4802C19.3587 42.4802 20.4614 41.3835 20.4614 40.0307C20.4614 38.6779 19.3587 37.5813 17.9985 37.5813C16.6382 37.5813 15.5355 38.6779 15.5355 40.0307C15.5355 41.3835 16.6382 42.4802 17.9985 42.4802Z" fill="#CE7D11"/>
<path d="M44.8882 55.3866C46.2485 55.3866 47.3512 54.2899 47.3512 52.9371C47.3512 51.5843 46.2485 50.4877 44.8882 50.4877C43.528 50.4877 42.4253 51.5843 42.4253 52.9371C42.4253 54.2899 43.528 55.3866 44.8882 55.3866Z" fill="#CE7D11"/>
<path d="M32.5017 52.0068C33.862 52.0068 34.9647 50.9102 34.9647 49.5574C34.9647 48.2046 33.862 47.1079 32.5017 47.1079C31.1415 47.1079 30.0388 48.2046 30.0388 49.5574C30.0388 50.9102 31.1415 52.0068 32.5017 52.0068Z" fill="#CE7D11"/>
<path d="M50.0305 61.4853C54.4269 61.4853 57.9908 57.9409 57.9908 53.5687C57.9908 49.1964 54.4269 45.652 50.0305 45.652C45.6342 45.652 42.0703 49.1964 42.0703 53.5687C42.0703 57.9409 45.6342 61.4853 50.0305 61.4853Z" fill="#F39200"/>
<path d="M57.9918 61.6095C62.3881 61.6095 65.952 58.0652 65.952 53.6929C65.952 49.3207 62.3881 45.7762 57.9918 45.7762C53.5954 45.7762 50.0315 49.3207 50.0315 53.6929C50.0315 58.0652 53.5954 61.6095 57.9918 61.6095Z" fill="#F39200"/>
<path d="M65.9526 61.7312C70.3489 61.7312 73.9128 58.1868 73.9128 53.8145C73.9128 49.4423 70.3489 45.8978 65.9526 45.8978C61.5562 45.8978 57.9923 49.4423 57.9923 53.8145C57.9923 58.1868 61.5562 61.7312 65.9526 61.7312Z" fill="#F39200"/>
<path d="M73.9058 61.8501C78.3021 61.8501 81.8661 58.3057 81.8661 53.9334C81.8661 49.5611 78.3021 46.0167 73.9058 46.0167C69.5095 46.0167 65.9456 49.5611 65.9456 53.9334C65.9456 58.3057 69.5095 61.8501 73.9058 61.8501Z" fill="#F39200"/>
<path d="M80.1323 61.948C84.5286 61.948 88.0925 58.4035 88.0925 54.0313C88.0925 49.659 84.5286 46.1146 80.1323 46.1146C75.7359 46.1146 72.172 49.659 72.172 54.0313C72.172 58.4035 75.7359 61.948 80.1323 61.948Z" fill="#F39200"/>
<path d="M51.8421 58.3858C53.2023 58.3858 54.305 57.2892 54.305 55.9364C54.305 54.5836 53.2023 53.4869 51.8421 53.4869C50.4818 53.4869 49.3792 54.5836 49.3792 55.9364C49.3792 57.2892 50.4818 58.3858 51.8421 58.3858Z" fill="#CE7D11"/>
<path d="M59.3924 58.5069C60.7526 58.5069 61.8553 57.4103 61.8553 56.0575C61.8553 54.7047 60.7526 53.608 59.3924 53.608C58.0321 53.608 56.9294 54.7047 56.9294 56.0575C56.9294 57.4103 58.0321 58.5069 59.3924 58.5069Z" fill="#CE7D11"/>
<path d="M74.0329 54.2235C75.3931 54.2235 76.4958 53.1268 76.4958 51.774C76.4958 50.4212 75.3931 49.3246 74.0329 49.3246C72.6726 49.3246 71.5699 50.4212 71.5699 51.774C71.5699 53.1268 72.6726 54.2235 74.0329 54.2235Z" fill="#CE7D11"/>
<path d="M79.3453 59.9725C80.7055 59.9725 81.8082 58.8758 81.8082 57.523C81.8082 56.1703 80.7055 55.0736 79.3453 55.0736C77.985 55.0736 76.8823 56.1703 76.8823 57.523C76.8823 58.8758 77.985 59.9725 79.3453 59.9725Z" fill="#CE7D11"/>
<path d="M66.9588 56.5928C68.319 56.5928 69.4217 55.4962 69.4217 54.1434C69.4217 52.7906 68.319 51.694 66.9588 51.694C65.5985 51.694 64.4958 52.7906 64.4958 54.1434C64.4958 55.4962 65.5985 56.5928 66.9588 56.5928Z" fill="#CE7D11"/>
<path d="M48.4054 53.7045C52.8018 53.7045 56.3657 50.1601 56.3657 45.7879C56.3657 41.4156 52.8018 37.8712 48.4054 37.8712C44.0091 37.8712 40.4452 41.4156 40.4452 45.7879C40.4452 50.1601 44.0091 53.7045 48.4054 53.7045Z" fill="#F39200"/>
<path d="M56.3665 53.8334C60.7628 53.8334 64.3267 50.289 64.3267 45.9168C64.3267 41.5445 60.7628 38.0001 56.3665 38.0001C51.9702 38.0001 48.4062 41.5445 48.4062 45.9168C48.4062 50.289 51.9702 53.8334 56.3665 53.8334Z" fill="#F39200"/>
<path d="M64.3249 53.9519C68.7212 53.9519 72.2852 50.4075 72.2852 46.0352C72.2852 41.663 68.7212 38.1185 64.3249 38.1185C59.9285 38.1185 56.3646 41.663 56.3646 46.0352C56.3646 50.4075 59.9285 53.9519 64.3249 53.9519Z" fill="#F39200"/>
<path d="M72.2846 54.0708C76.6809 54.0708 80.2449 50.5263 80.2449 46.1541C80.2449 41.7818 76.6809 38.2374 72.2846 38.2374C67.8883 38.2374 64.3243 41.7818 64.3243 46.1541C64.3243 50.5263 67.8883 54.0708 72.2846 54.0708Z" fill="#F39200"/>
<path d="M78.5148 54.1675C82.9112 54.1675 86.4751 50.6231 86.4751 46.2509C86.4751 41.8786 82.9112 38.3342 78.5148 38.3342C74.1185 38.3342 70.5546 41.8786 70.5546 46.2509C70.5546 50.6231 74.1185 54.1675 78.5148 54.1675Z" fill="#F39200"/>
<path d="M50.2248 50.6054C51.585 50.6054 52.6877 49.5088 52.6877 48.156C52.6877 46.8032 51.585 45.7065 50.2248 45.7065C48.8645 45.7065 47.7618 46.8032 47.7618 48.156C47.7618 49.5088 48.8645 50.6054 50.2248 50.6054Z" fill="#CE7D11"/>
<path d="M57.7656 50.7254C59.1258 50.7254 60.2285 49.6288 60.2285 48.276C60.2285 46.9232 59.1258 45.8265 57.7656 45.8265C56.4053 45.8265 55.3026 46.9232 55.3026 48.276C55.3026 49.6288 56.4053 50.7254 57.7656 50.7254Z" fill="#CE7D11"/>
<path d="M77.7267 52.1917C79.087 52.1917 80.1896 51.0951 80.1896 49.7423C80.1896 48.3895 79.087 47.2928 77.7267 47.2928C76.3665 47.2928 75.2638 48.3895 75.2638 49.7423C75.2638 51.0951 76.3665 52.1917 77.7267 52.1917Z" fill="#CE7D11"/>
<path d="M52.1227 41.8666C53.483 41.8666 54.5857 40.7699 54.5857 39.4171C54.5857 38.0643 53.483 36.9677 52.1227 36.9677C50.7625 36.9677 49.6598 38.0643 49.6598 39.4171C49.6598 40.7699 50.7625 41.8666 52.1227 41.8666Z" fill="#CE7D11"/>
<path d="M54.9174 45.7374C59.3137 45.7374 62.8777 42.193 62.8777 37.8207C62.8777 33.4485 59.3137 29.9041 54.9174 29.9041C50.5211 29.9041 46.9572 33.4485 46.9572 37.8207C46.9572 42.193 50.5211 45.7374 54.9174 45.7374Z" fill="#F39200"/>
<path d="M62.8781 45.8662C67.2745 45.8662 70.8384 42.3218 70.8384 37.9495C70.8384 33.5773 67.2745 30.0328 62.8781 30.0328C58.4818 30.0328 54.9178 33.5773 54.9178 37.9495C54.9178 42.3218 58.4818 45.8662 62.8781 45.8662Z" fill="#F39200"/>
<path d="M70.839 45.9878C75.2354 45.9878 78.7993 42.4434 78.7993 38.0712C78.7993 33.6989 75.2354 30.1545 70.839 30.1545C66.4427 30.1545 62.8788 33.6989 62.8788 38.0712C62.8788 42.4434 66.4427 45.9878 70.839 45.9878Z" fill="#F39200"/>
<path d="M70.9663 38.3589C72.3266 38.3589 73.4293 37.2622 73.4293 35.9094C73.4293 34.5566 72.3266 33.46 70.9663 33.46C69.6061 33.46 68.5034 34.5566 68.5034 35.9094C68.5034 37.2622 69.6061 38.3589 70.9663 38.3589Z" fill="#CE7D11"/>
<path d="M63.8902 40.73C65.2504 40.73 66.3531 39.6333 66.3531 38.2805C66.3531 36.9277 65.2504 35.8311 63.8902 35.8311C62.5299 35.8311 61.4272 36.9277 61.4272 38.2805C61.4272 39.6333 62.5299 40.73 63.8902 40.73Z" fill="#CE7D11"/>
<path d="M17.9974 45.0501C22.3937 45.0501 25.9576 41.5057 25.9576 37.1335C25.9576 32.7612 22.3937 29.2168 17.9974 29.2168C13.601 29.2168 10.0371 32.7612 10.0371 37.1335C10.0371 41.5057 13.601 45.0501 17.9974 45.0501Z" fill="#F39200"/>
<path d="M25.9481 45.1705C30.3444 45.1705 33.9083 41.6261 33.9083 37.2538C33.9083 32.8816 30.3444 29.3372 25.9481 29.3372C21.5517 29.3372 17.9878 32.8816 17.9878 37.2538C17.9878 41.6261 21.5517 45.1705 25.9481 45.1705Z" fill="#F39200"/>
<path d="M37.4346 45.2909C41.831 45.2909 45.3949 41.7464 45.3949 37.3742C45.3949 33.0019 41.831 29.4575 37.4346 29.4575C33.0383 29.4575 29.4744 33.0019 29.4744 37.3742C29.4744 41.7464 33.0383 45.2909 37.4346 45.2909Z" fill="#F39200"/>
<path d="M43.6639 45.3849C48.0602 45.3849 51.6241 41.8404 51.6241 37.4682C51.6241 33.0959 48.0602 29.5515 43.6639 29.5515C39.2676 29.5515 35.7036 33.0959 35.7036 37.4682C35.7036 41.8404 39.2676 45.3849 43.6639 45.3849Z" fill="#F39200"/>
<path d="M37.5569 39.4152C38.9172 39.4152 40.0199 38.3186 40.0199 36.9658C40.0199 35.613 38.9172 34.5164 37.5569 34.5164C36.1967 34.5164 35.094 35.613 35.094 36.9658C35.094 38.3186 36.1967 39.4152 37.5569 39.4152Z" fill="#CE7D11"/>
<path d="M50.7227 39.5824C52.0829 39.5824 53.1856 38.4857 53.1856 37.1329C53.1856 35.7801 52.0829 34.6835 50.7227 34.6835C49.3625 34.6835 48.2598 35.7801 48.2598 37.1329C48.2598 38.4857 49.3625 39.5824 50.7227 39.5824Z" fill="#CE7D11"/>
<path d="M30.4878 40.0312C31.8481 40.0312 32.9507 38.9345 32.9507 37.5817C32.9507 36.229 31.8481 35.1323 30.4878 35.1323C29.1276 35.1323 28.0249 36.229 28.0249 37.5817C28.0249 38.9345 29.1276 40.0312 30.4878 40.0312Z" fill="#CE7D11"/>
<path d="M17.6344 40.0306C18.9947 40.0306 20.0974 38.9339 20.0974 37.5811C20.0974 36.2284 18.9947 35.1317 17.6344 35.1317C16.2742 35.1317 15.1715 36.2284 15.1715 37.5811C15.1715 38.9339 16.2742 40.0306 17.6344 40.0306Z" fill="#CE7D11"/>
<path d="M26.4798 34.6905C30.8761 34.6905 34.4401 31.1461 34.4401 26.7739C34.4401 22.4016 30.8761 18.8572 26.4798 18.8572C22.0835 18.8572 18.5195 22.4016 18.5195 26.7739C18.5195 31.1461 22.0835 34.6905 26.4798 34.6905Z" fill="#F39200"/>
<path d="M34.4411 34.8124C38.8374 34.8124 42.4013 31.268 42.4013 26.8958C42.4013 22.5235 38.8374 18.9791 34.4411 18.9791C30.0448 18.9791 26.4808 22.5235 26.4808 26.8958C26.4808 31.268 30.0448 34.8124 34.4411 34.8124Z" fill="#F39200"/>
<path d="M42.4014 34.9338C46.7978 34.9338 50.3617 31.3893 50.3617 27.0171C50.3617 22.6449 46.7978 19.1005 42.4014 19.1005C38.0051 19.1005 34.4412 22.6449 34.4412 27.0171C34.4412 31.3893 38.0051 34.9338 42.4014 34.9338Z" fill="#F39200"/>
<path d="M48.6323 35.0262C53.0286 35.0262 56.5925 31.4818 56.5925 27.1095C56.5925 22.7373 53.0286 19.1929 48.6323 19.1929C44.2359 19.1929 40.672 22.7373 40.672 27.1095C40.672 31.4818 44.2359 35.0262 48.6323 35.0262Z" fill="#F39200"/>
<path d="M42.5296 27.3124C43.8898 27.3124 44.9925 26.2157 44.9925 24.8629C44.9925 23.5101 43.8898 22.4135 42.5296 22.4135C41.1693 22.4135 40.0667 23.5101 40.0667 24.8629C40.0667 26.2157 41.1693 27.3124 42.5296 27.3124Z" fill="#CE7D11"/>
<path d="M43.3025 16.2119C44.6628 16.2119 45.7655 15.1152 45.7655 13.7624C45.7655 12.4096 44.6628 11.313 43.3025 11.313C41.9423 11.313 40.8396 12.4096 40.8396 13.7624C40.8396 15.1152 41.9423 16.2119 43.3025 16.2119Z" fill="#CE7D11"/>
<path d="M35.4551 29.672C36.8154 29.672 37.918 28.5754 37.918 27.2226C37.918 25.8698 36.8154 24.7732 35.4551 24.7732C34.0949 24.7732 32.9922 25.8698 32.9922 27.2226C32.9922 28.5754 34.0949 29.672 35.4551 29.672Z" fill="#CE7D11"/>
<path d="M59.7608 34.8864C64.1571 34.8864 67.7211 31.342 67.7211 26.9698C67.7211 22.5975 64.1571 19.0531 59.7608 19.0531C55.3645 19.0531 51.8005 22.5975 51.8005 26.9698C51.8005 31.342 55.3645 34.8864 59.7608 34.8864Z" fill="#F39200"/>
<path d="M31.3817 21.6782C35.778 21.6782 39.3419 18.1337 39.3419 13.7615C39.3419 9.38924 35.778 5.84485 31.3817 5.84485C26.9853 5.84485 23.4214 9.38924 23.4214 13.7615C23.4214 18.1337 26.9853 21.6782 31.3817 21.6782Z" fill="#F39200"/>
<path d="M39.3427 21.8071C43.739 21.8071 47.303 18.2627 47.303 13.8904C47.303 9.51817 43.739 5.97375 39.3427 5.97375C34.9464 5.97375 31.3824 9.51817 31.3824 13.8904C31.3824 18.2627 34.9464 21.8071 39.3427 21.8071Z" fill="#F39200"/>
<path d="M29.4821 18.1068C30.8423 18.1068 31.945 17.0101 31.945 15.6573C31.945 14.3045 30.8423 13.2079 29.4821 13.2079C28.1219 13.2079 27.0192 14.3045 27.0192 15.6573C27.0192 17.0101 28.1219 18.1068 29.4821 18.1068Z" fill="#CE7D11"/>
<path d="M42.4012 15.8343C46.7975 15.8343 50.3614 12.2899 50.3614 7.91766C50.3614 3.5454 46.7975 0.000976562 42.4012 0.000976562C38.0049 0.000976562 34.4409 3.5454 34.4409 7.91766C34.4409 12.2899 38.0049 15.8343 42.4012 15.8343Z" fill="#F39200"/>
<path d="M50.3628 22.1825C54.7592 22.1825 58.3231 18.6381 58.3231 14.2659C58.3231 9.89366 54.7592 6.34924 50.3628 6.34924C45.9665 6.34924 42.4026 9.89366 42.4026 14.2659C42.4026 18.6381 45.9665 22.1825 50.3628 22.1825Z" fill="#F39200"/>
<path d="M57.05 22.0208C61.4463 22.0208 65.0102 18.4764 65.0102 14.1042C65.0102 9.7319 61.4463 6.1875 57.05 6.1875C52.6536 6.1875 49.0897 9.7319 49.0897 14.1042C49.0897 18.4764 52.6536 22.0208 57.05 22.0208Z" fill="#F39200"/>
<path d="M65.9995 34.9792C70.3958 34.9792 73.9597 31.4348 73.9597 27.0625C73.9597 22.6903 70.3958 19.1459 65.9995 19.1459C61.6031 19.1459 58.0392 22.6903 58.0392 27.0625C58.0392 31.4348 61.6031 34.9792 65.9995 34.9792Z" fill="#F39200"/>
<path d="M59.8924 27.2567C61.2526 27.2567 62.3553 26.16 62.3553 24.8072C62.3553 23.4544 61.2526 22.3578 59.8924 22.3578C58.5321 22.3578 57.4294 23.4544 57.4294 24.8072C57.4294 26.16 58.5321 27.2567 59.8924 27.2567Z" fill="#CE7D11"/>
<path d="M52.8241 29.6257C54.1844 29.6257 55.287 28.529 55.287 27.1762C55.287 25.8235 54.1844 24.7268 52.8241 24.7268C51.4639 24.7268 50.3612 25.8235 50.3612 27.1762C50.3612 28.529 51.4639 29.6257 52.8241 29.6257Z" fill="#CE7D11"/>
<path d="M92.3359 56.9135L92.1347 58.4023L92.0059 59.4509L91.8449 60.6116L91.7081 61.6602L91.5552 62.8129L91.4183 63.8615L91.3459 64.3818L91.2574 65.0222L91.1205 66.0708L90.9676 67.2315L90.8308 68.2801L90.6698 69.4328L90.533 70.4814L90.38 71.6421L90.2432 72.6907L90.0903 73.8434L90.0662 74.0115C90.034 74.3077 89.9857 74.5958 89.9374 74.892C89.881 75.2762 89.8166 75.6605 89.7442 76.0447C89.6718 76.3969 89.6074 76.7491 89.5269 77.0933C89.4464 77.4855 89.3498 77.8698 89.2532 78.254C89.1647 78.6062 89.0762 78.9584 88.9796 79.3026C88.8669 79.6868 88.7542 80.0711 88.6254 80.4553C88.5208 80.8075 88.4001 81.1597 88.2793 81.5039C88.223 81.648 88.1747 81.7841 88.1183 81.9282C88.0298 82.1763 87.9413 82.4164 87.8447 82.6646C87.7159 83.0168 87.571 83.377 87.41 83.7132C87.2974 83.9854 87.1847 84.2575 87.0559 84.5297C87.0156 84.6497 86.9593 84.7698 86.903 84.8819C86.734 85.2341 86.5649 85.5863 86.3959 85.9305C86.2027 86.3147 86.0095 86.699 85.8003 87.0832C85.6071 87.4354 85.4139 87.7956 85.2047 88.1318C84.9793 88.524 84.7459 88.9083 84.5125 89.2845C84.2871 89.6447 84.0456 89.9969 83.8122 90.3411C83.6513 90.5812 83.4903 90.8134 83.3132 91.0535C83.2166 91.2056 83.112 91.3497 82.9993 91.5018C82.7579 91.838 82.5164 92.1502 82.2588 92.4623C82.2347 92.4864 82.2186 92.5264 82.1864 92.5504C81.8805 92.9426 81.5586 93.3268 81.2286 93.7031C80.9308 94.0633 80.6088 94.4155 80.2949 94.7517C79.9247 95.1439 79.5544 95.5281 79.1761 95.9124C79.1198 95.9524 79.0795 96.0084 79.0232 96.0484C78.7093 96.3606 78.3793 96.6648 78.0573 96.961C78.0332 96.985 77.993 97.017 77.9688 97.041C77.5664 97.4093 77.1559 97.7695 76.7374 98.1217C76.3027 98.4819 75.8761 98.8341 75.4254 99.1703C75.2564 99.2984 75.0873 99.4264 74.9183 99.5465C74.5722 99.8107 74.2261 100.051 73.8639 100.299C73.8478 100.307 73.8398 100.315 73.8237 100.323C73.2925 100.691 72.7613 101.043 72.2139 101.372C71.9322 101.548 71.6505 101.716 71.3688 101.868C71.0146 102.068 70.6605 102.26 70.3144 102.452C70.2581 102.476 70.2178 102.508 70.1615 102.532C69.4693 102.9 68.7529 103.253 68.0285 103.581C67.7146 103.717 67.4007 103.861 67.0788 103.981C66.7327 104.141 66.3866 104.277 66.0244 104.413C65.7427 104.525 65.4529 104.629 65.1632 104.734C64.4388 104.998 63.7144 105.23 62.9739 105.454C62.6198 105.558 62.2656 105.654 61.9195 105.742C61.8632 105.758 61.8229 105.774 61.7666 105.782C60.9054 105.998 60.0361 106.19 59.1507 106.351C58.7966 106.415 58.4505 106.471 58.0963 106.527C57.0339 106.695 55.9554 106.815 54.8688 106.887C54.5146 106.911 54.1605 106.943 53.8144 106.951C53.2751 106.975 52.7519 106.983 52.2127 106.983H41.379C40.3487 106.975 39.3346 106.927 38.3204 106.847C37.9663 106.823 37.6202 106.791 37.2661 106.743C36.4531 106.663 35.6563 106.551 34.8595 106.407C34.5053 106.35 34.1512 106.286 33.8051 106.214C33.1612 106.094 32.5173 105.942 31.8894 105.782C31.4468 105.67 31.0121 105.558 30.5775 105.43C30.2234 105.326 29.8692 105.222 29.5231 105.11C29.1448 104.998 28.7665 104.862 28.3882 104.734C27.7363 104.517 27.0924 104.269 26.4726 103.997C26.1265 103.869 25.8046 103.725 25.4665 103.581C25.4504 103.573 25.4343 103.565 25.4102 103.557C24.6777 103.245 23.9694 102.9 23.2612 102.532C22.899 102.348 22.5368 102.156 22.1907 101.956C21.8446 101.764 21.5065 101.572 21.1604 101.372C21.1524 101.364 21.1443 101.364 21.1363 101.356C20.5809 101.019 20.0416 100.675 19.5104 100.323C18.9631 99.9628 18.4238 99.5865 17.9087 99.2023C17.8926 99.1863 17.8845 99.1783 17.8684 99.1703C17.5223 98.9141 17.1924 98.65 16.8543 98.3938C16.7416 98.3058 16.6289 98.2177 16.5082 98.1217C16.0414 97.7455 15.5906 97.3612 15.1399 96.969C14.7536 96.6248 14.3672 96.2806 13.997 95.9204C13.9245 95.8483 13.8521 95.7923 13.7958 95.7203C13.4738 95.4081 13.1438 95.0799 12.8299 94.7597C12.8058 94.7277 12.7655 94.6957 12.7414 94.6636C12.4436 94.3515 12.1538 94.0233 11.8641 93.7111C11.526 93.3349 11.196 92.9506 10.866 92.5584C10.5843 92.2142 10.3026 91.87 10.0289 91.5098C9.94039 91.3897 9.8438 91.2696 9.75526 91.1496C9.55404 90.8854 9.36088 90.6212 9.17576 90.3491C9.00673 90.125 8.8538 89.9008 8.70087 89.6767C8.61233 89.5486 8.5238 89.4206 8.44331 89.2925C8.18575 88.9163 7.94429 88.532 7.70283 88.1398C7.48551 87.7956 7.26818 87.4514 7.06696 87.0912C6.84965 86.715 6.63233 86.3307 6.43111 85.9385C6.23794 85.5863 6.06086 85.2341 5.88379 84.8899C5.73086 84.6017 5.59403 84.3056 5.4572 84.0094C5.41696 83.9213 5.36867 83.8253 5.32842 83.7292C5.16745 83.377 5.02257 83.0248 4.86965 82.6806C4.70867 82.3044 4.55574 81.9121 4.40281 81.5279C4.27403 81.1757 4.14525 80.8235 4.02452 80.4793C3.88769 80.0951 3.75891 79.7108 3.63818 79.3266C3.53355 78.9824 3.42891 78.6382 3.32428 78.278C3.21964 77.8938 3.11501 77.5095 3.01842 77.1173C2.92184 76.7651 2.84135 76.4129 2.76087 76.0687C2.67233 75.6845 2.59184 75.3002 2.5194 74.916C2.44696 74.5638 2.39061 74.2116 2.32622 73.8674C2.26183 73.4912 2.21355 73.107 2.15721 72.7308V72.7147L2.01232 71.6661L1.85135 70.5054L1.70646 69.4568L1.54549 68.3042L1.40866 67.2555L1.33623 66.7352L1.24769 66.0868L1.1028 65.0382L0.94183 63.8855L0.805002 62.8369L0.644028 61.6842L0.5072 60.6356L0.346227 59.475L0.201342 58.4263L0.00012207 56.9375H92.3359V56.9135Z" fill="#936037"/>
<path d="M92.1352 58.4044L91.9983 59.453H0.322497L0.177612 58.4044H92.1352Z" fill="#724425"/>
<path d="M91.5559 62.8217L91.411 63.8702H0.918322L0.781494 62.8217H91.5559Z" fill="#724425"/>
<path d="M90.9582 67.2399L90.8214 68.2965H1.51195L1.37512 67.2399H90.9582Z" fill="#724425"/>
<path d="M90.3729 71.6692L90.228 72.7178H2.11779L1.9729 71.6692H90.3729Z" fill="#724425"/>
<path d="M89.7291 76.0785C89.6566 76.4307 89.5923 76.7829 89.5118 77.1271H2.97107C2.87448 76.7749 2.79399 76.4227 2.7135 76.0785H89.7291Z" fill="#724425"/>
<path d="M5.4178 54.2418L5.4178 82.8106C5.37755 82.7146 5.32927 82.6185 5.28902 82.5145C5.12805 82.1463 4.98316 81.778 4.83024 81.4098C4.66926 81.0096 4.51633 80.6013 4.3634 80.1931L4.3634 54.2418H5.4178Z" fill="#724425"/>
<path d="M9.70674 54.2429L9.70674 90.3441C9.50552 90.0639 9.31234 89.7918 9.12722 89.5036C8.9582 89.2635 8.80527 89.0313 8.65234 88.7912L8.65234 54.2349H9.70674V54.2429Z" fill="#724425"/>
<path d="M1.30403 54.2429L1.30403 64.577L1.21549 63.8966L1.07866 62.792L0.917687 61.5753L0.780858 60.4626L0.619885 59.2459L0.475 58.1412L0.322082 56.9165L0.249634 56.3642L0.249634 54.2429H1.30403Z" fill="#724425"/>
<path d="M17.8515 54.2418L17.8515 98.852C17.8354 98.836 17.8274 98.828 17.8113 98.812C17.4652 98.5478 17.1352 98.2677 16.7971 97.9875L16.7971 54.2338H17.8515V54.2418Z" fill="#724425"/>
<path d="M22.1423 54.2419L22.1423 101.758C21.7962 101.558 21.4581 101.35 21.112 101.142C21.104 101.134 21.0959 101.134 21.0879 101.126L21.0879 54.2499H22.1423V54.2419Z" fill="#724425"/>
<path d="M13.748 54.2418L13.748 95.1698C13.426 94.8416 13.096 94.4974 12.7821 94.1532C12.758 94.1132 12.7177 94.0892 12.6936 94.0491L12.6936 54.2338H13.748V54.2418Z" fill="#724425"/>
<path d="M30.5373 54.2406L30.5373 105.423C30.1832 105.311 29.829 105.199 29.4829 105.078L29.4829 54.2406H30.5373Z" fill="#724425"/>
<path d="M34.8202 54.2411L34.8202 106.448C34.4661 106.392 34.112 106.32 33.7659 106.248L33.7659 54.2411H34.8202Z" fill="#724425"/>
<path d="M26.4242 54.2415L26.4242 103.911C26.0781 103.775 25.7561 103.622 25.418 103.47C25.4019 103.462 25.3858 103.454 25.3617 103.446L25.3617 54.2494H26.4242V54.2415Z" fill="#724425"/>
<path d="M42.3939 54.2434H41.3395L41.3395 107.058H42.3939L42.3939 54.2434Z" fill="#724425"/>
<path d="M46.675 54.2433H45.6206L45.6206 107.058H46.675L46.675 54.2433Z" fill="#724425"/>
<path d="M38.281 54.2424L38.281 106.913C37.9268 106.889 37.5807 106.857 37.2266 106.801L37.2266 54.2424H38.281Z" fill="#724425"/>
<path d="M54.8275 54.2427L54.8275 106.954C54.4733 106.978 54.1192 107.01 53.7731 107.018L53.7731 54.2427H54.8275Z" fill="#724425"/>
<path d="M59.1182 54.2434L59.1182 106.394C58.7641 106.458 58.418 106.522 58.0638 106.578L58.0638 54.2434H59.1182Z" fill="#724425"/>
<path d="M50.7138 54.2438H49.6594L49.6594 107.059H50.7138L50.7138 54.2438Z" fill="#724425"/>
<path d="M67.0547 54.2411L67.0547 103.894C66.7086 104.062 66.3624 104.206 66.0002 104.343L66.0002 54.2411H67.0547Z" fill="#724425"/>
<path d="M71.336 54.2408L71.336 101.661C70.9819 101.869 70.6277 102.077 70.2816 102.277L70.2816 54.2408H71.336Z" fill="#724425"/>
<path d="M62.9411 54.2422L62.9411 105.44C62.587 105.552 62.2328 105.656 61.8867 105.744L61.8867 54.2422H62.9411Z" fill="#724425"/>
<path d="M79.0073 54.2428L79.0073 95.5311C78.6934 95.8593 78.3634 96.1795 78.0414 96.4916C78.0173 96.5157 77.977 96.5477 77.9529 96.5717L77.9529 54.2428H79.0073Z" fill="#724425"/>
<path d="M83.2962 54.2429L83.2962 90.2561C83.1996 90.4162 83.095 90.5683 82.9823 90.7284C82.7408 91.0806 82.4994 91.4088 82.2418 91.745L82.2418 54.2509H83.2962V54.2429Z" fill="#724425"/>
<path d="M88.1094 54.2415L88.1094 80.633C88.0209 80.8891 87.9324 81.1533 87.8358 81.4095C87.707 81.7777 87.5621 82.1539 87.4011 82.5141C87.2885 82.8023 87.1758 83.0824 87.047 83.3706L87.047 54.2415H88.1094V54.2415Z" fill="#724425"/>
<path d="M92.336 54.2423L92.1347 55.8112L91.9979 56.9159L91.845 58.1406L91.7001 59.2452L91.5552 60.4619L91.4103 61.5746L91.3379 62.1189V54.2423H92.336Z" fill="#724425"/>
<path d="M74.8943 54.2417L74.8943 99.2121C74.5482 99.4923 74.2022 99.7484 73.84 100.005L73.84 54.2417H74.8943Z" fill="#724425"/>
<path d="M88.6093 80.4983C88.5047 80.8505 88.3839 81.2027 88.2632 81.5469H4.36255C4.23377 81.1947 4.10498 80.8425 3.98425 80.4983H88.6093Z" fill="#724425"/>
<path d="M86.9032 84.9235C86.7342 85.2757 86.5652 85.6279 86.3962 85.9721H6.39107C6.1979 85.6199 6.02082 85.2677 5.84375 84.9235H86.9032Z" fill="#724425"/>
<path d="M84.4964 89.3333C84.271 89.6935 84.0296 90.0457 83.7962 90.3899H9.11941C8.95038 90.1657 8.79746 89.9416 8.64453 89.7175C8.55599 89.5894 8.46745 89.4613 8.38696 89.3333H84.4964Z" fill="#724425"/>
<path d="M81.2049 93.7529C80.9071 94.1131 80.5851 94.4654 80.2712 94.8016H12.774C12.7498 94.7695 12.7096 94.7375 12.6854 94.7055C12.3876 94.3933 12.0979 94.0651 11.8081 93.7529H81.2049Z" fill="#724425"/>
<path d="M76.7211 98.1804C76.2864 98.5406 75.8598 98.8928 75.4091 99.229H17.8119C17.4658 98.9729 17.1358 98.7087 16.7978 98.4526C16.6851 98.3645 16.5724 98.2765 16.4517 98.1804H76.7211Z" fill="#724425"/>
<path d="M70.129 102.601C69.4368 102.969 68.7204 103.321 67.9961 103.649H25.4179C25.4018 103.641 25.3857 103.633 25.3616 103.625C24.6291 103.313 23.9208 102.969 23.2125 102.601H70.129V102.601Z" fill="#724425"/>
<path d="M45.5882 12.1836C46.9484 12.1836 48.0511 11.0869 48.0511 9.73413C48.0511 8.38133 46.9484 7.28467 45.5882 7.28467C44.2279 7.28467 43.1252 8.38133 43.1252 9.73413C43.1252 11.0869 44.2279 12.1836 45.5882 12.1836Z" fill="#CE7D11"/>
<path d="M93.8266 85.1476C98.1385 85.1476 101.634 81.6712 101.634 77.383C101.634 73.0947 98.1385 69.6184 93.8266 69.6184C89.5148 69.6184 86.0193 73.0947 86.0193 77.383C86.0193 81.6712 89.5148 85.1476 93.8266 85.1476Z" fill="#E6332A"/>
<path d="M101.635 85.2617C105.947 85.2617 109.442 81.7854 109.442 77.4971C109.442 73.2088 105.947 69.7325 101.635 69.7325C97.3228 69.7325 93.8274 73.2088 93.8274 77.4971C93.8274 81.7854 97.3228 85.2617 101.635 85.2617Z" fill="#E6332A"/>
<path d="M109.444 85.3785C113.756 85.3785 117.251 81.9022 117.251 77.614C117.251 73.3257 113.756 69.8494 109.444 69.8494C105.132 69.8494 101.636 73.3257 101.636 77.614C101.636 81.9022 105.132 85.3785 109.444 85.3785Z" fill="#E6332A"/>
<path d="M117.25 85.4994C121.562 85.4994 125.058 82.0231 125.058 77.7348C125.058 73.4465 121.562 69.9702 117.25 69.9702C112.939 69.9702 109.443 73.4465 109.443 77.7348C109.443 82.0231 112.939 85.4994 117.25 85.4994Z" fill="#E6332A"/>
<path d="M123.367 85.5958C127.679 85.5958 131.175 82.1195 131.175 77.8312C131.175 73.543 127.679 70.0667 123.367 70.0667C119.055 70.0667 115.56 73.543 115.56 77.8312C115.56 82.1195 119.055 85.5958 123.367 85.5958Z" fill="#E6332A"/>
<path d="M117.379 78.024C118.712 78.024 119.793 76.9489 119.793 75.6226C119.793 74.2963 118.712 73.2212 117.379 73.2212C116.045 73.2212 114.964 74.2963 114.964 75.6226C114.964 76.9489 116.045 78.024 117.379 78.024Z" fill="#E6332A"/>
<path d="M92.7007 78.8668C97.0125 78.8668 100.508 75.3905 100.508 71.1022C100.508 66.814 97.0125 63.3376 92.7007 63.3376C88.3888 63.3376 84.8933 66.814 84.8933 71.1022C84.8933 75.3905 88.3888 78.8668 92.7007 78.8668Z" fill="#E6332A"/>
<path d="M100.51 78.9837C104.822 78.9837 108.318 75.5074 108.318 71.2191C108.318 66.9309 104.822 63.4546 100.51 63.4546C96.1983 63.4546 92.7029 66.9309 92.7029 71.2191C92.7029 75.5074 96.1983 78.9837 100.51 78.9837Z" fill="#E6332A"/>
<path d="M111.768 79.1024C116.08 79.1024 119.575 75.6261 119.575 71.3378C119.575 67.0495 116.08 63.5732 111.768 63.5732C107.456 63.5732 103.961 67.0495 103.961 71.3378C103.961 75.6261 107.456 79.1024 111.768 79.1024Z" fill="#E6332A"/>
<path d="M119.576 79.2166C123.888 79.2166 127.384 75.7403 127.384 71.4521C127.384 67.1638 123.888 63.6875 119.576 63.6875C115.264 63.6875 111.769 67.1638 111.769 71.4521C111.769 75.7403 115.264 79.2166 119.576 79.2166Z" fill="#E6332A"/>
<path d="M125.694 79.311C130.006 79.311 133.501 75.8347 133.501 71.5465C133.501 67.2582 130.006 63.7819 125.694 63.7819C121.382 63.7819 117.887 67.2582 117.887 71.5465C117.887 75.8347 121.382 79.311 125.694 79.311Z" fill="#E6332A"/>
<path d="M98.5372 64.7188C99.8708 64.7188 100.952 63.6437 100.952 62.3174C100.952 60.9912 99.8708 59.916 98.5372 59.916C97.2036 59.916 96.1226 60.9912 96.1226 62.3174C96.1226 63.6437 97.2036 64.7188 98.5372 64.7188Z" fill="#E6332A"/>
<path d="M124.921 77.3737C126.254 77.3737 127.335 76.2985 127.335 74.9722C127.335 73.646 126.254 72.5708 124.921 72.5708C123.587 72.5708 122.506 73.646 122.506 74.9722C122.506 76.2985 123.587 77.3737 124.921 77.3737Z" fill="#E6332A"/>
<path d="M129.967 83.361C134.279 83.361 137.774 79.8847 137.774 75.5965C137.774 71.3082 134.279 67.8319 129.967 67.8319C125.655 67.8319 122.16 71.3082 122.16 75.5965C122.16 79.8847 125.655 83.361 129.967 83.361Z" fill="#E6332A"/>
<path d="M137.776 83.4804C142.088 83.4804 145.584 80.0041 145.584 75.7159C145.584 71.4276 142.088 67.9513 137.776 67.9513C133.464 67.9513 129.969 71.4276 129.969 75.7159C129.969 80.0041 133.464 83.4804 137.776 83.4804Z" fill="#E6332A"/>
<path d="M145.582 83.601C149.894 83.601 153.39 80.1247 153.39 75.8365C153.39 71.5482 149.894 68.0719 145.582 68.0719C141.27 68.0719 137.775 71.5482 137.775 75.8365C137.775 80.1247 141.27 83.601 145.582 83.601Z" fill="#E6332A"/>
<path d="M153.397 83.7222C157.709 83.7222 161.204 80.2459 161.204 75.9577C161.204 71.6694 157.709 68.1931 153.397 68.1931C149.085 68.1931 145.589 71.6694 145.589 75.9577C145.589 80.2459 149.085 83.7222 153.397 83.7222Z" fill="#E6332A"/>
<path d="M159.507 83.8185C163.818 83.8185 167.314 80.3421 167.314 76.0539C167.314 71.7656 163.818 68.2893 159.507 68.2893C155.195 68.2893 151.699 71.7656 151.699 76.0539C151.699 80.3421 155.195 83.8185 159.507 83.8185Z" fill="#E6332A"/>
<path d="M128.373 75.726C132.685 75.726 136.18 72.2496 136.18 67.9614C136.18 63.6731 132.685 60.1968 128.373 60.1968C124.061 60.1968 120.565 63.6731 120.565 67.9614C120.565 72.2496 124.061 75.726 128.373 75.726Z" fill="#E6332A"/>
<path d="M136.182 75.8476C140.494 75.8476 143.989 72.3713 143.989 68.083C143.989 63.7948 140.494 60.3185 136.182 60.3185C131.87 60.3185 128.374 63.7948 128.374 68.083C128.374 72.3713 131.87 75.8476 136.182 75.8476Z" fill="#E6332A"/>
<path d="M143.996 75.9665C148.308 75.9665 151.804 72.4902 151.804 68.2019C151.804 63.9137 148.308 60.4374 143.996 60.4374C139.684 60.4374 136.189 63.9137 136.189 68.2019C136.189 72.4902 139.684 75.9665 143.996 75.9665Z" fill="#E6332A"/>
<path d="M157.912 76.1832C162.224 76.1832 165.719 72.7068 165.719 68.4186C165.719 64.1303 162.224 60.6541 157.912 60.6541C153.6 60.6541 150.104 64.1303 150.104 68.4186C150.104 72.7068 153.6 76.1832 157.912 76.1832Z" fill="#E6332A"/>
<path d="M132.028 64.1098C133.361 64.1098 134.443 63.0347 134.443 61.7084C134.443 60.3822 133.361 59.307 132.028 59.307C130.694 59.307 129.613 60.3822 129.613 61.7084C129.613 63.0347 130.694 64.1098 132.028 64.1098Z" fill="#E6332A"/>
<path d="M134.764 67.9118C139.076 67.9118 142.571 64.4354 142.571 60.1472C142.571 55.8589 139.076 52.3826 134.764 52.3826C130.452 52.3826 126.957 55.8589 126.957 60.1472C126.957 64.4354 130.452 67.9118 134.764 67.9118Z" fill="#E6332A"/>
<path d="M142.572 68.0332C146.884 68.0332 150.38 64.5569 150.38 60.2686C150.38 55.9804 146.884 52.504 142.572 52.504C138.26 52.504 134.765 55.9804 134.765 60.2686C134.765 64.5569 138.26 68.0332 142.572 68.0332Z" fill="#E6332A"/>
<path d="M98.5372 67.2343C102.849 67.2343 106.345 63.758 106.345 59.4698C106.345 55.1815 102.849 51.7052 98.5372 51.7052C94.2253 51.7052 90.7299 55.1815 90.7299 59.4698C90.7299 63.758 94.2253 67.2343 98.5372 67.2343Z" fill="#E6332A"/>
<path d="M106.344 67.3528C110.656 67.3528 114.151 63.8764 114.151 59.5882C114.151 55.2999 110.656 51.8236 106.344 51.8236C102.032 51.8236 98.5367 55.2999 98.5367 59.5882C98.5367 63.8764 102.032 67.3528 106.344 67.3528Z" fill="#E6332A"/>
<path d="M117.604 67.4721C121.916 67.4721 125.411 63.9958 125.411 59.7076C125.411 55.4193 121.916 51.943 117.604 51.943C113.292 51.943 109.796 55.4193 109.796 59.7076C109.796 63.9958 113.292 67.4721 117.604 67.4721Z" fill="#E6332A"/>
<path d="M123.721 67.571C128.033 67.571 131.528 64.0947 131.528 59.8064C131.528 55.5182 128.033 52.0419 123.721 52.0419C119.409 52.0419 115.913 55.5182 115.913 59.8064C115.913 64.0947 119.409 67.571 123.721 67.571Z" fill="#E6332A"/>
<path d="M106.867 57.0763C111.179 57.0763 114.675 53.5999 114.675 49.3117C114.675 45.0234 111.179 41.5471 106.867 41.5471C102.555 41.5471 99.0599 45.0234 99.0599 49.3117C99.0599 53.5999 102.555 57.0763 106.867 57.0763Z" fill="#E6332A"/>
<path d="M114.674 57.1947C118.986 57.1947 122.481 53.7183 122.481 49.4301C122.481 45.1418 118.986 41.6655 114.674 41.6655C110.362 41.6655 106.867 45.1418 106.867 49.4301C106.867 53.7183 110.362 57.1947 114.674 57.1947Z" fill="#E6332A"/>
<path d="M122.483 57.3138C126.795 57.3138 130.29 53.8375 130.29 49.5492C130.29 45.261 126.795 41.7847 122.483 41.7847C118.171 41.7847 114.675 45.261 114.675 49.5492C114.675 53.8375 118.171 57.3138 122.483 57.3138Z" fill="#E6332A"/>
<path d="M128.592 57.4004C132.904 57.4004 136.4 53.9241 136.4 49.6359C136.4 45.3477 132.904 41.8713 128.592 41.8713C124.281 41.8713 120.785 45.3477 120.785 49.6359C120.785 53.9241 124.281 57.4004 128.592 57.4004Z" fill="#E6332A"/>
<path d="M123.368 38.9431C124.701 38.9431 125.782 37.8679 125.782 36.5417C125.782 35.2154 124.701 34.1403 123.368 34.1403C122.034 34.1403 120.953 35.2154 120.953 36.5417C120.953 37.8679 122.034 38.9431 123.368 38.9431Z" fill="#E6332A"/>
<path d="M139.522 57.2578C143.833 57.2578 147.329 53.7815 147.329 49.4932C147.329 45.205 143.833 41.7286 139.522 41.7286C135.21 41.7286 131.714 45.205 131.714 49.4932C131.714 53.7815 135.21 57.2578 139.522 57.2578Z" fill="#E6332A"/>
<path d="M111.672 44.3072C115.984 44.3072 119.48 40.8309 119.48 36.5426C119.48 32.2544 115.984 28.7781 111.672 28.7781C107.361 28.7781 103.865 32.2544 103.865 36.5426C103.865 40.8309 107.361 44.3072 111.672 44.3072Z" fill="#E6332A"/>
<path d="M119.478 44.4278C123.79 44.4278 127.286 40.9515 127.286 36.6632C127.286 32.375 123.79 28.8987 119.478 28.8987C115.167 28.8987 111.671 32.375 111.671 36.6632C111.671 40.9515 115.167 44.4278 119.478 44.4278Z" fill="#E6332A"/>
<path d="M122.482 38.5767C126.794 38.5767 130.29 35.1004 130.29 30.8122C130.29 26.5239 126.794 23.0476 122.482 23.0476C118.171 23.0476 114.675 26.5239 114.675 30.8122C114.675 35.1004 118.171 38.5767 122.482 38.5767Z" fill="#E6332A"/>
<path d="M130.289 44.8017C134.601 44.8017 138.097 41.3254 138.097 37.0371C138.097 32.7489 134.601 29.2726 130.289 29.2726C125.978 29.2726 122.482 32.7489 122.482 37.0371C122.482 41.3254 125.978 44.8017 130.289 44.8017Z" fill="#E6332A"/>
<path d="M137.775 49.6394C142.087 49.6394 145.582 46.163 145.582 41.8748C145.582 37.5865 142.087 34.1102 137.775 34.1102C133.463 34.1102 129.968 37.5865 129.968 41.8748C129.968 46.163 133.463 49.6394 137.775 49.6394Z" fill="#E6332A"/>
<path d="M147.328 57.2584C151.64 57.2584 155.135 53.7821 155.135 49.4938C155.135 45.2056 151.64 41.7292 147.328 41.7292C143.016 41.7292 139.521 45.2056 139.521 49.4938C139.521 53.7821 143.016 57.2584 147.328 57.2584Z" fill="#E6332A"/>
<path d="M151.699 67.9118C156.011 67.9118 159.507 64.4354 159.507 60.1472C159.507 55.8589 156.011 52.3826 151.699 52.3826C147.388 52.3826 143.892 55.8589 143.892 60.1472C143.892 64.4354 147.388 67.9118 151.699 67.9118Z" fill="#E6332A"/>
<path d="M96.9412 75.5027C98.2748 75.5027 99.3559 74.4275 99.3559 73.1013C99.3559 71.775 98.2748 70.6998 96.9412 70.6998C95.6077 70.6998 94.5266 71.775 94.5266 73.1013C94.5266 74.4275 95.6077 75.5027 96.9412 75.5027Z" fill="#9A2143"/>
<path d="M89.7306 71.3317C91.0641 71.3317 92.1452 70.2566 92.1452 68.9303C92.1452 67.6041 91.0641 66.5289 89.7306 66.5289C88.397 66.5289 87.3159 67.6041 87.3159 68.9303C87.3159 70.2566 88.397 71.3317 89.7306 71.3317Z" fill="#9A2143"/>
<path d="M104.339 75.6141C105.673 75.6141 106.754 74.5389 106.754 73.2127C106.754 71.8864 105.673 70.8113 104.339 70.8113C103.006 70.8113 101.925 71.8864 101.925 73.2127C101.925 74.5389 103.006 75.6141 104.339 75.6141Z" fill="#9A2143"/>
<path d="M111.77 73.7393C113.103 73.7393 114.184 72.6642 114.184 71.3379C114.184 70.0117 113.103 68.9365 111.77 68.9365C110.436 68.9365 109.355 70.0117 109.355 71.3379C109.355 72.6642 110.436 73.7393 111.77 73.7393Z" fill="#9A2143"/>
<path d="M130.754 80.0006C132.087 80.0006 133.168 78.9254 133.168 77.5992C133.168 76.2729 132.087 75.1978 130.754 75.1978C129.42 75.1978 128.339 76.2729 128.339 77.5992C128.339 78.9254 129.42 80.0006 130.754 80.0006Z" fill="#9A2143"/>
<path d="M138.153 80.1121C139.486 80.1121 140.567 79.037 140.567 77.7107C140.567 76.3845 139.486 75.3093 138.153 75.3093C136.819 75.3093 135.738 76.3845 135.738 77.7107C135.738 79.037 136.819 80.1121 138.153 80.1121Z" fill="#9A2143"/>
<path d="M152.52 75.9166C153.854 75.9166 154.935 74.8414 154.935 73.5152C154.935 72.1889 153.854 71.1138 152.52 71.1138C151.186 71.1138 150.105 72.1889 150.105 73.5152C150.105 74.8414 151.186 75.9166 152.52 75.9166Z" fill="#9A2143"/>
<path d="M157.734 81.5532C159.068 81.5532 160.149 80.4781 160.149 79.1518C160.149 77.8255 159.068 76.7504 157.734 76.7504C156.401 76.7504 155.32 77.8255 155.32 79.1518C155.32 80.4781 156.401 81.5532 157.734 81.5532Z" fill="#9A2143"/>
<path d="M145.581 78.2417C146.915 78.2417 147.996 77.1665 147.996 75.8403C147.996 74.514 146.915 73.4388 145.581 73.4388C144.248 73.4388 143.167 74.514 143.167 75.8403C143.167 77.1665 144.248 78.2417 145.581 78.2417Z" fill="#9A2143"/>
<path d="M129.16 72.3633C130.494 72.3633 131.575 71.2881 131.575 69.9619C131.575 68.6356 130.494 67.5604 129.16 67.5604C127.827 67.5604 126.745 68.6356 126.745 69.9619C126.745 71.2881 127.827 72.3633 129.16 72.3633Z" fill="#9A2143"/>
<path d="M136.558 72.4771C137.892 72.4771 138.973 71.402 138.973 70.0757C138.973 68.7495 137.892 67.6743 136.558 67.6743C135.225 67.6743 134.144 68.7495 134.144 70.0757C134.144 71.402 135.225 72.4771 136.558 72.4771Z" fill="#9A2143"/>
<path d="M157.871 68.7636C159.205 68.7636 160.286 67.6885 160.286 66.3622C160.286 65.036 159.205 63.9608 157.871 63.9608C156.537 63.9608 155.456 65.036 155.456 66.3622C155.456 67.6885 156.537 68.7636 157.871 68.7636Z" fill="#9A2143"/>
<path d="M149.509 60.3509C150.843 60.3509 151.924 59.2758 151.924 57.9495C151.924 56.6232 150.843 55.5481 149.509 55.5481C148.176 55.5481 147.095 56.6232 147.095 57.9495C147.095 59.2758 148.176 60.3509 149.509 60.3509Z" fill="#9A2143"/>
<path d="M142.571 62.6688C143.904 62.6688 144.985 61.5936 144.985 60.2674C144.985 58.9411 143.904 57.866 142.571 57.866C141.237 57.866 140.156 58.9411 140.156 60.2674C140.156 61.5936 141.237 62.6688 142.571 62.6688Z" fill="#9A2143"/>
<path d="M116.734 61.3885C118.068 61.3885 119.149 60.3134 119.149 58.9871C119.149 57.6608 118.068 56.5857 116.734 56.5857C115.401 56.5857 114.32 57.6608 114.32 58.9871C114.32 60.3134 115.401 61.3885 116.734 61.3885Z" fill="#9A2143"/>
<path d="M129.652 61.5494C130.986 61.5494 132.067 60.4743 132.067 59.148C132.067 57.8217 130.986 56.7466 129.652 56.7466C128.319 56.7466 127.237 57.8217 127.237 59.148C127.237 60.4743 128.319 61.5494 129.652 61.5494Z" fill="#9A2143"/>
<path d="M109.797 61.9899C111.13 61.9899 112.211 60.9148 112.211 59.5885C112.211 58.2623 111.13 57.1871 109.797 57.1871C108.463 57.1871 107.382 58.2623 107.382 59.5885C107.382 60.9148 108.463 61.9899 109.797 61.9899Z" fill="#9A2143"/>
<path d="M97.1837 61.9902C98.5173 61.9902 99.5983 60.915 99.5983 59.5888C99.5983 58.2625 98.5173 57.1874 97.1837 57.1874C95.8501 57.1874 94.769 58.2625 94.769 59.5888C94.769 60.915 95.8501 61.9902 97.1837 61.9902Z" fill="#9A2143"/>
<path d="M121.612 49.5007C122.945 49.5007 124.026 48.4255 124.026 47.0993C124.026 45.773 122.945 44.6979 121.612 44.6979C120.278 44.6979 119.197 45.773 119.197 47.0993C119.197 48.4255 120.278 49.5007 121.612 49.5007Z" fill="#9A2143"/>
<path d="M114.674 51.8331C116.007 51.8331 117.088 50.7579 117.088 49.4317C117.088 48.1054 116.007 47.0303 114.674 47.0303C113.34 47.0303 112.259 48.1054 112.259 49.4317C112.259 50.7579 113.34 51.8331 114.674 51.8331Z" fill="#9A2143"/>
<path d="M108.815 40.4798C110.148 40.4798 111.229 39.4047 111.229 38.0784C111.229 36.7521 110.148 35.677 108.815 35.677C107.481 35.677 106.4 36.7521 106.4 38.0784C106.4 39.4047 107.481 40.4798 108.815 40.4798Z" fill="#9A2143"/>
<path d="M138.651 49.452C139.984 49.452 141.065 48.3768 141.065 47.0506C141.065 45.7243 139.984 44.6492 138.651 44.6492C137.317 44.6492 136.236 45.7243 136.236 47.0506C136.236 48.3768 137.317 49.452 138.651 49.452Z" fill="#9A2143"/>
<path d="M131.713 51.7749C133.047 51.7749 134.128 50.6998 134.128 49.3735C134.128 48.0472 133.047 46.972 131.713 46.972C130.379 46.972 129.298 48.0472 129.298 49.3735C129.298 50.6998 130.379 51.7749 131.713 51.7749Z" fill="#9A2143"/>
<path d="M124.613 34.6632C125.946 34.6632 127.027 33.588 127.027 32.2618C127.027 30.9355 125.946 29.8604 124.613 29.8604C123.279 29.8604 122.198 30.9355 122.198 32.2618C122.198 33.588 123.279 34.6632 124.613 34.6632Z" fill="#9A2143"/>
<path d="M170.998 73.4366L170.797 74.8934L170.668 75.926L170.515 77.0707L170.379 78.1033L170.234 79.24L170.097 80.2726L170.024 80.7769L169.936 81.4012L169.799 82.4338L169.654 83.5785L169.517 84.6111L169.365 85.7478L169.228 86.7804L169.083 87.9251L168.946 88.9577L168.801 90.0943L168.777 90.2544C168.745 90.5426 168.696 90.8308 168.648 91.119C168.6 91.4952 168.527 91.8714 168.455 92.2556C168.383 92.5998 168.318 92.944 168.238 93.2882C168.157 93.6724 168.069 94.0567 167.972 94.4329C167.884 94.7771 167.803 95.1213 167.706 95.4655C167.594 95.8417 167.481 96.2179 167.36 96.6022C167.256 96.9464 167.135 97.2906 167.022 97.6348C166.974 97.7708 166.918 97.9069 166.869 98.051C166.781 98.2912 166.7 98.5313 166.604 98.7714C166.475 99.1157 166.338 99.4678 166.177 99.804C166.064 100.068 165.952 100.34 165.831 100.605C165.791 100.725 165.734 100.837 165.686 100.949C165.525 101.293 165.356 101.637 165.187 101.981C164.994 102.358 164.809 102.734 164.6 103.118C164.406 103.462 164.221 103.814 164.012 104.151C163.787 104.535 163.561 104.919 163.328 105.287C163.103 105.639 162.869 105.984 162.636 106.328C162.483 106.56 162.314 106.792 162.145 107.024C162.048 107.168 161.943 107.312 161.831 107.465C161.597 107.793 161.356 108.097 161.106 108.409C161.082 108.433 161.066 108.473 161.034 108.497C160.728 108.881 160.422 109.266 160.092 109.634C159.803 109.986 159.489 110.33 159.175 110.666C158.813 111.051 158.45 111.435 158.08 111.811C158.032 111.851 157.983 111.907 157.935 111.947C157.621 112.259 157.307 112.548 156.985 112.844C156.961 112.868 156.921 112.892 156.897 112.924C156.503 113.284 156.1 113.636 155.69 113.98C155.263 114.333 154.844 114.677 154.402 115.013C154.241 115.141 154.072 115.261 153.903 115.381C153.565 115.637 153.219 115.877 152.864 116.118C152.848 116.126 152.84 116.134 152.824 116.142C152.309 116.502 151.778 116.846 151.247 117.174C150.973 117.342 150.691 117.51 150.418 117.663C150.072 117.863 149.725 118.047 149.379 118.239C149.331 118.263 149.283 118.287 149.234 118.319C148.55 118.679 147.85 119.023 147.142 119.352C146.828 119.488 146.53 119.624 146.208 119.744C145.87 119.896 145.524 120.032 145.17 120.168C144.896 120.28 144.606 120.384 144.325 120.488C143.616 120.744 142.9 120.976 142.176 121.193C141.83 121.297 141.483 121.393 141.137 121.473C141.089 121.489 141.041 121.505 140.992 121.513C140.147 121.729 139.294 121.913 138.425 122.073C138.079 122.137 137.733 122.193 137.387 122.241C136.34 122.401 135.286 122.521 134.215 122.593C133.869 122.617 133.523 122.641 133.177 122.657C132.654 122.682 132.131 122.69 131.608 122.69H120.975C119.961 122.682 118.971 122.641 117.981 122.553C117.635 122.529 117.289 122.505 116.943 122.449C116.146 122.369 115.365 122.257 114.584 122.121C114.238 122.073 113.892 122.001 113.546 121.929C112.918 121.809 112.282 121.665 111.663 121.505C111.228 121.393 110.801 121.281 110.375 121.161C110.029 121.057 109.683 120.952 109.337 120.84C108.966 120.728 108.596 120.6 108.226 120.472C107.59 120.256 106.954 120.016 106.342 119.752C106.004 119.624 105.682 119.488 105.36 119.336C105.344 119.328 105.328 119.32 105.312 119.312C104.596 118.999 103.896 118.671 103.203 118.303C102.849 118.119 102.495 117.935 102.149 117.735C101.811 117.542 101.473 117.358 101.135 117.158C101.127 117.15 101.119 117.15 101.111 117.142C100.563 116.814 100.04 116.47 99.509 116.126C98.9697 115.773 98.4465 115.405 97.9395 115.029C97.9234 115.013 97.9153 115.005 97.8992 114.997C97.5612 114.749 97.2312 114.493 96.9092 114.229C96.7965 114.14 96.6839 114.06 96.5712 113.964C96.1124 113.596 95.6697 113.22 95.2351 112.828C94.8568 112.492 94.4785 112.147 94.1082 111.795C94.0358 111.723 93.9714 111.667 93.907 111.595C93.5851 111.283 93.2712 110.971 92.9573 110.65C92.9331 110.618 92.8929 110.586 92.8687 110.554C92.579 110.242 92.2892 109.93 92.0075 109.618C91.6775 109.25 91.3475 108.873 91.0336 108.481C90.7599 108.145 90.4782 107.801 90.2126 107.449C90.1241 107.328 90.0275 107.216 89.947 107.096C89.7458 106.84 89.5607 106.584 89.3756 106.312C89.2146 106.088 89.0536 105.872 88.9087 105.647C88.8202 105.519 88.7397 105.399 88.6592 105.271C88.4097 104.903 88.1682 104.527 87.9348 104.135C87.7175 103.798 87.5082 103.454 87.3151 103.102C87.0977 102.734 86.8885 102.358 86.6953 101.965C86.5021 101.621 86.3331 101.277 86.156 100.933C86.0112 100.653 85.8743 100.356 85.7375 100.068C85.6972 99.9802 85.649 99.8841 85.6087 99.796C85.4558 99.4518 85.3028 99.1076 85.158 98.7634C85.005 98.3952 84.8441 98.011 84.6992 97.6268C84.5704 97.2826 84.4497 96.9384 84.3289 96.5942C84.1921 96.2179 84.0714 95.8417 83.9506 95.4575C83.846 95.1213 83.7414 94.7771 83.6368 94.4249C83.5321 94.0487 83.4275 93.6724 83.3309 93.2802C83.2343 92.936 83.1619 92.5918 83.0814 92.2476C82.9928 91.8714 82.9204 91.4952 82.848 91.1109C82.7755 90.7667 82.7192 90.4225 82.6548 90.0783C82.5904 89.7101 82.5421 89.3339 82.4938 88.9577V88.9417L82.357 87.9091L82.2041 86.7644L82.0672 85.7318L81.9143 84.5951L81.7775 83.5625L81.705 83.0582L81.6165 82.4258L81.4797 81.3932L81.3268 80.2566L81.1899 79.2239L81.037 78.0873L80.9002 77.0547L80.7472 75.91L80.6104 74.8774L80.4092 73.4205H170.998V73.4366Z" fill="#936037"/>
<path d="M170.804 74.8936L170.667 75.9262H80.7221L80.5773 74.8936H170.804Z" fill="#724425"/>
<path d="M170.233 79.2329L170.096 80.2655H81.302L81.1652 79.2329H170.233Z" fill="#724425"/>
<path d="M169.654 83.572L169.517 84.6047H81.8895L81.7527 83.572H169.654Z" fill="#724425"/>
<path d="M169.075 87.9091L168.938 88.9417H82.4777L82.3408 87.9091H169.075Z" fill="#724425"/>
<path d="M168.447 92.241C168.375 92.5852 168.31 92.9294 168.23 93.2736H83.3229C83.2263 92.9294 83.1539 92.5852 83.0734 92.241H168.447Z" fill="#724425"/>
<path d="M85.7216 70.8099L85.7216 98.8424C85.6813 98.7544 85.633 98.6503 85.5928 98.5543C85.4398 98.1941 85.2869 97.8339 85.142 97.4656C84.9891 97.0734 84.8281 96.6732 84.6832 96.2729L84.6832 70.8099H85.7216V70.8099Z" fill="#724425"/>
<path d="M89.9245 70.8101L89.9245 106.231C89.7233 105.959 89.5382 105.687 89.3531 105.406C89.1921 105.174 89.0311 104.942 88.8862 104.71L88.8862 70.8101H89.9245Z" fill="#724425"/>
<path d="M81.6901 70.8098V80.9518L81.6016 80.2874L81.4648 79.1987L81.3038 78.0061L81.167 76.9174L81.014 75.7247L80.8772 74.6361L80.7243 73.4354L80.6519 72.891V70.8098H81.6901Z" fill="#724425"/>
<path d="M97.9235 70.8118L97.9235 114.582C97.9075 114.566 97.8994 114.557 97.8833 114.541C97.5453 114.277 97.2153 114.005 96.8933 113.733L96.8933 70.8118H97.9235Z" fill="#724425"/>
<path d="M102.133 70.8114L102.133 117.431C101.795 117.231 101.457 117.031 101.119 116.822C101.111 116.814 101.103 116.814 101.095 116.806L101.095 70.8114H102.133V70.8114Z" fill="#724425"/>
<path d="M93.8912 70.8107L93.8912 110.97C93.5692 110.642 93.2553 110.306 92.9414 109.978C92.9173 109.938 92.8771 109.914 92.8529 109.882L92.8529 70.8187H93.8912V70.8107Z" fill="#724425"/>
<path d="M110.365 70.8131L110.365 121.035C110.019 120.923 109.673 120.818 109.327 120.698L109.327 70.8131H110.365Z" fill="#724425"/>
<path d="M114.569 70.8112L114.569 122.033C114.223 121.977 113.876 121.905 113.53 121.833L113.53 70.8112H114.569Z" fill="#724425"/>
<path d="M106.326 70.8131L106.326 119.546C105.988 119.41 105.666 119.266 105.344 119.114C105.328 119.106 105.312 119.097 105.295 119.089L105.295 70.8131H106.326Z" fill="#724425"/>
<path d="M121.997 70.8109H120.958L120.958 122.633H121.997L121.997 70.8109Z" fill="#724425"/>
<path d="M126.206 70.8109H125.167L125.167 122.633H126.206L126.206 70.8109Z" fill="#724425"/>
<path d="M117.965 70.8108L117.965 122.489C117.619 122.465 117.273 122.433 116.927 122.377L116.927 70.8108H117.965Z" fill="#724425"/>
<path d="M134.207 70.8129L134.207 122.531C133.861 122.555 133.515 122.587 133.169 122.595L133.169 70.8129H134.207Z" fill="#724425"/>
<path d="M138.408 70.8124L138.408 121.978C138.062 122.043 137.716 122.107 137.37 122.163L137.37 70.8124H138.408Z" fill="#724425"/>
<path d="M130.174 70.812H129.135L129.135 122.634H130.174L130.174 70.812Z" fill="#724425"/>
<path d="M146.192 70.8097L146.192 119.526C145.854 119.686 145.508 119.83 145.154 119.967L145.154 70.8097H146.192Z" fill="#724425"/>
<path d="M150.403 70.8103L150.403 117.334C150.057 117.542 149.711 117.742 149.365 117.942L149.365 70.8103H150.403Z" fill="#724425"/>
<path d="M142.16 70.8118L142.16 121.049C141.814 121.161 141.468 121.257 141.122 121.345L141.122 70.8118H142.16Z" fill="#724425"/>
<path d="M157.918 70.8107L157.918 111.322C157.605 111.651 157.291 111.955 156.969 112.267C156.945 112.291 156.904 112.323 156.88 112.347L156.88 70.8187H157.918V70.8107Z" fill="#724425"/>
<path d="M162.129 70.8113L162.129 106.144C162.033 106.296 161.928 106.448 161.815 106.608C161.582 106.953 161.34 107.281 161.091 107.601L161.091 70.8113H162.129Z" fill="#724425"/>
<path d="M166.854 70.8115V96.7067C166.765 96.9629 166.685 97.211 166.588 97.4672C166.459 97.8274 166.322 98.2036 166.162 98.5558C166.049 98.836 165.936 99.1161 165.815 99.3963V70.8115H166.854V70.8115Z" fill="#724425"/>
<path d="M170.998 70.8115L170.805 72.3484L170.668 73.4371L170.515 74.6378L170.378 75.7264L170.234 76.9191L170.097 78.0078L170.024 78.5441V70.8115H170.998Z" fill="#724425"/>
<path d="M153.887 70.8105L153.887 114.932C153.549 115.205 153.203 115.461 152.849 115.709L152.849 70.8105H153.887Z" fill="#724425"/>
<path d="M167.345 96.5778C167.241 96.922 167.12 97.2662 167.007 97.6104H84.6841C84.5553 97.2662 84.4346 96.922 84.3138 96.5778H167.345Z" fill="#724425"/>
<path d="M165.67 100.916C165.509 101.26 165.34 101.604 165.171 101.949H86.6715C86.4783 101.604 86.3093 101.26 86.1322 100.916H165.67Z" fill="#724425"/>
<path d="M163.312 105.249C163.087 105.601 162.853 105.946 162.62 106.29H89.3598C89.1988 106.066 89.0378 105.85 88.8929 105.625C88.8044 105.497 88.7239 105.377 88.6434 105.249H163.312Z" fill="#724425"/>
<path d="M160.084 109.587C159.794 109.939 159.48 110.283 159.166 110.62H92.9408C92.9167 110.587 92.8765 110.555 92.8523 110.523C92.5626 110.211 92.2728 109.899 91.9911 109.587H160.084Z" fill="#724425"/>
<path d="M155.672 113.924C155.246 114.277 154.827 114.621 154.385 114.957H97.8741C97.536 114.709 97.206 114.453 96.8841 114.189C96.7714 114.101 96.6587 114.02 96.546 113.924H155.672V113.924Z" fill="#724425"/>
<path d="M149.218 118.262C148.534 118.623 147.833 118.967 147.125 119.295H105.344C105.328 119.287 105.312 119.279 105.295 119.271C104.579 118.959 103.879 118.631 103.187 118.262H149.218V118.262Z" fill="#724425"/>
<path d="M54.0969 113.706C57.373 113.706 60.0288 111.065 60.0288 107.806C60.0288 104.548 57.373 101.907 54.0969 101.907C50.8207 101.907 48.1649 104.548 48.1649 107.806C48.1649 111.065 50.8207 113.706 54.0969 113.706Z" fill="#FFDE00"/>
<path d="M60.0283 113.795C63.3044 113.795 65.9603 111.154 65.9603 107.895C65.9603 104.637 63.3044 101.996 60.0283 101.996C56.7521 101.996 54.0963 104.637 54.0963 107.895C54.0963 111.154 56.7521 113.795 60.0283 113.795Z" fill="#FFDE00"/>
<path d="M65.9602 113.884C69.2363 113.884 71.8921 111.243 71.8921 107.984C71.8921 104.726 69.2363 102.085 65.9602 102.085C62.6841 102.085 60.0282 104.726 60.0282 107.984C60.0282 111.243 62.6841 113.884 65.9602 113.884Z" fill="#FFDE00"/>
<path d="M71.8925 113.976C75.1687 113.976 77.8245 111.334 77.8245 108.076C77.8245 104.818 75.1687 102.177 71.8925 102.177C68.6164 102.177 65.9606 104.818 65.9606 108.076C65.9606 111.334 68.6164 113.976 71.8925 113.976Z" fill="#FFDE00"/>
<path d="M76.5369 114.04C79.8131 114.04 82.4689 111.399 82.4689 108.141C82.4689 104.883 79.8131 102.242 76.5369 102.242C73.2608 102.242 70.605 104.883 70.605 108.141C70.605 111.399 73.2608 114.04 76.5369 114.04Z" fill="#FFDE00"/>
<path d="M71.9905 108.295C73.004 108.295 73.8256 107.478 73.8256 106.47C73.8256 105.462 73.004 104.645 71.9905 104.645C70.977 104.645 70.1554 105.462 70.1554 106.47C70.1554 107.478 70.977 108.295 71.9905 108.295Z" fill="#FFDE00"/>
<path d="M53.2441 108.927C56.5202 108.927 59.1761 106.286 59.1761 103.027C59.1761 99.7691 56.5202 97.1278 53.2441 97.1278C49.968 97.1278 47.3121 99.7691 47.3121 103.027C47.3121 106.286 49.968 108.927 53.2441 108.927Z" fill="#FFDE00"/>
<path d="M59.1749 109.025C62.451 109.025 65.1069 106.384 65.1069 103.126C65.1069 99.8675 62.451 97.2262 59.1749 97.2262C55.8987 97.2262 53.2429 99.8675 53.2429 103.126C53.2429 106.384 55.8987 109.025 59.1749 109.025Z" fill="#FFDE00"/>
<path d="M67.7321 109.109C71.0083 109.109 73.6641 106.468 73.6641 103.21C73.6641 99.9517 71.0083 97.3104 67.7321 97.3104C64.456 97.3104 61.8002 99.9517 61.8002 103.21C61.8002 106.468 64.456 109.109 67.7321 109.109Z" fill="#FFDE00"/>
<path d="M73.6633 109.198C76.9394 109.198 79.5953 106.557 79.5953 103.299C79.5953 100.041 76.9394 97.3993 73.6633 97.3993C70.3871 97.3993 67.7313 100.041 67.7313 103.299C67.7313 106.557 70.3871 109.198 73.6633 109.198Z" fill="#FFDE00"/>
<path d="M78.3078 109.273C81.584 109.273 84.2398 106.631 84.2398 103.373C84.2398 100.115 81.584 97.4738 78.3078 97.4738C75.0317 97.4738 72.3759 100.115 72.3759 103.373C72.3759 106.631 75.0317 109.273 78.3078 109.273Z" fill="#FFDE00"/>
<path d="M57.6776 98.1845C58.6912 98.1845 59.5128 97.3674 59.5128 96.3595C59.5128 95.3515 58.6912 94.5344 57.6776 94.5344C56.6641 94.5344 55.8425 95.3515 55.8425 96.3595C55.8425 97.3674 56.6641 98.1845 57.6776 98.1845Z" fill="#FFDE00"/>
<path d="M77.7203 107.799C78.7338 107.799 79.5554 106.982 79.5554 105.974C79.5554 104.966 78.7338 104.149 77.7203 104.149C76.7067 104.149 75.8851 104.966 75.8851 105.974C75.8851 106.982 76.7067 107.799 77.7203 107.799Z" fill="#FFDE00"/>
<path d="M81.5517 112.355C84.8279 112.355 87.4837 109.714 87.4837 106.456C87.4837 103.198 84.8279 100.556 81.5517 100.556C78.2756 100.556 75.6198 103.198 75.6198 106.456C75.6198 109.714 78.2756 112.355 81.5517 112.355Z" fill="#FFDE00"/>
<path d="M87.4814 112.443C90.7575 112.443 93.4134 109.802 93.4134 106.544C93.4134 103.286 90.7575 100.645 87.4814 100.645C84.2053 100.645 81.5494 103.286 81.5494 106.544C81.5494 109.802 84.2053 112.443 87.4814 112.443Z" fill="#FFDE00"/>
<path d="M93.4152 112.529C96.6914 112.529 99.3472 109.887 99.3472 106.629C99.3472 103.371 96.6914 100.73 93.4152 100.73C90.1391 100.73 87.4833 103.371 87.4833 106.629C87.4833 109.887 90.1391 112.529 93.4152 112.529Z" fill="#FFDE00"/>
<path d="M99.3471 112.625C102.623 112.625 105.279 109.984 105.279 106.726C105.279 103.467 102.623 100.826 99.3471 100.826C96.071 100.826 93.4152 103.467 93.4152 106.726C93.4152 109.984 96.071 112.625 99.3471 112.625Z" fill="#FFDE00"/>
<path d="M103.991 112.699C107.267 112.699 109.923 110.058 109.923 106.8C109.923 103.541 107.267 100.9 103.991 100.9C100.715 100.9 98.0592 103.541 98.0592 106.8C98.0592 110.058 100.715 112.699 103.991 112.699Z" fill="#FFDE00"/>
<path d="M80.3452 106.549C83.6213 106.549 86.2771 103.908 86.2771 100.65C86.2771 97.3915 83.6213 94.7502 80.3452 94.7502C77.069 94.7502 74.4132 97.3915 74.4132 100.65C74.4132 103.908 77.069 106.549 80.3452 106.549Z" fill="#FFDE00"/>
<path d="M86.2766 106.645C89.5527 106.645 92.2085 104.004 92.2085 100.746C92.2085 97.4877 89.5527 94.8464 86.2766 94.8464C83.0004 94.8464 80.3446 97.4877 80.3446 100.746C80.3446 104.004 83.0004 106.645 86.2766 106.645Z" fill="#FFDE00"/>
<path d="M92.208 106.734C95.4841 106.734 98.1399 104.093 98.1399 100.835C98.1399 97.5767 95.4841 94.9354 92.208 94.9354C88.9318 94.9354 86.276 97.5767 86.276 100.835C86.276 104.093 88.9318 106.734 92.208 106.734Z" fill="#FFDE00"/>
<path d="M102.775 106.892C106.051 106.892 108.707 104.251 108.707 100.993C108.707 97.7345 106.051 95.0933 102.775 95.0933C99.499 95.0933 96.8431 97.7345 96.8431 100.993C96.8431 104.251 99.499 106.892 102.775 106.892Z" fill="#FFDE00"/>
<path d="M83.1115 97.7288C84.125 97.7288 84.9466 96.9117 84.9466 95.9037C84.9466 94.8957 84.125 94.0786 83.1115 94.0786C82.098 94.0786 81.2764 94.8957 81.2764 95.9037C81.2764 96.9117 82.098 97.7288 83.1115 97.7288Z" fill="#FFDE00"/>
<path d="M85.197 100.617C88.4731 100.617 91.1289 97.9755 91.1289 94.7173C91.1289 91.4591 88.4731 88.8179 85.197 88.8179C81.9208 88.8179 79.265 91.4591 79.265 94.7173C79.265 97.9755 81.9208 100.617 85.197 100.617Z" fill="#FFDE00"/>
<path d="M91.1301 100.706C94.4062 100.706 97.0621 98.065 97.0621 94.8068C97.0621 91.5486 94.4062 88.9073 91.1301 88.9073C87.8539 88.9073 85.1981 91.5486 85.1981 94.8068C85.1981 98.065 87.8539 100.706 91.1301 100.706Z" fill="#FFDE00"/>
<path d="M57.6768 100.1C60.953 100.1 63.6088 97.4582 63.6088 94.2C63.6088 90.9418 60.953 88.3005 57.6768 88.3005C54.4007 88.3005 51.7449 90.9418 51.7449 94.2C51.7449 97.4582 54.4007 100.1 57.6768 100.1Z" fill="#FFDE00"/>
<path d="M63.603 100.194C66.8791 100.194 69.535 97.5526 69.535 94.2944C69.535 91.0362 66.8791 88.3949 63.603 88.3949C60.3268 88.3949 57.671 91.0362 57.671 94.2944C57.671 97.5526 60.3268 100.194 63.603 100.194Z" fill="#FFDE00"/>
<path d="M72.1577 100.282C75.4338 100.282 78.0896 97.6406 78.0896 94.3824C78.0896 91.1242 75.4338 88.4829 72.1577 88.4829C68.8815 88.4829 66.2257 91.1242 66.2257 94.3824C66.2257 97.6406 68.8815 100.282 72.1577 100.282Z" fill="#FFDE00"/>
<path d="M76.8024 100.352C80.0785 100.352 82.7343 97.7102 82.7343 94.4521C82.7343 91.1939 80.0785 88.5526 76.8024 88.5526C73.5262 88.5526 70.8704 91.1939 70.8704 94.4521C70.8704 97.7102 73.5262 100.352 76.8024 100.352Z" fill="#FFDE00"/>
<path d="M64.005 92.3824C67.2811 92.3824 69.9369 89.7412 69.9369 86.483C69.9369 83.2248 67.2811 80.5835 64.005 80.5835C60.7288 80.5835 58.073 83.2248 58.073 86.483C58.073 89.7412 60.7288 92.3824 64.005 92.3824Z" fill="#FFDE00"/>
<path d="M69.9371 92.4692C73.2133 92.4692 75.8691 89.8279 75.8691 86.5697C75.8691 83.3116 73.2133 80.6703 69.9371 80.6703C66.661 80.6703 64.0051 83.3116 64.0051 86.5697C64.0051 89.8279 66.661 92.4692 69.9371 92.4692Z" fill="#FFDE00"/>
<path d="M75.8683 92.5581C79.1445 92.5581 81.8003 89.9168 81.8003 86.6586C81.8003 83.4004 79.1445 80.7592 75.8683 80.7592C72.5922 80.7592 69.9364 83.4004 69.9364 86.6586C69.9364 89.9168 72.5922 92.5581 75.8683 92.5581Z" fill="#FFDE00"/>
<path d="M80.5053 92.6276C83.7814 92.6276 86.4373 89.9863 86.4373 86.7281C86.4373 83.4699 83.7814 80.8286 80.5053 80.8286C77.2292 80.8286 74.5734 83.4699 74.5734 86.7281C74.5734 89.9863 77.2292 92.6276 80.5053 92.6276Z" fill="#FFDE00"/>
<path d="M76.537 78.6064C77.5505 78.6064 78.3722 77.7893 78.3722 76.7814C78.3722 75.7734 77.5505 74.9563 76.537 74.9563C75.5235 74.9563 74.7019 75.7734 74.7019 76.7814C74.7019 77.7893 75.5235 78.6064 76.537 78.6064Z" fill="#FFDE00"/>
<path d="M88.804 92.5263C92.0802 92.5263 94.736 89.8851 94.736 86.6269C94.736 83.3687 92.0802 80.7274 88.804 80.7274C85.5279 80.7274 82.8721 83.3687 82.8721 86.6269C82.8721 89.8851 85.5279 92.5263 88.804 92.5263Z" fill="#FFDE00"/>
<path d="M67.65 82.6779C70.9261 82.6779 73.582 80.0366 73.582 76.7784C73.582 73.5202 70.9261 70.8789 67.65 70.8789C64.3738 70.8789 61.718 73.5202 61.718 76.7784C61.718 80.0366 64.3738 82.6779 67.65 82.6779Z" fill="#FFDE00"/>
<path d="M73.583 82.7769C76.8591 82.7769 79.5149 80.1357 79.5149 76.8775C79.5149 73.6193 76.8591 70.978 73.583 70.978C70.3069 70.978 67.651 73.6193 67.651 76.8775C67.651 80.1357 70.3069 82.7769 73.583 82.7769Z" fill="#FFDE00"/>
<path d="M75.868 78.3259C79.1441 78.3259 81.7999 75.6846 81.7999 72.4264C81.7999 69.1683 79.1441 66.527 75.868 66.527C72.5919 66.527 69.936 69.1683 69.936 72.4264C69.936 75.6846 72.5919 78.3259 75.868 78.3259Z" fill="#FFDE00"/>
<path d="M81.8005 83.0544C85.0766 83.0544 87.7325 80.4131 87.7325 77.1549C87.7325 73.8968 85.0766 71.2555 81.8005 71.2555C78.5244 71.2555 75.8685 73.8968 75.8685 77.1549C75.8685 80.4131 78.5244 83.0544 81.8005 83.0544Z" fill="#FFDE00"/>
<path d="M87.4818 86.731C90.7579 86.731 93.4137 84.0898 93.4137 80.8316C93.4137 77.5734 90.7579 74.9321 87.4818 74.9321C84.2056 74.9321 81.5498 77.5734 81.5498 80.8316C81.5498 84.0898 84.2056 86.731 87.4818 86.731Z" fill="#FFDE00"/>
<path d="M94.7357 92.5264C98.0118 92.5264 100.668 89.8852 100.668 86.627C100.668 83.3688 98.0118 80.7275 94.7357 80.7275C91.4596 80.7275 88.8037 83.3688 88.8037 86.627C88.8037 89.8852 91.4596 92.5264 94.7357 92.5264Z" fill="#FFDE00"/>
<path d="M98.0596 100.618C101.336 100.618 103.992 97.9771 103.992 94.7189C103.992 91.4607 101.336 88.8195 98.0596 88.8195C94.7835 88.8195 92.1277 91.4607 92.1277 94.7189C92.1277 97.9771 94.7835 100.618 98.0596 100.618Z" fill="#FFDE00"/>
<path d="M57.7013 104.737C58.7149 104.737 59.5365 103.92 59.5365 102.912C59.5365 101.904 58.7149 101.087 57.7013 101.087C56.6878 101.087 55.8662 101.904 55.8662 102.912C55.8662 103.92 56.6878 104.737 57.7013 104.737Z" fill="#C9AE0F"/>
<path d="M52.2209 101.573C53.2344 101.573 54.056 100.755 54.056 99.7474C54.056 98.7395 53.2344 97.9224 52.2209 97.9224C51.2074 97.9224 50.3857 98.7395 50.3857 99.7474C50.3857 100.755 51.2074 101.573 52.2209 101.573Z" fill="#C9AE0F"/>
<path d="M63.3213 104.82C64.3348 104.82 65.1565 104.003 65.1565 102.995C65.1565 101.987 64.3348 101.17 63.3213 101.17C62.3078 101.17 61.4862 101.987 61.4862 102.995C61.4862 104.003 62.3078 104.82 63.3213 104.82Z" fill="#C9AE0F"/>
<path d="M68.9638 103.397C69.9773 103.397 70.7989 102.58 70.7989 101.572C70.7989 100.564 69.9773 99.7469 68.9638 99.7469C67.9503 99.7469 67.1287 100.564 67.1287 101.572C67.1287 102.58 67.9503 103.397 68.9638 103.397Z" fill="#C9AE0F"/>
<path d="M83.3853 108.154C84.3988 108.154 85.2204 107.337 85.2204 106.329C85.2204 105.321 84.3988 104.504 83.3853 104.504C82.3718 104.504 81.5502 105.321 81.5502 106.329C81.5502 107.337 82.3718 108.154 83.3853 108.154Z" fill="#C9AE0F"/>
<path d="M89.0044 108.24C90.018 108.24 90.8396 107.423 90.8396 106.415C90.8396 105.407 90.018 104.589 89.0044 104.589C87.9909 104.589 87.1693 105.407 87.1693 106.415C87.1693 107.423 87.9909 108.24 89.0044 108.24Z" fill="#C9AE0F"/>
<path d="M99.9184 105.047C100.932 105.047 101.753 104.23 101.753 103.222C101.753 102.214 100.932 101.396 99.9184 101.396C98.9049 101.396 98.0833 102.214 98.0833 103.222C98.0833 104.23 98.9049 105.047 99.9184 105.047Z" fill="#C9AE0F"/>
<path d="M103.878 109.326C104.891 109.326 105.713 108.509 105.713 107.501C105.713 106.493 104.891 105.676 103.878 105.676C102.864 105.676 102.043 106.493 102.043 107.501C102.043 108.509 102.864 109.326 103.878 109.326Z" fill="#C9AE0F"/>
<path d="M94.6475 106.817C95.661 106.817 96.4826 105.999 96.4826 104.991C96.4826 103.983 95.661 103.166 94.6475 103.166C93.634 103.166 92.8124 103.983 92.8124 104.991C92.8124 105.999 93.634 106.817 94.6475 106.817Z" fill="#C9AE0F"/>
<path d="M82.1706 102.357C83.1841 102.357 84.0057 101.54 84.0057 100.532C84.0057 99.5239 83.1841 98.7068 82.1706 98.7068C81.1571 98.7068 80.3354 99.5239 80.3354 100.532C80.3354 101.54 81.1571 102.357 82.1706 102.357Z" fill="#C9AE0F"/>
<path d="M87.7976 102.438C88.8112 102.438 89.6328 101.621 89.6328 100.613C89.6328 99.6053 88.8112 98.7882 87.7976 98.7882C86.7841 98.7882 85.9625 99.6053 85.9625 100.613C85.9625 101.621 86.7841 102.438 87.7976 102.438Z" fill="#C9AE0F"/>
<path d="M103.983 99.6178C104.997 99.6178 105.818 98.8007 105.818 97.7927C105.818 96.7848 104.997 95.9677 103.983 95.9677C102.97 95.9677 102.148 96.7848 102.148 97.7927C102.148 98.8007 102.97 99.6178 103.983 99.6178Z" fill="#C9AE0F"/>
<path d="M97.6315 93.2239C98.645 93.2239 99.4666 92.4068 99.4666 91.3988C99.4666 90.3908 98.645 89.5737 97.6315 89.5737C96.618 89.5737 95.7964 90.3908 95.7964 91.3988C95.7964 92.4068 96.618 93.2239 97.6315 93.2239Z" fill="#C9AE0F"/>
<path d="M92.3624 94.9919C93.3759 94.9919 94.1975 94.1748 94.1975 93.1669C94.1975 92.1589 93.3759 91.3418 92.3624 91.3418C91.3488 91.3418 90.5272 92.1589 90.5272 93.1669C90.5272 94.1748 91.3488 94.9919 92.3624 94.9919Z" fill="#C9AE0F"/>
<path d="M72.7367 94.0152C73.7503 94.0152 74.5719 93.198 74.5719 92.1901C74.5719 91.1821 73.7503 90.365 72.7367 90.365C71.7232 90.365 70.9016 91.1821 70.9016 92.1901C70.9016 93.198 71.7232 94.0152 72.7367 94.0152Z" fill="#C9AE0F"/>
<path d="M82.5417 94.1357C83.5552 94.1357 84.3768 93.3186 84.3768 92.3107C84.3768 91.3027 83.5552 90.4856 82.5417 90.4856C81.5282 90.4856 80.7065 91.3027 80.7065 92.3107C80.7065 93.3186 81.5282 94.1357 82.5417 94.1357Z" fill="#C9AE0F"/>
<path d="M67.4675 94.4721C68.481 94.4721 69.3026 93.6549 69.3026 92.647C69.3026 91.639 68.481 90.8219 67.4675 90.8219C66.4539 90.8219 65.6323 91.639 65.6323 92.647C65.6323 93.6549 66.4539 94.4721 67.4675 94.4721Z" fill="#C9AE0F"/>
<path d="M57.8898 94.4704C58.9033 94.4704 59.7249 93.6532 59.7249 92.6453C59.7249 91.6373 58.9033 90.8202 57.8898 90.8202C56.8763 90.8202 56.0547 91.6373 56.0547 92.6453C56.0547 93.6532 56.8763 94.4704 57.8898 94.4704Z" fill="#C9AE0F"/>
<path d="M76.4401 84.9873C77.4536 84.9873 78.2752 84.1702 78.2752 83.1622C78.2752 82.1543 77.4536 81.3372 76.4401 81.3372C75.4266 81.3372 74.605 82.1543 74.605 83.1622C74.605 84.1702 75.4266 84.9873 76.4401 84.9873Z" fill="#C9AE0F"/>
<path d="M71.167 86.754C72.1806 86.754 73.0022 85.9369 73.0022 84.9289C73.0022 83.921 72.1806 83.1039 71.167 83.1039C70.1535 83.1039 69.3319 83.921 69.3319 84.9289C69.3319 85.9369 70.1535 86.754 71.167 86.754Z" fill="#C9AE0F"/>
<path d="M66.7171 78.1371C67.7306 78.1371 68.5522 77.32 68.5522 76.312C68.5522 75.3041 67.7306 74.4869 66.7171 74.4869C65.7036 74.4869 64.882 75.3041 64.882 76.312C64.882 77.32 65.7036 78.1371 66.7171 78.1371Z" fill="#C9AE0F"/>
<path d="M89.3818 84.9552C90.3953 84.9552 91.2169 84.1381 91.2169 83.1301C91.2169 82.1222 90.3953 81.3051 89.3818 81.3051C88.3682 81.3051 87.5466 82.1222 87.5466 83.1301C87.5466 84.1381 88.3682 84.9552 89.3818 84.9552Z" fill="#C9AE0F"/>
<path d="M84.1121 86.716C85.1256 86.716 85.9472 85.8988 85.9472 84.8909C85.9472 83.8829 85.1256 83.0658 84.1121 83.0658C83.0986 83.0658 82.277 83.8829 82.277 84.8909C82.277 85.8988 83.0986 86.716 84.1121 86.716Z" fill="#C9AE0F"/>
<path d="M78.7172 73.7163C79.7307 73.7163 80.5523 72.8992 80.5523 71.8912C80.5523 70.8833 79.7307 70.0662 78.7172 70.0662C77.7037 70.0662 76.8821 70.8833 76.8821 71.8912C76.8821 72.8992 77.7037 73.7163 78.7172 73.7163Z" fill="#C9AE0F"/>
<path d="M113.216 101.61L113.063 102.723L112.967 103.507L112.846 104.372L112.741 105.156L112.628 106.021L112.524 106.805L112.467 107.19L112.403 107.67L112.298 108.454L112.186 109.319L112.081 110.103L111.96 110.968L111.856 111.752L111.743 112.617L111.638 113.401L111.526 114.266L111.51 114.386C111.486 114.61 111.453 114.826 111.413 115.042C111.373 115.33 111.325 115.619 111.268 115.907C111.212 116.171 111.164 116.427 111.107 116.691C111.051 116.987 110.978 117.276 110.906 117.556C110.842 117.82 110.777 118.076 110.705 118.34C110.616 118.628 110.536 118.916 110.439 119.205C110.359 119.469 110.27 119.725 110.182 119.989C110.141 120.093 110.101 120.197 110.061 120.301C109.996 120.485 109.932 120.67 109.86 120.846C109.763 121.11 109.658 121.374 109.538 121.63C109.449 121.83 109.369 122.038 109.272 122.238C109.24 122.326 109.2 122.415 109.159 122.503C109.039 122.767 108.91 123.023 108.781 123.287C108.636 123.575 108.491 123.863 108.338 124.152C108.194 124.416 108.049 124.68 107.896 124.936C107.727 125.232 107.558 125.52 107.381 125.801C107.212 126.065 107.035 126.329 106.857 126.593C106.737 126.769 106.616 126.945 106.487 127.121C106.415 127.233 106.334 127.345 106.254 127.457C106.077 127.706 105.892 127.938 105.706 128.178C105.69 128.194 105.674 128.226 105.65 128.242C105.417 128.538 105.183 128.826 104.934 129.106C104.708 129.371 104.475 129.635 104.242 129.891C103.968 130.187 103.694 130.475 103.405 130.755C103.364 130.787 103.332 130.827 103.292 130.859C103.058 131.092 102.809 131.316 102.567 131.54C102.551 131.556 102.519 131.58 102.503 131.596C102.205 131.868 101.899 132.14 101.585 132.396C101.264 132.661 100.942 132.925 100.612 133.181C100.491 133.277 100.362 133.373 100.233 133.461C99.9757 133.653 99.7182 133.837 99.4445 134.021C99.4284 134.029 99.4284 134.037 99.4123 134.037C99.0179 134.31 98.6155 134.574 98.213 134.822C98.0038 134.95 97.7945 135.078 97.5852 135.19C97.3196 135.342 97.0621 135.486 96.7965 135.63C96.7562 135.646 96.724 135.67 96.6838 135.686C96.1687 135.958 95.6374 136.223 95.0982 136.471C94.8647 136.575 94.6313 136.679 94.3899 136.767C94.1323 136.887 93.8748 136.991 93.6011 137.087C93.3918 137.175 93.1745 137.247 92.9572 137.327C92.4179 137.519 91.8786 137.695 91.3233 137.864C91.0577 137.944 90.8001 138.016 90.5345 138.08C90.4943 138.096 90.4621 138.104 90.4218 138.112C89.7779 138.272 89.126 138.416 88.474 138.536C88.2084 138.584 87.9508 138.624 87.6852 138.664C86.8884 138.784 86.0916 138.88 85.2786 138.928C85.013 138.944 84.7555 138.968 84.4899 138.976C84.0874 138.992 83.693 139 83.2986 139H75.2257C74.461 138.992 73.7045 138.96 72.9479 138.896C72.6823 138.88 72.4247 138.856 72.1591 138.816C71.5554 138.76 70.9598 138.672 70.3642 138.568C70.0986 138.528 69.841 138.48 69.5754 138.424C69.0925 138.336 68.6176 138.224 68.1427 138.104C67.8127 138.016 67.4827 137.936 67.1688 137.84C66.9032 137.76 66.6457 137.68 66.3801 137.599C66.0983 137.511 65.8166 137.415 65.5349 137.319C65.052 137.159 64.5691 136.975 64.1023 136.775C63.8447 136.679 63.6032 136.575 63.3537 136.463C63.3376 136.455 63.3296 136.447 63.3135 136.447C62.7661 136.215 62.2349 135.958 61.7118 135.686C61.4461 135.55 61.1725 135.406 60.9149 135.254C60.6573 135.11 60.3998 134.966 60.1503 134.814C60.1422 134.806 60.1342 134.806 60.1342 134.798C59.7237 134.55 59.3213 134.285 58.9188 134.029C58.5083 133.765 58.1139 133.485 57.7276 133.197C57.7115 133.181 57.7115 133.181 57.6954 133.173C57.4378 132.981 57.1883 132.789 56.9388 132.589C56.8503 132.524 56.7698 132.46 56.6813 132.388C56.3352 132.108 55.9971 131.82 55.6671 131.524C55.3773 131.268 55.0876 131.012 54.8139 130.739C54.7576 130.683 54.7093 130.643 54.661 130.587C54.4195 130.355 54.1781 130.107 53.9366 129.867C53.9205 129.843 53.8883 129.819 53.8722 129.795C53.6468 129.563 53.4295 129.315 53.2122 129.082C52.9627 128.802 52.7132 128.514 52.4717 128.218C52.2625 127.962 52.0532 127.706 51.852 127.433C51.7876 127.345 51.7151 127.257 51.6508 127.169C51.4978 126.977 51.3529 126.777 51.2161 126.577C51.0954 126.409 50.9746 126.241 50.862 126.073C50.7976 125.977 50.7332 125.881 50.6688 125.785C50.4756 125.504 50.2985 125.216 50.1215 124.92C49.9605 124.664 49.7995 124.408 49.6466 124.136C49.4856 123.855 49.3246 123.567 49.1717 123.271C49.0268 123.007 48.898 122.751 48.7612 122.487C48.6485 122.27 48.5439 122.046 48.4473 121.83C48.4151 121.766 48.3829 121.694 48.3507 121.622C48.23 121.358 48.1173 121.102 48.0127 120.838C47.892 120.557 47.7793 120.261 47.6666 119.973C47.57 119.709 47.4734 119.453 47.3849 119.189C47.2802 118.9 47.1917 118.612 47.0951 118.324C47.0146 118.068 46.9341 117.812 46.8617 117.54C46.7812 117.251 46.7007 116.963 46.6283 116.675C46.5558 116.411 46.4995 116.155 46.4351 115.891C46.3707 115.603 46.3144 115.314 46.2581 115.026C46.2017 114.762 46.1615 114.506 46.1132 114.242C46.0649 113.962 46.0246 113.673 45.9925 113.393V113.377L45.8878 112.593L45.7671 111.728L45.6624 110.944L45.5417 110.079L45.4371 109.295L45.3807 108.911L45.3163 108.43L45.2117 107.646L45.091 106.781L44.9864 105.997L44.8656 105.132L44.761 104.348L44.6402 103.483L44.5356 102.699L44.3827 101.586H113.216V101.61Z" fill="#936037"/>
<path d="M113.063 102.717L112.966 103.502H44.632L44.5273 102.717H113.063Z" fill="#724425"/>
<path d="M112.626 106.014L112.522 106.799H45.081L44.9763 106.014H112.626Z" fill="#724425"/>
<path d="M112.195 109.303L112.09 110.087H45.5266L45.422 109.303H112.195Z" fill="#724425"/>
<path d="M111.75 112.602L111.646 113.387H45.9755L45.8708 112.602H111.75Z" fill="#724425"/>
<path d="M111.267 115.891C111.21 116.156 111.162 116.412 111.106 116.676H46.6108C46.5383 116.412 46.482 116.156 46.4176 115.891H111.267Z" fill="#724425"/>
<path d="M48.4297 99.6179L48.4297 120.91C48.3976 120.838 48.3654 120.766 48.3333 120.694C48.2127 120.422 48.1002 120.142 47.9957 119.87C47.8751 119.574 47.7626 119.261 47.65 118.965L47.65 99.6259H48.4297V99.6179Z" fill="#724425"/>
<path d="M51.626 99.6182L51.626 126.53C51.473 126.322 51.3282 126.114 51.1913 125.906C51.0706 125.73 50.9498 125.553 50.8372 125.377L50.8372 99.6262H51.626V99.6182Z" fill="#724425"/>
<path d="M45.3721 99.6183V107.319L45.3078 106.814L45.2031 105.99L45.0824 105.077L44.9778 104.253L44.857 103.348L44.7524 102.524L44.6317 101.611L44.5834 101.195V99.6183H45.3721Z" fill="#724425"/>
<path d="M57.7032 99.6161L57.7032 132.86C57.6871 132.844 57.6871 132.836 57.671 132.836C57.4134 132.635 57.1639 132.427 56.9144 132.227L56.9144 99.6241H57.7032V99.6161Z" fill="#724425"/>
<path d="M60.8969 99.6172L60.8969 135.03C60.6397 134.878 60.3824 134.726 60.1333 134.566C60.1252 134.558 60.1172 134.558 60.1172 134.55L60.1172 99.6172H60.8969Z" fill="#724425"/>
<path d="M54.6435 99.619L54.6435 130.125C54.4021 129.877 54.1606 129.621 53.9191 129.372C53.903 129.348 53.8708 129.324 53.8547 129.3L53.8547 99.627H54.6435V99.619Z" fill="#724425"/>
<path d="M67.152 99.6174L67.152 137.76C66.8864 137.68 66.6289 137.592 66.3633 137.504L66.3633 99.6094H67.152V99.6174Z" fill="#724425"/>
<path d="M70.3472 99.6173L70.3472 138.528C70.0816 138.488 69.8241 138.432 69.5585 138.376L69.5585 99.6173H70.3472V99.6173Z" fill="#724425"/>
<path d="M64.0858 99.6171L64.0858 136.639C63.8282 136.535 63.5867 136.423 63.3372 136.311C63.3211 136.303 63.3131 136.295 63.297 136.287L63.297 99.6171H64.0858V99.6171Z" fill="#724425"/>
<path d="M75.9896 99.6179H75.2008L75.2008 138.977H75.9896L75.9896 99.6179Z" fill="#724425"/>
<path d="M79.1855 99.6166H78.3967L78.3967 138.976H79.1855L79.1855 99.6166Z" fill="#724425"/>
<path d="M72.9315 99.6167L72.9315 138.872C72.6659 138.848 72.4083 138.832 72.1427 138.792L72.1427 99.6247H72.9315V99.6167Z" fill="#724425"/>
<path d="M85.2609 99.6187L85.2609 138.906C84.9953 138.93 84.7378 138.946 84.4722 138.954L84.4722 99.6187H85.2609Z" fill="#724425"/>
<path d="M88.4585 99.6179L88.4585 138.489C88.1928 138.537 87.9353 138.585 87.6697 138.625L87.6697 99.6179H88.4585Z" fill="#724425"/>
<path d="M82.2045 99.618H81.4156L81.4156 138.977H82.2045L82.2045 99.618Z" fill="#724425"/>
<path d="M94.373 99.6167L94.373 136.622C94.1155 136.743 93.8579 136.855 93.5842 136.959L93.5842 99.6167H94.373Z" fill="#724425"/>
<path d="M97.5698 99.618L97.5698 134.959C97.3042 135.119 97.0466 135.271 96.781 135.423L96.781 99.618H97.5698Z" fill="#724425"/>
<path d="M91.308 99.6178L91.308 137.776C91.0424 137.856 90.7849 137.936 90.5193 138L90.5193 99.6178H91.308V99.6178Z" fill="#724425"/>
<path d="M103.285 99.6185L103.285 130.389C103.051 130.637 102.802 130.869 102.56 131.101C102.544 131.125 102.512 131.141 102.496 131.165L102.496 99.6185H103.285Z" fill="#724425"/>
<path d="M106.479 99.6174L106.479 126.457C106.406 126.577 106.326 126.689 106.246 126.809C106.069 127.074 105.884 127.322 105.699 127.562L105.699 99.6174H106.479Z" fill="#724425"/>
<path d="M110.062 99.6169L110.062 119.285C109.998 119.477 109.933 119.669 109.861 119.861C109.764 120.133 109.66 120.421 109.539 120.685C109.45 120.901 109.37 121.11 109.273 121.326L109.273 99.6169H110.062Z" fill="#724425"/>
<path d="M113.214 99.6174L113.061 100.786L112.965 101.611L112.844 102.523L112.74 103.348L112.627 104.252L112.523 105.077L112.475 105.485V99.6174H113.214Z" fill="#724425"/>
<path d="M100.216 99.6183L100.216 133.134C99.9586 133.342 99.701 133.534 99.4274 133.726L99.4274 99.6183H100.216Z" fill="#724425"/>
<path d="M110.44 119.189C110.359 119.453 110.271 119.709 110.182 119.974H47.651C47.5544 119.709 47.4578 119.453 47.3693 119.189H110.44Z" fill="#724425"/>
<path d="M109.168 122.481C109.047 122.745 108.918 123.001 108.79 123.265H49.1641C49.0193 123.001 48.8905 122.745 48.7537 122.481H109.168Z" fill="#724425"/>
<path d="M107.372 125.77C107.203 126.034 107.026 126.298 106.849 126.562H51.1996C51.0788 126.394 50.9581 126.226 50.8454 126.058C50.781 125.962 50.7166 125.866 50.6522 125.77H107.372Z" fill="#724425"/>
<path d="M104.917 129.066C104.692 129.33 104.458 129.594 104.225 129.85H53.9199C53.9038 129.826 53.8717 129.802 53.8556 129.778C53.6302 129.546 53.4129 129.298 53.1956 129.066H104.917V129.066Z" fill="#724425"/>
<path d="M101.577 132.355C101.255 132.619 100.933 132.883 100.603 133.139H57.6785C57.4209 132.947 57.1714 132.755 56.9219 132.555C56.8333 132.491 56.7528 132.427 56.6643 132.355H101.577Z" fill="#724425"/>
<path d="M96.6664 135.658C96.1512 135.93 95.62 136.194 95.0808 136.443H63.3444C63.3283 136.435 63.3202 136.427 63.3041 136.427C62.7568 136.194 62.2256 135.938 61.7024 135.666H96.6664V135.658Z" fill="#724425"/>
</svg>
