<svg width="16" height="16" viewBox="0 0 16 16" fill="none" xmlns="http://www.w3.org/2000/svg">
<g opacity="0.8">
<path d="M0.99939 11.0015H14.9994L14.9994 12.0015H0.99939L0.99939 11.0015ZM0.99939 13.0015H14.9994V14.0015H0.99939L0.99939 13.0015ZM11.9994 5.00147C11.8016 5.00147 11.6083 5.06012 11.4438 5.17C11.2794 5.27988 11.1512 5.43606 11.0755 5.61878C10.9998 5.80151 10.98 6.00258 11.0186 6.19656C11.0572 6.39054 11.1524 6.56872 11.2923 6.70857C11.4321 6.84843 11.6103 6.94367 11.8043 6.98225C11.9983 7.02084 12.1993 7.00103 12.3821 6.92535C12.5648 6.84966 12.721 6.72149 12.8309 6.55704C12.9407 6.39259 12.9994 6.19925 12.9994 6.00147C12.9994 5.73625 12.894 5.4819 12.7065 5.29436C12.519 5.10682 12.2646 5.00147 11.9994 5.00147ZM7.99939 8.00147C7.60383 8.00147 7.21715 7.88417 6.88825 7.66441C6.55935 7.44464 6.30301 7.13229 6.15163 6.76683C6.00026 6.40138 5.96065 5.99925 6.03782 5.61129C6.11499 5.22332 6.30547 4.86696 6.58518 4.58725C6.86488 4.30755 7.22125 4.11707 7.60921 4.0399C7.99717 3.96272 8.3993 4.00233 8.76476 4.15371C9.13021 4.30508 9.44257 4.56143 9.66233 4.89033C9.88209 5.21922 9.99939 5.6059 9.99939 6.00147C9.99873 6.5317 9.7878 7.04002 9.41287 7.41495C9.03794 7.78988 8.52962 8.0008 7.99939 8.00147V8.00147ZM7.99939 5.00147C7.80161 5.00147 7.60827 5.06012 7.44382 5.17C7.27937 5.27988 7.1512 5.43606 7.07551 5.61878C6.99982 5.80151 6.98002 6.00258 7.0186 6.19656C7.05719 6.39054 7.15243 6.56872 7.29228 6.70857C7.43214 6.84843 7.61032 6.94367 7.8043 6.98225C7.99828 7.02084 8.19935 7.00103 8.38207 6.92535C8.5648 6.84966 8.72098 6.72149 8.83086 6.55704C8.94074 6.39259 8.99939 6.19925 8.99939 6.00147C8.99913 5.73633 8.89368 5.48213 8.70621 5.29465C8.51873 5.10717 8.26453 5.00173 7.99939 5.00147ZM3.99939 5.00147C3.80161 5.00147 3.60827 5.06012 3.44382 5.17C3.27937 5.27988 3.1512 5.43606 3.07551 5.61878C2.99982 5.80151 2.98002 6.00258 3.0186 6.19656C3.05719 6.39054 3.15243 6.56872 3.29228 6.70857C3.43214 6.84843 3.61032 6.94367 3.8043 6.98225C3.99828 7.02084 4.19935 7.00103 4.38207 6.92535C4.5648 6.84966 4.72098 6.72149 4.83086 6.55704C4.94074 6.39259 4.99939 6.19925 4.99939 6.00147C4.99939 5.73625 4.89403 5.4819 4.7065 5.29436C4.51896 5.10682 4.26461 5.00147 3.99939 5.00147Z" fill="#1E2742"/>
<path d="M13.9995 10.0012H1.99951C1.7345 10.0006 1.48053 9.89499 1.29313 9.7076C1.10574 9.52021 1.00017 9.26623 0.999512 9.00122L0.999512 3.00122C1.00017 2.73621 1.10574 2.48224 1.29313 2.29484C1.48053 2.10745 1.7345 2.00188 1.99951 2.00122H13.9995C14.2645 2.00188 14.5185 2.10745 14.7059 2.29484C14.8933 2.48224 14.9989 2.73621 14.9995 3.00122L14.9995 9.00122C14.9991 9.26632 14.8936 9.52044 14.7062 9.70789C14.5187 9.89534 14.2646 10.0008 13.9995 10.0012V10.0012ZM13.9995 3.00122H1.99951L1.99951 9.00122H13.9995L13.9995 3.00122Z" fill="#1E2742"/>
</g>
</svg>
