<svg width="16" height="15" viewBox="0 0 16 15" fill="none" xmlns="http://www.w3.org/2000/svg">
<path d="M0.863612 5.72503L5.27383 5.08408L7.24531 1.08727C7.29916 0.977836 7.38775 0.88925 7.49718 0.835403C7.77162 0.699918 8.10512 0.812822 8.24235 1.08727L10.2138 5.08408L14.624 5.72503C14.7456 5.7424 14.8568 5.79972 14.9419 5.88657C15.0448 5.99233 15.1015 6.13461 15.0996 6.28216C15.0976 6.4297 15.0372 6.57043 14.9315 6.67343L11.7406 9.78438L12.4945 14.1772C12.5122 14.2794 12.5009 14.3845 12.4619 14.4806C12.4228 14.5767 12.3577 14.6599 12.2738 14.7209C12.1899 14.7818 12.0906 14.818 11.9871 14.8254C11.8837 14.8328 11.7802 14.811 11.6885 14.7626L7.74383 12.6886L3.79913 14.7626C3.69143 14.8199 3.56637 14.839 3.44652 14.8182C3.14428 14.7661 2.94105 14.4795 2.99316 14.1772L3.74702 9.78438L0.556165 6.67343C0.469316 6.58831 0.411995 6.47715 0.394626 6.35556C0.347727 6.05158 0.559639 5.77019 0.863612 5.72503Z" fill="#F9C83C"/>
</svg>
