<svg width="12" height="12" viewBox="0 0 12 12" fill="none" xmlns="http://www.w3.org/2000/svg">
<path d="M6.00073 -0.00219727C2.68734 -0.00219727 0.000732422 2.68441 0.000732422 5.9978C0.000732422 9.3112 2.68734 11.9978 6.00073 11.9978C9.31413 11.9978 12.0007 9.3112 12.0007 5.9978C12.0007 2.68441 9.31413 -0.00219727 6.00073 -0.00219727ZM5.57216 3.10495C5.57216 3.04602 5.62038 2.9978 5.6793 2.9978H6.32216C6.38109 2.9978 6.4293 3.04602 6.4293 3.10495L6.4293 6.7478C6.4293 6.80673 6.38109 6.85495 6.32216 6.85495H5.6793C5.62038 6.85495 5.57216 6.80673 5.57216 6.7478L5.57216 3.10495ZM6.00073 8.9978C5.83251 8.99437 5.67233 8.92513 5.55458 8.80495C5.43682 8.68476 5.37086 8.52321 5.37086 8.35495C5.37086 8.18669 5.43682 8.02513 5.55458 7.90495C5.67233 7.78476 5.83251 7.71552 6.00073 7.71209C6.16896 7.71552 6.32913 7.78476 6.44689 7.90495C6.56465 8.02513 6.6306 8.18669 6.6306 8.35495C6.6306 8.52321 6.56465 8.68476 6.44689 8.80495C6.32913 8.92513 6.16896 8.99437 6.00073 8.9978Z" fill="#FE7A15"/>
</svg>
